<svg width="349" height="75" viewBox="0 0 349 75" fill="none" xmlns="http://www.w3.org/2000/svg">
<path d="M122.96 36.1938C121.781 35.4143 120.561 34.8546 119.362 34.5149C118.193 34.1451 117.264 33.8953 116.604 33.7653C114.375 33.1957 112.557 32.736 111.157 32.3662C109.808 32.0064 108.729 31.6367 107.949 31.2769C107.23 30.9271 106.73 30.5574 106.49 30.1576C106.251 29.7579 106.121 29.2282 106.121 28.5686C106.121 27.8491 106.28 27.2495 106.58 26.7897C106.9 26.32 107.3 25.9203 107.77 25.6005C108.279 25.2807 108.849 25.0508 109.448 24.9309C110.068 24.801 110.688 24.7311 111.307 24.7311C112.257 24.7311 113.136 24.811 113.916 24.9809C114.715 25.1408 115.435 25.4206 116.044 25.8004C116.644 26.1801 117.124 26.7098 117.473 27.3794C117.853 28.049 118.083 28.9084 118.143 29.9378V30.1376H126.168V29.9278C126.168 27.8391 125.758 26.0402 124.949 24.5811C124.169 23.0921 123.09 21.8529 121.731 20.9035C120.382 19.9541 118.813 19.2745 117.064 18.8748C113.886 18.0653 110.298 17.9353 106.81 18.8748C105.191 19.3145 103.722 19.994 102.443 20.9035C101.154 21.8129 100.094 22.9822 99.2849 24.3713C98.5054 25.7304 98.1057 27.3594 98.1057 29.2282C98.1057 30.8872 98.4155 32.3362 99.0351 33.5355C99.6847 34.6848 100.524 35.6741 101.543 36.4536C102.553 37.2231 103.712 37.8727 105.001 38.3824C106.27 38.8521 107.59 39.2519 108.919 39.5917C110.208 39.9614 111.507 40.2912 112.776 40.591C114.026 40.8908 115.155 41.2406 116.144 41.6304C117.114 42.0201 117.893 42.5098 118.473 43.0894C119.062 43.6491 119.352 44.3686 119.352 45.288C119.352 46.1375 119.132 46.8471 118.703 47.3967C118.263 47.9364 117.693 48.3761 117.024 48.6859C116.344 49.0057 115.605 49.2356 114.835 49.3655C114.046 49.4654 113.306 49.5154 112.616 49.5154C111.607 49.5154 110.618 49.3955 109.678 49.1756C108.739 48.9158 107.909 48.536 107.2 48.0663C106.53 47.5566 105.981 46.887 105.561 46.0875C105.141 45.288 104.931 44.2987 104.931 43.1394V42.9295H96.9064V43.1394C96.8664 45.368 97.2862 47.3168 98.1256 48.9357C98.9651 50.5547 100.114 51.9139 101.543 52.9632C102.993 54.0025 104.662 54.7721 106.51 55.2418C108.389 55.7414 110.338 56.0013 112.317 56.0013C114.755 56.0013 116.934 55.7115 118.773 55.1418C120.651 54.5722 122.24 53.7627 123.49 52.7533C124.779 51.704 125.758 50.4548 126.398 49.0257C127.037 47.6066 127.367 46.0476 127.367 44.3886C127.367 42.3599 126.917 40.671 126.038 39.3718C125.189 38.0526 124.159 36.9933 122.98 36.2138L122.96 36.1938Z" fill="white"/>
<path d="M149.193 45.0382C148.974 46.5872 148.404 47.8364 147.504 48.7658C146.655 49.6553 145.386 50.095 143.757 50.095C142.707 50.095 141.798 49.8552 141.079 49.3755C140.339 48.8958 139.739 48.2762 139.3 47.5566C138.88 46.7771 138.57 45.9077 138.37 44.9682C138.17 44.0188 138.07 43.0794 138.07 42.16C138.07 41.2406 138.17 40.2512 138.37 39.3018C138.57 38.3324 138.89 37.443 139.34 36.6735C139.819 35.874 140.439 35.2244 141.178 34.7347C141.908 34.225 142.817 33.9752 143.907 33.9752C146.845 33.9752 148.494 35.3743 148.944 38.2425L148.974 38.4224H156.329V38.1925C156.219 36.5036 155.799 35.0245 155.09 33.8053C154.38 32.5461 153.431 31.4968 152.281 30.6873C151.162 29.8378 149.863 29.2082 148.414 28.7985C147.005 28.3987 145.496 28.1889 143.957 28.1889C141.838 28.1889 139.929 28.5486 138.28 29.2582C136.621 29.9677 135.202 30.9771 134.063 32.2563C132.914 33.5055 132.024 35.0245 131.415 36.7834C130.845 38.4923 130.555 40.3811 130.555 42.3999C130.555 44.4186 130.875 46.1775 131.515 47.8264C132.154 49.4454 133.064 50.8645 134.213 52.0438C135.362 53.223 136.761 54.1624 138.39 54.842C140.039 55.4816 141.868 55.8114 143.817 55.8114C147.285 55.8114 150.173 54.882 152.401 53.0631C154.63 51.2343 155.999 48.556 156.479 45.0782L156.509 44.8383H149.233L149.203 45.0182L149.193 45.0382Z" fill="white"/>
<path d="M184.371 52.5435C184.241 51.4841 184.171 50.3648 184.171 49.2256V35.7841C184.171 34.1751 183.801 32.8759 183.082 31.9065C182.362 30.9171 181.433 30.1376 180.304 29.588C179.184 29.0483 177.935 28.6886 176.596 28.5187C173.778 28.0989 171.009 28.0989 168.281 28.6686C166.862 28.9384 165.563 29.4181 164.414 30.0977C163.254 30.7772 162.295 31.6966 161.545 32.8159C160.796 33.9452 160.366 35.3743 160.256 37.0732V37.3031H167.762L167.782 37.1132C167.911 35.7841 168.351 34.8247 169.101 34.265C169.86 33.6954 170.93 33.4056 172.269 33.4056C172.888 33.4056 173.458 33.4555 173.988 33.5555C174.517 33.6154 174.977 33.7753 175.367 34.0352C175.766 34.245 176.056 34.5648 176.286 35.0046C176.526 35.4043 176.656 35.9739 176.656 36.7035C176.686 37.3731 176.496 37.8727 176.086 38.2225C175.647 38.5723 175.037 38.8421 174.267 39.032C173.478 39.2319 172.569 39.3818 171.549 39.4717C170.52 39.5717 169.46 39.7016 168.391 39.8715C167.322 40.0414 166.233 40.2712 165.173 40.571C164.124 40.8409 163.154 41.2706 162.305 41.8502C161.486 42.4299 160.786 43.2294 160.236 44.2187C159.727 45.1781 159.467 46.4273 159.467 47.9164C159.467 49.2755 159.687 50.4648 160.136 51.4542C160.616 52.4435 161.276 53.273 162.095 53.9326C162.915 54.5822 163.884 55.0619 164.973 55.3717C166.053 55.6715 167.232 55.8314 168.481 55.8314C170.09 55.8314 171.699 55.5915 173.238 55.1218C174.657 54.6921 175.916 53.9526 177.006 52.9332C177.036 53.213 177.076 53.5128 177.126 53.8127C177.226 54.2124 177.345 54.6221 177.485 55.0319L177.535 55.1818H185.27L185.071 54.852C184.751 54.3423 184.531 53.5628 184.401 52.5435H184.371ZM176.646 42.7497V44.9683C176.646 45.358 176.596 45.8877 176.496 46.5473C176.436 47.1769 176.226 47.8264 175.876 48.466C175.527 49.0657 174.977 49.5953 174.247 50.045C173.518 50.4848 172.459 50.7146 171.109 50.7146C170.56 50.7146 170.02 50.6647 169.5 50.5647C168.991 50.4648 168.541 50.3149 168.181 50.095C167.812 49.8452 167.512 49.5254 167.302 49.1256C167.082 48.7259 166.972 48.2162 166.972 47.6266C166.972 46.997 167.082 46.4773 167.292 46.0776C167.512 45.6778 167.792 45.348 168.131 45.0982C168.511 44.8084 168.941 44.5885 169.421 44.4286C169.94 44.2687 170.47 44.1288 170.99 44.0388C171.539 43.9389 172.109 43.859 172.678 43.789C173.248 43.719 173.798 43.6391 174.287 43.5392C174.827 43.4392 175.317 43.3193 175.766 43.1794C176.086 43.0595 176.376 42.9196 176.626 42.7597L176.646 42.7497Z" fill="white"/>
<path d="M212.473 31.2469C211.754 30.2875 210.745 29.538 209.485 29.0283C208.266 28.4887 206.667 28.2088 204.748 28.2088C203.219 28.2088 201.71 28.5686 200.261 29.2782C198.922 29.8978 197.803 30.8872 196.913 32.2163V28.9084H189.738V55.1718H197.263V41.4105C197.263 38.8421 197.683 36.9833 198.522 35.894C199.342 34.7947 200.701 34.235 202.55 34.235C204.189 34.235 205.288 34.7247 205.918 35.7341C206.557 36.7235 206.887 38.2825 206.887 40.3712V55.1818H214.412V39.072C214.412 37.463 214.262 35.9839 213.962 34.6848C213.693 33.3256 213.193 32.1663 212.473 31.2469Z" fill="white"/>
<path d="M242.605 31.2469C241.885 30.2875 240.876 29.538 239.626 29.0283C238.407 28.4887 236.808 28.2088 234.889 28.2088C233.36 28.2088 231.851 28.5686 230.402 29.2782C229.063 29.8978 227.944 30.8872 227.054 32.2163V28.9084H219.879V55.1718H227.404V41.4105C227.404 38.8421 227.824 36.9833 228.663 35.894C229.483 34.7947 230.842 34.235 232.691 34.235C234.33 34.235 235.429 34.7247 236.059 35.7341C236.698 36.7335 237.028 38.2925 237.028 40.3712V55.1818H244.553V39.072C244.553 37.463 244.403 35.9839 244.104 34.6848C243.834 33.3256 243.334 32.1663 242.615 31.2469H242.605Z" fill="white"/>
<path d="M273.825 52.5435C273.695 51.4841 273.625 50.3648 273.625 49.2256V35.7841C273.625 34.1751 273.255 32.8759 272.535 31.9065C271.816 30.9171 270.877 30.1376 269.757 29.588C268.638 29.0483 267.389 28.6886 266.05 28.5187C263.231 28.0989 260.463 28.0989 257.735 28.6686C256.316 28.9384 255.017 29.4181 253.867 30.0977C252.708 30.7772 251.749 31.6867 250.999 32.8159C250.25 33.9452 249.82 35.3743 249.71 37.0732V37.3031H257.215L257.235 37.1132C257.365 35.7841 257.805 34.8247 258.554 34.265C259.304 33.7054 260.383 33.4056 261.722 33.4056C262.342 33.4056 262.912 33.4555 263.441 33.5555C263.971 33.6154 264.431 33.7753 264.82 34.0352C265.22 34.245 265.52 34.5648 265.74 35.0046C265.99 35.4043 266.11 35.9639 266.11 36.7035C266.14 37.3731 265.95 37.8727 265.54 38.2225C265.1 38.5723 264.491 38.8421 263.721 39.032C262.932 39.2319 262.022 39.3818 261.003 39.4717C259.973 39.5717 258.914 39.7016 257.845 39.8715C256.775 40.0414 255.696 40.2712 254.627 40.571C253.577 40.8409 252.608 41.2706 251.759 41.8502C250.939 42.4299 250.24 43.2294 249.69 44.2187C249.18 45.1781 248.92 46.4273 248.92 47.9164C248.92 49.2755 249.14 50.4648 249.59 51.4542C250.07 52.4435 250.729 53.273 251.549 53.9326C252.368 54.5822 253.338 55.0619 254.427 55.3717C255.506 55.6715 256.686 55.8314 257.935 55.8314C259.544 55.8314 261.153 55.5915 262.692 55.1218C264.111 54.6921 265.37 53.9526 266.459 52.9332C266.489 53.223 266.529 53.5228 266.579 53.8127C266.679 54.2124 266.799 54.6221 266.929 55.0319L266.979 55.1818H274.714L274.514 54.852C274.194 54.3423 273.975 53.5628 273.845 52.5435H273.825ZM256.436 47.6166C256.436 46.987 256.546 46.4673 256.765 46.0676C256.985 45.6678 257.265 45.338 257.605 45.0882C257.985 44.7984 258.424 44.5785 258.894 44.4186C259.414 44.2587 259.943 44.1188 260.463 44.0289C261.023 43.9289 261.582 43.849 262.152 43.779C262.722 43.7091 263.271 43.6291 263.761 43.5292C264.301 43.4292 264.8 43.3093 265.24 43.1694C265.57 43.0495 265.85 42.9096 266.11 42.7497V44.9683C266.11 45.358 266.06 45.8877 265.96 46.5473C265.9 47.1769 265.69 47.8264 265.34 48.4561C264.99 49.0557 264.451 49.5853 263.711 50.0351C262.982 50.4748 261.922 50.7046 260.573 50.7046C260.023 50.7046 259.484 50.6547 258.964 50.5547C258.454 50.4548 258.005 50.3049 257.645 50.085C257.275 49.8352 256.975 49.5154 256.765 49.1156C256.546 48.7159 256.436 48.2062 256.436 47.6166Z" fill="white"/>
<path d="M302.177 31.5367C301.157 30.4175 299.988 29.578 298.699 29.0383C295.831 27.8291 292.793 28.029 290.034 29.1882C288.695 29.7379 287.586 30.5973 286.726 31.7466V19.0746H279.201V55.1918H286.377V52.2936C287.156 53.5029 288.225 54.3823 289.585 54.922C291.104 55.5316 292.843 55.8414 294.761 55.8414C296.08 55.8414 297.41 55.5716 298.689 55.0219C299.978 54.4822 301.147 53.6328 302.157 52.5235C303.206 51.4042 304.055 49.9751 304.705 48.2562C305.345 46.5073 305.664 44.4186 305.664 42.0401C305.664 39.6616 305.345 37.5829 304.705 35.864C304.065 34.1151 303.206 32.656 302.167 31.5467L302.177 31.5367ZM298.149 42.0701C298.149 43.1094 298.029 44.1388 297.799 45.1182C297.57 46.0875 297.22 46.957 296.73 47.6965C296.25 48.4361 295.631 49.0357 294.901 49.4754C294.202 49.8851 293.332 50.095 292.313 50.095C291.294 50.095 290.454 49.8851 289.725 49.4754C288.985 49.0257 288.375 48.4261 287.896 47.6865C287.416 46.947 287.056 46.0776 286.826 45.1082C286.596 44.1288 286.487 43.0994 286.487 42.0601C286.487 41.0208 286.606 39.9414 286.826 38.9621C287.056 37.9927 287.416 37.1232 287.896 36.3837C288.375 35.6541 288.985 35.0645 289.725 34.6548C290.454 34.2151 291.324 33.9852 292.313 33.9852C293.302 33.9852 294.202 34.2051 294.911 34.6548C295.651 35.0745 296.26 35.6541 296.74 36.3837C297.23 37.1232 297.58 37.9927 297.809 38.9621C298.039 39.9414 298.159 40.9908 298.159 42.0601L298.149 42.0701Z" fill="white"/>
<path d="M317.987 19.0646H310.461V55.1818H317.987V19.0646Z" fill="white"/>
<path d="M348.058 37.9727C347.588 36.1238 346.798 34.4549 345.729 33.0058C344.68 31.5567 343.311 30.3875 341.662 29.548C340.003 28.6686 338.034 28.2188 335.815 28.2188C333.827 28.2188 331.988 28.5786 330.329 29.2882C328.71 29.9977 327.291 30.9871 326.111 32.2363C324.932 33.4455 324.013 34.9246 323.363 36.6035C322.724 38.2825 322.404 40.1313 322.404 42.0801C322.404 44.0288 322.714 45.9676 323.313 47.6565C323.953 49.3455 324.862 50.8146 326.012 52.0238C327.161 53.243 328.58 54.2024 330.239 54.872C331.888 55.5116 333.767 55.8414 335.815 55.8414C338.773 55.8414 341.332 55.1618 343.431 53.8027C345.529 52.4535 347.108 50.175 348.118 47.0369L348.207 46.7571H341.512L341.472 46.907C341.252 47.6565 340.642 48.3861 339.663 49.0856C338.674 49.7552 337.464 50.095 336.085 50.095C334.156 50.095 332.657 49.5953 331.638 48.6059C330.649 47.6466 330.089 46.0875 329.969 43.9789H348.587V43.779C348.737 41.7703 348.567 39.8115 348.098 37.9627L348.058 37.9727ZM341.002 39.062H329.949C329.989 38.6323 330.089 38.1526 330.219 37.6429C330.409 37.0333 330.719 36.4536 331.128 35.914C331.568 35.3743 332.158 34.9246 332.857 34.5648C333.587 34.1851 334.516 33.9852 335.605 33.9852C337.264 33.9852 338.504 34.4349 339.293 35.3144C340.083 36.1738 340.662 37.423 340.992 39.052L341.002 39.062Z" fill="white"/>
<path d="M37.7241 74.5296C29.2795 74.5296 23.1833 74.5296 18.3564 73.9299C13.2696 73.3003 9.98166 72.0611 7.34332 69.7626C6.68374 69.1829 6.05414 68.5533 5.47451 67.8938C3.17596 65.2554 1.92675 61.9675 1.30714 56.8807C0.70752 52.0338 0.70752 45.9476 0.70752 37.513C0.70752 29.0783 0.70752 22.9821 1.30714 18.1352C1.93674 13.0484 3.18595 9.75052 5.47451 7.12218C6.05414 6.4526 6.68374 5.83299 7.34332 5.25336C9.98166 2.95481 13.2696 1.7056 18.3564 1.08599C23.1933 0.486374 29.2894 0.486374 37.7241 0.486374C46.1588 0.486374 52.2549 0.486374 57.0919 1.08599C62.1786 1.7156 65.4666 2.95481 68.1049 5.25336C68.7645 5.823 69.3941 6.4526 69.9737 7.12218C72.2723 9.75052 73.5215 13.0484 74.1411 18.1352C74.7407 22.9722 74.7407 29.0683 74.7407 37.513C74.7407 45.9576 74.7407 52.0538 74.1411 56.8807C73.5115 61.9675 72.2623 65.2654 69.9737 67.8938C69.3941 68.5533 68.7645 69.1829 68.1049 69.7626C65.4766 72.0611 62.1786 73.3103 57.0919 73.9299C52.2549 74.5296 46.1588 74.5296 37.7241 74.5296ZM37.7241 4.96354C29.4493 4.96354 23.4631 4.96354 18.896 5.52319C14.7586 6.03287 12.1803 6.96228 10.2715 8.63122C9.76179 9.07095 9.2821 9.56064 8.83238 10.0703C7.16344 11.9791 6.24402 14.5575 5.73434 18.6949C5.1747 23.262 5.17469 29.558 5.17469 37.523C5.17469 45.4879 5.1747 51.7739 5.73434 56.351C6.24402 60.4884 7.17343 63.0668 8.84238 64.9756C9.29209 65.4853 9.77179 65.975 10.2815 66.4147C12.1903 68.0836 14.7686 69.013 18.906 69.5227C23.4731 70.0824 29.4493 70.0824 37.7341 70.0824C46.0189 70.0824 51.9951 70.0824 56.5622 69.5227C60.6996 69.013 63.278 68.0836 65.1867 66.4147C65.6964 65.975 66.1761 65.4853 66.6258 64.9756C68.2948 63.0668 69.2242 60.4884 69.7339 56.351C70.2935 51.7839 70.2935 45.8077 70.2935 37.523C70.2935 29.2382 70.2935 23.262 69.7339 18.6949C69.2242 14.5575 68.2948 11.9791 66.6258 10.0703C66.1761 9.56064 65.6964 9.07095 65.1867 8.63122C63.278 6.96228 60.6896 6.03287 56.5622 5.52319C51.9951 4.96354 46.0089 4.96354 37.7341 4.96354H37.7241Z" fill="#CCFF00"/>
<path d="M12.6997 45.8377V39.1419C20.185 39.1419 25.2718 33.4755 28.2099 28.7185C31.8776 22.7923 39.6627 16.4863 46.8681 16.4863V23.182C42.5408 23.182 36.7545 27.8391 34.0562 32.1963C28.6096 41.0007 21.0244 45.8477 12.7097 45.8477L12.6997 45.8377Z" fill="#CCFF00"/>
<path d="M27.4807 51.3342V44.5285C33.337 44.5285 37.2245 39.5917 39.0234 36.6535C42.0115 31.7566 48.3675 26.5699 54.2538 26.5699V33.3756C51.4855 33.3756 47.0983 36.5636 44.8797 40.1813C40.4825 47.3867 34.3064 51.3442 27.4707 51.3442L27.4807 51.3342Z" fill="#CCFF00"/>
<path d="M42.251 56.8407V50.2849C46.1685 50.2849 48.9367 46.967 50.2359 44.9782C52.6444 41.3006 57.6512 37.5829 62.5681 37.5829V44.1388C60.7393 44.1388 57.7612 46.1575 56.3021 48.3761C52.7244 53.8326 47.7375 56.8407 42.251 56.8407Z" fill="#CCFF00"/>
</svg>
