<svg width="349" height="75" viewBox="0 0 349 75" fill="none" xmlns="http://www.w3.org/2000/svg">
<g clip-path="url(#clip0_2113_310)">
<path d="M123.241 36.1842C122.061 35.4047 120.842 34.8451 119.643 34.5053C118.474 34.1355 117.544 33.8857 116.885 33.7558C114.656 33.1861 112.837 32.7264 111.438 32.3566C110.089 31.9969 109.01 31.6271 108.23 31.2673C107.511 30.9175 107.011 30.5478 106.771 30.148C106.531 29.7483 106.401 29.2186 106.401 28.559C106.401 27.8395 106.561 27.2399 106.861 26.7802C107.181 26.3105 107.581 25.9107 108.05 25.5909C108.56 25.2711 109.13 25.0413 109.729 24.9213C110.349 24.7914 110.968 24.7215 111.588 24.7215C112.537 24.7215 113.417 24.8014 114.196 24.9713C114.996 25.1312 115.715 25.411 116.325 25.7908C116.925 26.1705 117.404 26.7002 117.754 27.3698C118.134 28.0394 118.364 28.8988 118.424 29.9282V30.128H126.449V29.9182C126.449 27.8295 126.039 26.0306 125.219 24.5716C124.44 23.0825 123.361 21.8433 122.001 20.8939C120.652 19.9545 119.083 19.2649 117.334 18.8652C114.156 18.0557 110.569 17.9158 107.081 18.8652C105.462 19.3049 103.993 19.9845 102.714 20.8939C101.424 21.8033 100.365 22.9726 99.5557 24.3617C98.7762 25.7208 98.3764 27.3598 98.3764 29.2186C98.3764 30.8776 98.6862 32.3267 99.3058 33.5259C99.9454 34.6752 100.795 35.6645 101.814 36.4441C102.824 37.2136 103.983 37.8632 105.272 38.3728C106.541 38.8425 107.86 39.2423 109.19 39.5821C110.479 39.9518 111.778 40.2816 113.047 40.5814C114.296 40.8812 115.426 41.231 116.415 41.6208C117.384 42.0105 118.164 42.5002 118.744 43.0799C119.343 43.6395 119.623 44.359 119.623 45.2785C119.623 46.1279 119.403 46.8375 118.973 47.3871C118.524 47.9268 117.964 48.3665 117.294 48.6763C116.615 48.9961 115.875 49.226 115.106 49.3559C114.316 49.4558 113.577 49.5058 112.887 49.5058C111.878 49.5058 110.889 49.3859 109.949 49.166C109.01 48.9062 108.17 48.5264 107.471 48.0567C106.801 47.547 106.251 46.8775 105.832 46.078C105.412 45.2785 105.202 44.2891 105.202 43.1298V42.92H97.1872V43.1298C97.1472 45.3584 97.5669 47.3072 98.4064 48.9262C99.2559 50.5451 100.395 51.9043 101.824 52.9536C103.273 53.993 104.942 54.7625 106.791 55.2322C108.67 55.7319 110.619 55.9917 112.597 55.9917C115.036 55.9917 117.215 55.7019 119.053 55.1322C120.932 54.5626 122.521 53.7531 123.77 52.7437C125.06 51.6944 126.039 50.4452 126.679 49.0161C127.318 47.597 127.648 46.038 127.648 44.379C127.648 42.3503 127.198 40.6614 126.319 39.3622C125.469 38.043 124.44 36.9837 123.261 36.2042L123.241 36.1842Z" fill="#201B30"/>
<path d="M149.474 45.0286C149.244 46.5777 148.674 47.8269 147.785 48.7563C146.926 49.6457 145.666 50.0854 144.037 50.0854C142.988 50.0854 142.079 49.8456 141.359 49.3659C140.619 48.8862 140.02 48.2666 139.58 47.547C139.16 46.7675 138.851 45.8981 138.651 44.9587C138.451 44.0093 138.351 43.0699 138.351 42.1505C138.351 41.231 138.451 40.2417 138.651 39.2923C138.841 38.3229 139.17 37.4334 139.62 36.6639C140.1 35.8644 140.719 35.2148 141.459 34.7252C142.188 34.2155 143.098 33.9656 144.187 33.9656C147.125 33.9656 148.774 35.3647 149.224 38.2329L149.254 38.4128H156.609V38.183C156.499 36.494 156.08 35.015 155.37 33.7957C154.661 32.5365 153.711 31.4872 152.562 30.6777C151.443 29.8282 150.143 29.1986 148.694 28.7889C147.285 28.3892 145.786 28.1793 144.237 28.1793C142.119 28.1793 140.21 28.5391 138.551 29.2486C136.892 29.9582 135.473 30.9675 134.333 32.2467C133.184 33.4959 132.295 35.015 131.685 36.7739C131.116 38.4828 130.826 40.3716 130.826 42.3903C130.826 44.409 131.145 46.1679 131.795 47.8169C132.435 49.4358 133.344 50.855 134.493 52.0342C135.643 53.2135 137.042 54.1529 138.671 54.8324C140.32 55.472 142.149 55.8018 144.097 55.8018C147.565 55.8018 150.453 54.8724 152.682 53.0536C154.91 51.2247 156.28 48.5464 156.759 45.0686L156.789 44.8288H149.514L149.484 45.0086L149.474 45.0286Z" fill="#201B30"/>
<path d="M184.652 52.5339C184.522 51.4845 184.452 50.3653 184.452 49.216V35.7745C184.452 34.1655 184.082 32.8663 183.363 31.8969C182.643 30.9076 181.714 30.1281 180.584 29.5784C179.465 29.0387 178.216 28.679 176.877 28.5091C174.059 28.0893 171.29 28.0893 168.562 28.659C167.143 28.9288 165.844 29.4085 164.694 30.0881C163.535 30.7676 162.576 31.6871 161.826 32.8064C161.077 33.9356 160.647 35.3647 160.537 37.0637V37.2935H168.042L168.062 37.1036C168.192 35.7745 168.632 34.8151 169.381 34.2554C170.141 33.6858 171.21 33.396 172.549 33.396C173.169 33.396 173.739 33.446 174.278 33.5459C174.808 33.6059 175.268 33.7658 175.657 34.0256C176.057 34.2355 176.347 34.5553 176.577 34.995C176.817 35.3947 176.947 35.9544 176.947 36.6939C176.977 37.3635 176.787 37.8632 176.377 38.2129C175.937 38.5627 175.328 38.8325 174.558 39.0224C173.769 39.2223 172.859 39.3722 171.84 39.4621C170.811 39.5621 169.751 39.692 168.682 39.8619C167.613 40.0318 166.533 40.2616 165.464 40.5615C164.415 40.8313 163.445 41.261 162.596 41.8406C161.776 42.4203 161.077 43.2198 160.527 44.2091C160.017 45.1685 159.748 46.4178 159.748 47.9068C159.748 49.2659 159.977 50.4552 160.417 51.4446C160.897 52.4339 161.556 53.2734 162.376 53.923C163.195 54.5726 164.155 55.0523 165.244 55.3621C166.323 55.6619 167.503 55.8218 168.752 55.8218C170.361 55.8218 171.97 55.582 173.509 55.1123C174.928 54.6825 176.187 53.943 177.276 52.9236C177.306 53.2135 177.346 53.5033 177.396 53.8031C177.496 54.2028 177.616 54.6126 177.746 55.0223L177.796 55.1722H185.531L185.331 54.8424C185.012 54.3327 184.792 53.5632 184.662 52.5339H184.652ZM176.927 42.7401V44.9587C176.927 45.3484 176.877 45.8781 176.777 46.5377C176.717 47.1673 176.507 47.8169 176.157 48.4565C175.807 49.0561 175.258 49.5857 174.528 50.0355C173.799 50.4752 172.739 50.705 171.39 50.705C170.841 50.705 170.301 50.6551 169.781 50.5551C169.272 50.4552 168.822 50.3053 168.462 50.0854C168.092 49.8356 167.792 49.5158 167.583 49.116C167.363 48.7163 167.263 48.2066 167.263 47.617C167.263 46.9874 167.373 46.4677 167.583 46.068C167.802 45.6682 168.082 45.3384 168.422 45.0886C168.802 44.8088 169.232 44.5789 169.711 44.419C170.231 44.2591 170.761 44.1192 171.28 44.0293C171.83 43.9293 172.4 43.8494 172.969 43.7794C173.539 43.7095 174.088 43.6295 174.578 43.5296C175.118 43.4296 175.608 43.3097 176.057 43.1698C176.387 43.0499 176.667 42.91 176.917 42.7501L176.927 42.7401Z" fill="#201B30"/>
<path d="M212.754 31.2373C212.035 30.278 211.026 29.5284 209.776 29.0187C208.557 28.4791 206.958 28.1993 205.039 28.1993C203.51 28.1993 202.001 28.559 200.552 29.2686C199.213 29.8882 198.094 30.8776 197.204 32.2067V28.8988H190.029V55.1622H197.554V41.4009C197.554 38.8325 197.974 36.9737 198.813 35.8844C199.633 34.7851 200.992 34.2255 202.841 34.2255C204.48 34.2255 205.579 34.7151 206.209 35.7245C206.848 36.7139 207.178 38.2729 207.178 40.3616V55.1722H214.703V39.0624C214.703 37.4534 214.553 35.9743 214.243 34.6752C213.974 33.316 213.474 32.1568 212.754 31.2373Z" fill="#201B30"/>
<path d="M242.885 31.2373C242.166 30.278 241.156 29.5284 239.907 29.0187C238.688 28.4791 237.089 28.1993 235.17 28.1993C233.641 28.1993 232.132 28.559 230.683 29.2686C229.344 29.8882 228.225 30.8776 227.335 32.2067V28.8988H220.16V55.1622H227.685V41.4009C227.685 38.8325 228.105 36.9737 228.944 35.8844C229.764 34.7851 231.123 34.2255 232.972 34.2255C234.581 34.2255 235.72 34.7251 236.339 35.7245C236.979 36.7139 237.309 38.2729 237.309 40.3616V55.1722H244.834V39.0624C244.834 37.4534 244.684 35.9743 244.384 34.6752C244.115 33.316 243.615 32.1568 242.895 31.2373H242.885Z" fill="#201B30"/>
<path d="M274.105 52.5339C273.976 51.4746 273.906 50.3653 273.906 49.216V35.7745C273.906 34.1655 273.536 32.8663 272.816 31.8969C272.097 30.9076 271.167 30.1281 270.038 29.5784C268.919 29.0387 267.67 28.679 266.33 28.5091C263.512 28.0893 260.744 28.0893 258.016 28.659C256.597 28.9288 255.297 29.4085 254.148 30.0881C252.989 30.7676 252.029 31.6771 251.28 32.8064C250.53 33.9356 250.101 35.3647 249.991 37.0637V37.2935H257.496L257.516 37.1036C257.646 35.7745 258.086 34.8151 258.835 34.2554C259.595 33.6858 260.664 33.396 262.003 33.396C262.623 33.396 263.192 33.446 263.732 33.5459C264.262 33.6059 264.721 33.7658 265.111 34.0256C265.511 34.2355 265.801 34.5553 266.031 34.995C266.27 35.3947 266.4 35.9644 266.4 36.6939C266.43 37.3635 266.24 37.8632 265.831 38.2129C265.391 38.5627 264.781 38.8325 264.012 39.0224C263.222 39.2223 262.313 39.3722 261.294 39.4621C260.264 39.5621 259.205 39.692 258.136 39.8619C257.066 40.0318 255.977 40.2616 254.918 40.5615C253.868 40.8313 252.899 41.261 252.049 41.8406C251.23 42.4203 250.53 43.2198 249.981 44.2091C249.471 45.1685 249.201 46.4178 249.201 47.9068C249.201 49.2659 249.431 50.4552 249.871 51.4446C250.35 52.4339 251.01 53.2634 251.83 53.923C252.649 54.5726 253.618 55.0523 254.708 55.3621C255.787 55.6619 256.966 55.8218 258.215 55.8218C259.824 55.8218 261.433 55.582 262.972 55.1123C264.392 54.6825 265.651 53.943 266.74 52.9236C266.77 53.2135 266.81 53.5133 266.85 53.8031C266.95 54.2028 267.07 54.6126 267.2 55.0223L267.25 55.1722H274.985L274.785 54.8424C274.465 54.3327 274.245 53.5632 274.115 52.5339H274.105ZM266.38 42.7401V44.9587C266.38 45.3484 266.33 45.8681 266.23 46.5377C266.17 47.1773 265.961 47.8169 265.611 48.4565C265.261 49.0561 264.721 49.5857 263.982 50.0355C263.252 50.4752 262.193 50.705 260.844 50.705C260.294 50.705 259.755 50.6551 259.235 50.5551C258.725 50.4552 258.285 50.3053 257.916 50.0854C257.546 49.8356 257.256 49.5158 257.036 49.116C256.816 48.7163 256.716 48.2066 256.716 47.617C256.716 46.9874 256.826 46.4677 257.036 46.068C257.256 45.6682 257.536 45.3384 257.876 45.0886C258.255 44.7988 258.685 44.5789 259.165 44.419C259.685 44.2591 260.214 44.1192 260.734 44.0293C261.284 43.9293 261.853 43.8494 262.423 43.7794C262.992 43.7095 263.542 43.6295 264.032 43.5296C264.571 43.4296 265.061 43.3097 265.511 43.1698C265.831 43.0499 266.12 42.91 266.37 42.7501L266.38 42.7401Z" fill="#201B30"/>
<path d="M302.447 31.5272C301.428 30.4079 300.259 29.5684 298.969 29.0287C296.111 27.8195 293.063 28.0194 290.305 29.1787C288.966 29.7283 287.856 30.5878 286.997 31.737V19.065H279.472V55.1822H286.647V52.284C287.427 53.4933 288.496 54.3727 289.855 54.9124C291.374 55.522 293.113 55.8318 295.032 55.8318C296.351 55.8318 297.68 55.562 298.959 55.0123C300.249 54.4727 301.418 53.6232 302.427 52.5139C303.477 51.3946 304.326 49.9655 304.976 48.2466C305.615 46.4977 305.935 44.409 305.935 42.0305C305.935 39.652 305.615 37.5733 304.976 35.8544C304.336 34.1055 303.477 32.6465 302.437 31.5372L302.447 31.5272ZM298.43 42.0605C298.43 43.1098 298.31 44.1292 298.09 45.1086C297.86 46.078 297.5 46.9474 297.021 47.6869C296.541 48.4265 295.921 49.0261 295.192 49.4658C294.492 49.8756 293.623 50.0854 292.603 50.0854C291.584 50.0854 290.745 49.8756 290.015 49.4658C289.275 49.0161 288.666 48.4165 288.186 47.677C287.706 46.9374 287.337 46.068 287.117 45.0986C286.887 44.1192 286.777 43.0998 286.777 42.0505C286.777 41.0012 286.897 39.9319 287.117 38.9525C287.347 37.9831 287.706 37.1136 288.186 36.3741C288.666 35.6446 289.275 35.0549 290.015 34.6452C290.745 34.2055 291.614 33.9756 292.603 33.9756C293.593 33.9756 294.492 34.1955 295.202 34.6452C295.931 35.0649 296.551 35.6446 297.031 36.3741C297.51 37.1136 297.87 37.9831 298.1 38.9525C298.33 39.9319 298.44 40.9712 298.44 42.0505L298.43 42.0605Z" fill="#201B30"/>
<path d="M318.267 19.0551H310.742V55.1722H318.267V19.0551Z" fill="#201B30"/>
<path d="M348.338 37.9631C347.869 36.1143 347.079 34.4453 346.01 32.9962C344.96 31.5471 343.591 30.3779 341.942 29.5384C340.283 28.659 338.315 28.2093 336.096 28.2093C334.107 28.2093 332.269 28.569 330.61 29.2786C328.991 29.9881 327.571 30.9775 326.392 32.2267C325.213 33.436 324.284 34.915 323.644 36.594C323.004 38.2729 322.685 40.1217 322.685 42.0705C322.685 44.0193 322.994 45.958 323.594 47.647C324.234 49.3259 325.143 50.805 326.282 52.0142C327.432 53.2334 328.851 54.1928 330.51 54.8624C332.159 55.502 334.037 55.8318 336.086 55.8318C339.044 55.8318 341.613 55.1522 343.701 53.7931C345.8 52.4439 347.379 50.1654 348.388 47.0274L348.478 46.7475H341.783L341.743 46.8974C341.523 47.647 340.913 48.3865 339.924 49.0761C338.934 49.7456 337.725 50.0854 336.346 50.0854C334.417 50.0854 332.918 49.5857 331.899 48.5964C330.909 47.637 330.35 46.078 330.23 43.9693H348.848V43.7694C348.998 41.7607 348.828 39.8019 348.358 37.9531L348.338 37.9631ZM341.283 39.0524H330.23C330.27 38.6227 330.37 38.143 330.5 37.6333C330.69 37.0237 330.999 36.444 331.409 35.9044C331.849 35.3647 332.438 34.915 333.138 34.5552C333.867 34.1755 334.797 33.9756 335.886 33.9756C337.545 33.9756 338.784 34.4253 339.574 35.3048C340.363 36.1542 340.933 37.4134 341.273 39.0424L341.283 39.0524Z" fill="#201B30"/>
<path d="M38.0048 2.71539C46.3695 2.71539 52.4357 2.71539 57.1027 3.29503C61.7198 3.86467 64.6579 4.96397 66.9265 6.93273C67.5161 7.4424 68.0658 8.00205 68.5755 8.58168C70.5442 10.8403 71.6435 13.7884 72.2132 18.4055C72.7928 23.0725 72.7928 29.1387 72.7928 37.5034C72.7928 45.8681 72.7928 51.9343 72.2132 56.6013C71.6435 61.2184 70.5442 64.1565 68.5755 66.4251C68.0658 67.0147 67.5061 67.5644 66.9265 68.0741C64.6679 70.0428 61.7198 71.1421 57.1027 71.7118C52.4357 72.2914 46.3695 72.2914 38.0048 72.2914C29.6401 72.2914 23.5739 72.2914 18.9069 71.7118C14.2898 71.1421 11.3517 70.0428 9.08309 68.0741C8.49346 67.5644 7.94381 67.0047 7.43413 66.4251C5.46537 64.1665 4.36607 61.2184 3.79643 56.6013C3.2168 51.9343 3.2168 45.8681 3.2168 37.5034C3.2168 29.1387 3.2168 23.0725 3.79643 18.4055C4.36607 13.7884 5.46537 10.8502 7.43413 8.58168C7.94381 7.99206 8.50345 7.4424 9.08309 6.93273C11.3417 4.96397 14.2898 3.86467 18.9069 3.29503C23.5739 2.71539 29.6401 2.71539 38.0048 2.71539Z" fill="#CCFF00" stroke="#CCFF00" stroke-width="4.46718"/>
<path d="M12.9805 45.8281V39.1324C20.4657 39.1324 25.5525 33.4659 28.4907 28.7089C32.1583 22.7827 39.9434 16.4767 47.1489 16.4767V23.1725C42.8216 23.1725 37.0353 27.8295 34.337 32.1867C28.8904 40.9912 21.3052 45.8381 12.9905 45.8381L12.9805 45.8281Z" fill="#201B30"/>
<path d="M27.7615 51.3246V44.5189C33.6178 44.5189 37.5053 39.5821 39.3042 36.6439C42.2923 31.747 48.6483 26.5603 54.5345 26.5603V33.366C51.7663 33.366 47.3791 36.554 45.1605 40.1717C40.7632 47.3771 34.5871 51.3346 27.7515 51.3346L27.7615 51.3246Z" fill="#201B30"/>
<path d="M42.5317 56.8312V50.2753C46.4493 50.2753 49.2175 46.9574 50.5167 44.9687C52.9252 41.291 57.932 37.5733 62.8489 37.5733V44.1292C61.02 44.1292 58.0419 46.1479 56.5829 48.3665C53.0051 53.8231 48.0183 56.8312 42.5317 56.8312Z" fill="#201B30"/>
</g>
<defs>
<clipPath id="clip0_2113_310">
<rect width="347.91" height="74.0523" fill="white" transform="translate(0.988281 0.477219)"/>
</clipPath>
</defs>
</svg>
