<svg width="49" height="49" viewBox="0 0 49 49" fill="none" xmlns="http://www.w3.org/2000/svg">
<mask id="mask0_9240_9970" style="mask-type:luminance" maskUnits="userSpaceOnUse" x="1" y="1" width="48" height="48">
<path d="M48.0943 1H1V48.0943H48.0943V1Z" fill="white" style="fill:white;fill-opacity:1;"/>
</mask>
<g mask="url(#mask0_9240_9970)">
<mask id="mask1_9240_9970" style="mask-type:alpha" maskUnits="userSpaceOnUse" x="-13" y="1" width="62" height="46">
<path fill-rule="evenodd" clip-rule="evenodd" d="M48.0938 1H-12.7363V46.1321H21.195C18.3982 43.0076 16.6976 38.8814 16.6976 34.358C16.6976 24.6045 24.6044 16.6976 34.358 16.6976C39.9058 16.6976 44.8562 19.2557 48.0938 23.2568V1ZM48.0938 45.4592C47.9085 45.6883 47.7175 45.9127 47.5211 46.1321H48.0938V45.4592Z" fill="#D9D9D9" style="fill:#D9D9D9;fill:color(display-p3 0.8510 0.8510 0.8510);fill-opacity:1;"/>
</mask>
<g mask="url(#mask1_9240_9970)">
<path d="M7.72773 2.96289H39.4038C42.0356 2.96289 44.17 5.09631 44.17 7.72822V31.5557C44.1699 34.1876 42.0356 36.321 39.4038 36.321H7.72773C5.09588 36.321 2.96249 34.1876 2.9624 31.5557V7.72822C2.9624 5.09631 5.09582 2.96289 7.72773 2.96289Z" stroke="#CCFF00" style="stroke:#CCFF00;stroke:color(display-p3 0.8000 1.0000 0.0000);stroke-opacity:1;" stroke-width="4.33333"/>
</g>
<path d="M34.3581 46.1331C40.8604 46.1331 46.1316 40.8619 46.1316 34.3595C46.1316 27.8572 40.8604 22.5859 34.3581 22.5859C27.8557 22.5859 22.5845 27.8572 22.5845 34.3595C22.5845 40.8619 27.8557 46.1331 34.3581 46.1331Z" stroke="#CCFF00" style="stroke:#CCFF00;stroke:color(display-p3 0.8000 1.0000 0.0000);stroke-opacity:1;" stroke-width="4.33333"/>
<path d="M40.2448 32.3955H28.4712V36.32H40.2448V32.3955Z" fill="#CCFF00" style="fill:#CCFF00;fill:color(display-p3 0.8000 1.0000 0.0000);fill-opacity:1;"/>
<path d="M36.3208 40.2462V28.4727H32.3963V40.2462H36.3208Z" fill="#CCFF00" style="fill:#CCFF00;fill:color(display-p3 0.8000 1.0000 0.0000);fill-opacity:1;"/>
<path d="M22.584 18.6611H24.5463" stroke="#CCFF00" style="stroke:#CCFF00;stroke:color(display-p3 0.8000 1.0000 0.0000);stroke-opacity:1;" stroke-width="4.33333" stroke-linecap="round"/>
<path d="M10.8105 18.6611H14.7351" stroke="#CCFF00" style="stroke:#CCFF00;stroke:color(display-p3 0.8000 1.0000 0.0000);stroke-opacity:1;" stroke-width="4.33333" stroke-linecap="round"/>
<path d="M16.6978 26.5098H10.811" stroke="#CCFF00" style="stroke:#CCFF00;stroke:color(display-p3 0.8000 1.0000 0.0000);stroke-opacity:1;" stroke-width="4.33333" stroke-linecap="round"/>
</g>
</svg>
