<svg width="48" height="48" viewBox="0 0 48 48" fill="none" xmlns="http://www.w3.org/2000/svg">
<g clip-path="url(#clip0_9240_9950)">
<path d="M30.8292 38.118H41.5491C42.7038 38.118 43.6296 37.1319 43.4162 35.9971C42.1532 29.2806 37.4524 26.8986 32.7114 26.8239C31.7627 26.8089 30.8126 26.8881 29.8881 27.0767C29.3457 27.1873 28.8123 27.3355 28.2932 27.5244M38.3581 15.5299C38.3581 18.5217 35.786 21.1769 32.7114 21.1769C29.6367 21.1769 27.0647 18.5217 27.0647 15.5299C27.0647 12.538 29.6367 9.88281 32.7114 9.88281C35.786 9.88281 38.3581 12.538 38.3581 15.5299ZM15.1658 26.824C10.3213 26.7477 5.4349 29.1254 4.14321 35.9959C3.92982 37.131 4.85081 38.1181 5.99979 38.1181H24.014C25.1629 38.1181 26.084 37.1315 25.8706 35.9965C24.6074 29.2806 19.9067 26.8987 15.1658 26.824ZM20.8124 15.5299C20.8124 18.5217 18.2405 21.1769 15.1658 21.1769C12.0912 21.1769 9.51918 18.5217 9.51918 15.5299C9.51918 12.538 12.0912 9.88281 15.1658 9.88281C18.2405 9.88281 20.8124 12.538 20.8124 15.5299Z" stroke="white" style="stroke:white;stroke-opacity:1;" stroke-width="3.76471" stroke-linecap="round" stroke-linejoin="round"/>
</g>
<defs>
<clipPath id="clip0_9240_9950">
<rect width="44" height="32" fill="white" style="fill:white;fill-opacity:1;" transform="translate(2 8)"/>
</clipPath>
</defs>
</svg>
