<svg width="48" height="48" viewBox="0 0 48 48" fill="none" xmlns="http://www.w3.org/2000/svg">
<path d="M14 15.833H25" stroke="white" style="stroke:white;stroke-opacity:1;" stroke-width="3.66667" stroke-linecap="round"/>
<path d="M14 23.167H25" stroke="white" style="stroke:white;stroke-opacity:1;" stroke-width="3.66667" stroke-linecap="round"/>
<path d="M10.3335 6.66699H28.6668C31.7044 6.66699 34.1668 9.12942 34.1668 12.167V39.667C34.1668 40.6795 33.346 41.5003 32.3335 41.5003H6.66683C5.65431 41.5003 4.8335 40.6795 4.8335 39.667V12.167C4.8335 9.12942 7.29593 6.66699 10.3335 6.66699Z" stroke="white" style="stroke:white;stroke-opacity:1;" stroke-width="3.66667"/>
<path d="M37.8335 14C40.8711 14 43.3335 16.4624 43.3335 19.5V39.6667C43.3335 40.6792 42.5127 41.5 41.5002 41.5H37.8335" stroke="white" style="stroke:white;stroke-opacity:1;" stroke-width="3.66667"/>
<path d="M21.3335 30.5H17.6668C16.6543 30.5 15.8335 31.3208 15.8335 32.3333V39.6667C15.8335 40.6792 16.6543 41.5 17.6668 41.5H21.3335C22.346 41.5 23.1668 40.6792 23.1668 39.6667V32.3333C23.1668 31.3208 22.346 30.5 21.3335 30.5Z" stroke="white" style="stroke:white;stroke-opacity:1;" stroke-width="3.66667"/>
</svg>
