<svg width="1080" height="1080" viewBox="0 0 1080 1080" fill="none" xmlns="http://www.w3.org/2000/svg">
<g clip-path="url(#clip0_9318_2226)">
<path d="M1080 0H0V1080H1080V0Z" fill="white" style="fill:white;fill-opacity:1;"/>
<path d="M1080 0H0V1080H1080V0Z" fill="white" style="fill:white;fill-opacity:1;"/>
<mask id="mask0_9318_2226" style="mask-type:luminance" maskUnits="userSpaceOnUse" x="492" y="348" width="254" height="384">
<path d="M492.485 348.031H745.809V732H492.485V348.031Z" fill="white" style="fill:white;fill-opacity:1;"/>
</mask>
<g mask="url(#mask0_9318_2226)">
<path d="M712.566 546.743C733.63 566.114 745.808 594.825 745.808 623.537C745.808 697.558 679.427 731.837 593.02 731.837C562.028 731.837 519.794 728.796 492.499 726.478V530.8C582.02 530.8 642.348 502.263 642.348 460.544C642.348 435.605 623.22 421.458 597.966 421.458C589.595 421.458 582.126 421.909 574.929 423.393V495.274C550.645 503.263 518.237 506.482 492.499 506.308V355.77C527.161 351.482 559.293 348.16 597.103 348.16C663.204 348.16 725.778 383.928 725.778 454.976C725.778 526.024 665.037 569.299 574.929 582.094V653.006C580.88 654.009 585.516 654.669 592.985 654.669C623.667 654.669 653.45 643.979 653.45 611.291C653.45 603.37 651.442 595.276 646.878 588.704C670.677 579.504 695.097 564.799 712.566 546.743Z" fill="#2F205B" style="fill:#2F205B;fill:color(display-p3 0.1843 0.1255 0.3569);fill-opacity:1;"/>
</g>
<path d="M469 720C460.13 719.06 436.466 718.68 424.409 718.68H383.524C371.676 718.68 348.187 719.06 339.317 720C339.317 714.232 338 691.993 338 669.549C338 633.552 355.221 620.939 371.467 620.939C386.089 620.939 395.897 630.219 400.328 642.448C404.763 623.896 416.233 615 431.029 615C452.303 615 468.932 631.33 468.932 666.007V720H469ZM391.113 673.266C391.113 662.324 385.953 655.825 377.602 655.825C368.732 655.825 364.088 661.939 364.088 673.65C364.088 678.098 364.262 681.431 364.471 683.657C367.07 683.828 369.839 683.828 371.505 683.828H384.082C385.399 683.828 390.179 683.828 390.942 683.657C391.113 682.546 391.113 674.761 391.113 673.266ZM443.087 670.869C443.087 658.987 438.268 651.202 428.29 651.202C419.769 651.202 413.668 658.256 413.668 673.65C413.668 677.714 413.843 681.085 414.222 683.828H436.223C438.06 683.828 439.725 683.828 442.324 683.657C442.704 679.94 443.049 674.761 443.049 670.869H443.087Z" fill="#2F205B" style="fill:#2F205B;fill:color(display-p3 0.1843 0.1255 0.3569);fill-opacity:1;"/>
<path d="M428.425 519.809L429.531 571.779C440.804 571.022 447.064 563.866 447.064 550.488C447.064 535.974 442.637 525.346 437.657 515.956L461.484 516.506C468.126 527.722 472 540.034 472 554.511C472 588.112 451.32 605 425.486 605C396.127 605 376 584.263 376 555.064C376 525.861 395.953 513 420.681 513L428.425 519.809ZM414.592 543.129C404.632 543.886 398.721 547.909 398.721 556.164C398.721 564.969 405.738 570.848 415.353 571.571L414.592 543.095V543.129Z" fill="#2F205B" style="fill:#2F205B;fill:color(display-p3 0.1843 0.1255 0.3569);fill-opacity:1;"/>
<path d="M446.716 505C428.675 505 416.497 489.863 416.497 459.245C416.497 457.413 416.671 454.995 416.875 452.403L414.495 452.229C406.77 452.054 402.524 455.547 402.524 465.878C402.524 476.213 406.389 487.653 410.631 494.665L386.694 498.536C380.793 488.584 376 473.277 376 458.31C376 430.458 387.623 418.639 413.184 419.018L442.644 419.779C447.784 419.953 449.095 418.121 449.095 414.424C449.095 413.111 448.544 411.483 448.162 410L467.687 411.279C469.893 417.186 471 421.992 471 428.626C471 439.513 467.31 447.634 456.442 450.571C465.478 455.718 471 466.813 471 477.871C471 494.495 461.961 505 446.682 505H446.716ZM438.779 452.955L430.295 452.573C430.122 454.06 430.122 455.718 430.122 457.549C430.122 468.611 435.089 473.034 441.541 473.034C447.611 473.034 451.649 469.542 451.649 463.805C451.649 457.515 447.611 453.091 438.745 452.921L438.779 452.955Z" fill="#2F205B" style="fill:#2F205B;fill:color(display-p3 0.1843 0.1255 0.3569);fill-opacity:1;"/>
<mask id="mask1_9318_2226" style="mask-type:luminance" maskUnits="userSpaceOnUse" x="334" y="361" width="136" height="40">
<path d="M334.182 361.584H469.213V400.371H334.182V361.584Z" fill="white" style="fill:white;fill-opacity:1;"/>
</mask>
<g mask="url(#mask1_9318_2226)">
<path d="M469.186 399.632C461.232 398.697 448.884 398.352 437.986 398.352H367.423C356.7 398.352 345.803 398.731 337.882 399.632C337.882 392.988 335.288 368.05 334.182 362.516C338.988 363.069 360.227 363.277 361.681 363.277H450.334C456.804 363.447 464.38 363.103 469.186 362.516V399.632Z" fill="#2F205B" style="fill:#2F205B;fill:color(display-p3 0.1843 0.1255 0.3569);fill-opacity:1;"/>
</g>
</g>
<defs>
<clipPath id="clip0_9318_2226">
<rect width="1080" height="1080" fill="white" style="fill:white;fill-opacity:1;"/>
</clipPath>
</defs>
</svg>
