<svg xmlns="http://www.w3.org/2000/svg" xmlns:xlink="http://www.w3.org/1999/xlink" width="1080" zoomAndPan="magnify" viewBox="0 0 810 809.999993" height="1080" preserveAspectRatio="xMidYMid meet" version="1.2"><defs><clipPath id="805356aa22"><path d="M 81 326.078125 L 243 326.078125 L 243 483.578125 L 81 483.578125 Z M 81 326.078125 "/></clipPath><clipPath id="c0367017ca"><path d="M 177 326.078125 L 338 326.078125 L 338 483.578125 L 177 483.578125 Z M 177 326.078125 "/></clipPath></defs><g id="479815712e"><rect x="0" width="810" y="0" height="809.999993" style="fill:#ffffff;fill-opacity:1;stroke:none;"/><rect x="0" width="810" y="0" height="809.999993" style="fill:#ffffff;fill-opacity:1;stroke:none;"/><g clip-rule="nonzero" clip-path="url(#805356aa22)"><path style=" stroke:none;fill-rule:nonzero;fill:#2f205b;fill-opacity:1;" d="M 222.28125 412.414062 L 239.28125 403.308594 L 239.835938 403.035156 L 240.25 402.621094 C 241.492188 401.515625 242.324219 400.136719 242.460938 398.484375 C 242.597656 396.828125 242.183594 395.3125 241.078125 393.929688 L 220.898438 369.519531 L 213.296875 378.761719 L 227.808594 396.136719 L 209.980469 405.65625 L 197.542969 412.273438 L 104.523438 462.199219 L 182.476562 341.660156 L 199.0625 361.519531 L 206.664062 352.28125 L 186.484375 328.285156 C 184.964844 326.492188 182.753906 325.664062 180.402344 326.214844 C 178.605469 326.628906 177.085938 327.730469 176.257812 329.25 L 82.269531 474.886719 L 81.996094 475.714844 C 81.304688 478.335938 82.269531 481.09375 84.484375 482.613281 C 85.589844 483.300781 86.695312 483.578125 87.800781 483.578125 C 88.90625 483.578125 90.011719 483.300781 90.980469 482.75 L 209.703125 419.171875 Z M 222.28125 412.414062 "/></g><g clip-rule="nonzero" clip-path="url(#c0367017ca)"><path style=" stroke:none;fill-rule:nonzero;fill:#2f205b;fill-opacity:1;" d="M 337.691406 475.714844 L 337.414062 474.886719 L 243.429688 329.25 C 242.597656 327.730469 241.078125 326.628906 239.28125 326.214844 C 237.070312 325.800781 234.722656 326.492188 233.199219 328.285156 L 209.84375 356.417969 L 202.242188 365.660156 L 178.746094 393.929688 C 177.640625 395.171875 177.222656 396.828125 177.363281 398.484375 C 177.5 400.136719 178.328125 401.65625 179.574219 402.621094 L 179.988281 403.035156 L 192.011719 409.515625 L 204.453125 402.894531 L 192.152344 396.277344 L 206.25 379.175781 L 209.84375 374.761719 L 217.445312 365.519531 L 223.664062 358.074219 L 237.347656 341.660156 L 315.300781 462.199219 L 227.808594 415.308594 L 215.371094 421.929688 L 328.566406 482.613281 C 329.535156 483.164062 330.640625 483.4375 331.746094 483.4375 C 332.851562 483.4375 334.097656 483.164062 335.0625 482.472656 C 337.414062 481.09375 338.519531 478.335938 337.691406 475.714844 Z M 337.691406 475.714844 "/></g><path style=" stroke:none;fill-rule:nonzero;fill:#2f205b;fill-opacity:1;" d="M 441.765625 341.386719 L 441.765625 351.453125 C 441.765625 353.109375 440.382812 354.351562 438.863281 354.351562 L 428.773438 354.351562 C 427.113281 354.351562 425.871094 352.96875 425.871094 351.453125 L 425.871094 341.386719 C 425.871094 339.730469 427.253906 338.488281 428.773438 338.488281 L 438.722656 338.488281 C 440.382812 338.351562 441.765625 339.730469 441.765625 341.386719 Z M 428.773438 361.382812 L 438.722656 361.382812 C 440.382812 361.382812 441.625 362.761719 441.625 364.28125 L 441.625 428.6875 C 441.625 430.339844 440.246094 431.582031 438.722656 431.582031 L 428.773438 431.582031 C 427.113281 431.582031 425.871094 430.203125 425.871094 428.6875 L 425.871094 364.28125 C 425.871094 362.761719 427.113281 361.382812 428.773438 361.382812 Z M 428.773438 361.382812 "/><path style=" stroke:none;fill-rule:nonzero;fill:#2f205b;fill-opacity:1;" d="M 504.515625 459.441406 L 467.472656 459.441406 C 465.8125 459.441406 464.570312 458.0625 464.570312 456.546875 L 464.570312 446.476562 C 464.570312 444.824219 465.953125 443.582031 467.472656 443.582031 L 507.554688 443.582031 C 507.96875 443.582031 508.246094 443.304688 508.246094 442.890625 L 508.246094 434.753906 C 508.246094 433.101562 506.863281 431.859375 505.34375 431.859375 L 472.449219 431.859375 C 461.667969 431.859375 452.683594 423.03125 452.683594 412.136719 L 452.683594 381.105469 C 452.683594 370.347656 461.53125 361.382812 472.449219 361.382812 L 504.652344 361.382812 C 515.433594 361.382812 524.277344 370.070312 524.277344 380.96875 L 524.277344 439.859375 C 524.277344 450.613281 515.433594 459.441406 504.515625 459.441406 Z M 507.554688 415.722656 C 507.96875 415.722656 508.246094 415.308594 508.246094 414.894531 L 508.246094 378.070312 C 508.246094 377.519531 507.832031 377.242188 507.554688 377.242188 L 472.449219 377.242188 C 470.375 377.242188 468.714844 378.898438 468.714844 380.96875 L 468.714844 411.859375 C 468.714844 413.929688 470.375 415.585938 472.449219 415.585938 L 507.554688 415.585938 Z M 507.554688 415.722656 "/><path style=" stroke:none;fill-rule:nonzero;fill:#2f205b;fill-opacity:1;" d="M 605.410156 381.105469 L 605.410156 428.6875 C 605.410156 430.339844 604.027344 431.582031 602.507812 431.582031 L 553.71875 431.582031 C 542.9375 431.582031 533.953125 422.757812 533.953125 411.859375 L 533.953125 391.449219 C 533.953125 389.792969 535.335938 388.554688 536.855469 388.554688 L 586.613281 388.554688 C 588.269531 388.554688 589.515625 387.171875 589.515625 385.65625 L 589.515625 381.105469 C 589.515625 379.035156 587.855469 377.382812 585.785156 377.382812 L 536.992188 377.382812 C 535.335938 377.382812 534.089844 376.003906 534.089844 374.484375 L 534.089844 364.554688 C 534.089844 362.902344 535.472656 361.660156 536.992188 361.660156 L 585.785156 361.660156 C 596.5625 361.382812 605.410156 370.210938 605.410156 381.105469 Z M 586.613281 404.550781 L 552.886719 404.550781 C 551.230469 404.550781 549.984375 405.929688 549.984375 407.449219 L 549.984375 412 C 549.984375 414.066406 551.644531 415.722656 553.71875 415.722656 L 586.613281 415.722656 C 588.269531 415.722656 589.515625 414.34375 589.515625 412.824219 L 589.515625 407.449219 C 589.515625 405.792969 588.269531 404.550781 586.613281 404.550781 Z M 586.613281 404.550781 "/><path style=" stroke:none;fill-rule:nonzero;fill:#2f205b;fill-opacity:1;" d="M 630.980469 341.386719 L 630.980469 412 C 630.980469 414.066406 632.636719 415.722656 634.710938 415.722656 L 642.867188 415.722656 C 644.523438 415.722656 645.769531 417.101562 645.769531 418.617188 L 645.769531 428.546875 C 645.769531 430.203125 644.386719 431.445312 642.867188 431.445312 L 634.574219 431.445312 C 623.792969 431.445312 614.808594 422.617188 614.808594 411.722656 L 614.808594 341.386719 C 614.808594 339.730469 616.191406 338.488281 617.710938 338.488281 L 627.800781 338.488281 C 629.597656 338.351562 630.980469 339.730469 630.980469 341.386719 Z M 630.980469 341.386719 "/><path style=" stroke:none;fill-rule:nonzero;fill:#2f205b;fill-opacity:1;" d="M 728.003906 381.105469 L 728.003906 401.65625 C 728.003906 403.308594 726.621094 404.550781 725.101562 404.550781 L 675.34375 404.550781 C 673.6875 404.550781 672.441406 405.929688 672.441406 407.449219 L 672.441406 412 C 672.441406 414.066406 674.101562 415.722656 676.175781 415.722656 L 724.964844 415.722656 C 726.621094 415.722656 727.867188 417.101562 727.867188 418.617188 L 727.867188 428.546875 C 727.867188 430.203125 726.484375 431.445312 724.964844 431.445312 L 676.175781 431.445312 C 665.394531 431.445312 656.410156 422.617188 656.410156 411.722656 L 656.410156 381.105469 C 656.410156 370.347656 665.257812 361.382812 676.175781 361.382812 L 708.242188 361.382812 C 719.160156 361.382812 728.003906 370.210938 728.003906 381.105469 Z M 712.109375 385.65625 L 712.109375 381.105469 C 712.109375 379.035156 710.453125 377.382812 708.378906 377.382812 L 676.3125 377.382812 C 674.238281 377.382812 672.582031 379.035156 672.582031 381.105469 L 672.582031 385.65625 C 672.582031 387.3125 673.964844 388.554688 675.484375 388.554688 L 709.207031 388.554688 C 710.867188 388.554688 712.109375 387.171875 712.109375 385.65625 Z M 712.109375 385.65625 "/><path style=" stroke:none;fill-rule:nonzero;fill:#2f205b;fill-opacity:1;" d="M 391.59375 361.382812 L 310.183594 361.382812 C 308.527344 361.382812 307.28125 362.761719 307.28125 364.28125 L 307.28125 401.242188 L 316.679688 415.859375 C 318.617188 418.757812 323.175781 417.515625 323.175781 413.929688 L 323.175781 381.105469 C 323.175781 379.035156 324.835938 377.382812 326.910156 377.382812 L 350.542969 377.382812 C 350.957031 377.382812 351.234375 377.796875 351.234375 378.210938 L 351.234375 428.824219 C 351.234375 430.480469 352.617188 431.71875 354.136719 431.71875 L 364.226562 431.71875 C 365.886719 431.71875 367.128906 430.339844 367.128906 428.824219 L 367.128906 380.96875 C 367.128906 378.898438 368.789062 377.242188 370.859375 377.242188 L 394.359375 377.242188 C 394.910156 377.242188 395.324219 377.65625 395.324219 378.070312 L 395.324219 428.6875 C 395.324219 430.339844 396.707031 431.582031 398.226562 431.582031 L 408.179688 431.582031 C 409.835938 431.582031 411.082031 430.203125 411.082031 428.6875 L 411.082031 381.105469 C 411.359375 370.210938 402.511719 361.382812 391.59375 361.382812 Z M 391.59375 361.382812 "/><path style=" stroke:none;fill-rule:nonzero;fill:#2f205b;fill-opacity:1;" d="M 540.035156 448.546875 C 539.480469 448.410156 539.066406 448.269531 538.652344 448.269531 C 538.097656 448.269531 537.546875 448.410156 537.132812 448.683594 C 536.71875 448.960938 536.578125 449.234375 536.578125 449.648438 C 536.578125 450.0625 536.71875 450.339844 536.855469 450.613281 C 537.132812 450.890625 537.410156 451.027344 537.683594 451.167969 C 537.960938 451.304688 538.515625 451.441406 539.066406 451.582031 C 539.757812 451.855469 540.3125 451.996094 540.726562 452.269531 C 541.140625 452.40625 541.554688 452.820312 541.832031 453.097656 C 542.109375 453.511719 542.246094 454.0625 542.246094 454.613281 C 542.246094 455.167969 542.109375 455.71875 541.691406 456.132812 C 541.417969 456.546875 540.863281 456.960938 540.3125 457.234375 C 539.757812 457.511719 539.066406 457.648438 538.238281 457.648438 C 537.410156 457.648438 536.71875 457.511719 536.027344 457.234375 C 535.335938 456.960938 534.644531 456.546875 534.089844 455.992188 L 534.78125 454.753906 C 535.335938 455.304688 535.886719 455.578125 536.441406 455.855469 C 537.132812 456.132812 537.683594 456.269531 538.238281 456.269531 C 538.929688 456.269531 539.480469 456.132812 539.894531 455.855469 C 540.3125 455.578125 540.449219 455.167969 540.449219 454.753906 C 540.449219 454.339844 540.3125 454.0625 540.171875 453.785156 C 539.894531 453.511719 539.621094 453.375 539.34375 453.234375 C 539.066406 453.097656 538.515625 452.960938 537.960938 452.820312 C 537.269531 452.546875 536.71875 452.40625 536.304688 452.269531 C 535.886719 452.132812 535.472656 451.71875 535.195312 451.441406 C 534.921875 451.027344 534.78125 450.476562 534.78125 449.925781 C 534.78125 449.375 534.921875 448.820312 535.195312 448.410156 C 535.472656 447.996094 535.886719 447.71875 536.441406 447.441406 C 536.992188 447.167969 537.683594 447.167969 538.375 447.167969 C 539.066406 447.167969 539.621094 447.304688 540.171875 447.441406 C 540.726562 447.582031 541.277344 447.855469 541.832031 448.132812 L 541.277344 449.375 C 541.140625 448.960938 540.585938 448.683594 540.035156 448.546875 Z M 540.035156 448.546875 "/><path style=" stroke:none;fill-rule:nonzero;fill:#2f205b;fill-opacity:1;" d="M 556.621094 457.511719 L 555.515625 455.027344 L 549.984375 455.027344 L 548.878906 457.511719 L 547.359375 457.511719 L 552.058594 447.027344 L 553.578125 447.027344 L 558.140625 457.511719 Z M 550.539062 453.648438 L 554.960938 453.648438 L 552.75 448.546875 Z M 550.539062 453.648438 "/><path style=" stroke:none;fill-rule:nonzero;fill:#2f205b;fill-opacity:1;" d="M 563.945312 447.027344 L 570.71875 447.027344 L 570.71875 448.269531 L 565.328125 448.269531 L 565.328125 451.71875 L 570.164062 451.71875 L 570.164062 452.960938 L 565.328125 452.960938 L 565.328125 457.371094 L 563.945312 457.371094 Z M 563.945312 447.027344 "/><path style=" stroke:none;fill-rule:nonzero;fill:#2f205b;fill-opacity:1;" d="M 576.800781 447.027344 L 583.988281 447.027344 L 583.988281 448.269531 L 578.179688 448.269531 L 578.179688 451.582031 L 583.433594 451.582031 L 583.433594 452.820312 L 578.179688 452.820312 L 578.179688 456.132812 L 584.125 456.132812 L 584.125 457.371094 L 576.660156 457.371094 L 576.660156 447.027344 Z M 576.800781 447.027344 "/><path style=" stroke:none;fill-rule:nonzero;fill:#2f205b;fill-opacity:1;" d="M 589.515625 447.027344 L 597.667969 447.027344 L 597.667969 448.410156 L 594.351562 448.410156 L 594.351562 457.511719 L 592.96875 457.511719 L 592.96875 448.410156 L 589.652344 448.410156 L 589.652344 447.027344 Z M 589.515625 447.027344 "/><path style=" stroke:none;fill-rule:nonzero;fill:#2f205b;fill-opacity:1;" d="M 611.351562 447.027344 L 607.484375 453.925781 L 607.484375 457.511719 L 606.101562 457.511719 L 606.101562 454.0625 L 602.09375 447.167969 L 603.613281 447.167969 L 606.792969 452.546875 L 609.96875 447.167969 L 611.351562 447.167969 Z M 611.351562 447.027344 "/><path style=" stroke:none;fill-rule:nonzero;fill:#2f205b;fill-opacity:1;" d="M 632.914062 457.785156 L 631.253906 456.132812 C 630.839844 456.683594 630.289062 456.960938 629.734375 457.234375 C 629.183594 457.511719 628.628906 457.648438 628.078125 457.648438 C 627.523438 457.648438 626.972656 457.511719 626.417969 457.234375 C 625.863281 456.960938 625.589844 456.683594 625.3125 456.132812 C 625.035156 455.71875 624.898438 455.167969 624.898438 454.613281 C 624.898438 453.925781 625.035156 453.375 625.449219 452.960938 C 625.863281 452.546875 626.417969 452.132812 627.109375 451.71875 C 626.695312 451.304688 626.554688 450.753906 626.28125 450.476562 C 626.140625 450.0625 626.003906 449.648438 626.003906 449.375 C 626.003906 448.683594 626.28125 448.132812 626.695312 447.71875 C 627.246094 447.304688 627.800781 447.027344 628.628906 447.027344 C 629.320312 447.027344 630.011719 447.167969 630.425781 447.582031 C 630.839844 447.996094 631.117188 448.546875 631.117188 449.097656 C 631.117188 449.511719 630.980469 449.925781 630.703125 450.339844 C 630.425781 450.613281 630.148438 451.027344 629.875 451.167969 C 629.457031 451.441406 629.042969 451.71875 628.492188 451.996094 C 629.042969 452.546875 629.734375 453.375 630.839844 454.476562 C 631.253906 453.925781 631.53125 453.234375 631.808594 452.546875 L 632.777344 453.234375 C 632.5 453.925781 632.085938 454.613281 631.671875 455.304688 L 633.46875 456.960938 Z M 630.425781 455.304688 C 629.320312 454.199219 628.351562 453.234375 627.660156 452.546875 C 627.109375 452.820312 626.695312 453.234375 626.417969 453.511719 C 626.140625 453.785156 626.003906 454.199219 626.003906 454.613281 C 626.003906 455.167969 626.140625 455.578125 626.554688 455.992188 C 626.972656 456.40625 627.386719 456.546875 628.078125 456.546875 C 628.90625 456.546875 629.734375 456.132812 630.425781 455.304688 Z M 628.078125 451.304688 C 628.769531 450.890625 629.183594 450.613281 629.597656 450.339844 C 629.875 450.0625 630.148438 449.648438 630.148438 449.234375 C 630.148438 448.820312 630.011719 448.546875 629.734375 448.269531 C 629.457031 447.996094 629.183594 447.996094 628.769531 447.996094 C 628.351562 447.996094 627.9375 448.132812 627.660156 448.410156 C 627.386719 448.683594 627.246094 448.960938 627.246094 449.375 C 627.246094 449.789062 627.523438 450.476562 628.078125 451.304688 Z M 628.078125 451.304688 "/><path style=" stroke:none;fill-rule:nonzero;fill:#2f205b;fill-opacity:1;" d="M 654.476562 457.511719 L 652.402344 454.199219 C 652.125 454.199219 651.988281 454.199219 651.847656 454.199219 L 649.222656 454.199219 L 649.222656 457.511719 L 647.839844 457.511719 L 647.839844 447.027344 L 651.988281 447.027344 C 653.371094 447.027344 654.335938 447.304688 655.027344 447.996094 C 655.71875 448.546875 656.132812 449.511719 656.132812 450.613281 C 656.132812 451.441406 655.996094 452.132812 655.582031 452.683594 C 655.167969 453.234375 654.613281 453.648438 653.921875 453.925781 L 656.410156 457.511719 Z M 651.847656 452.960938 C 652.679688 452.960938 653.371094 452.820312 653.921875 452.40625 C 654.335938 451.996094 654.613281 451.441406 654.613281 450.613281 C 654.613281 449.925781 654.335938 449.375 653.921875 448.960938 C 653.507812 448.546875 652.816406 448.410156 651.847656 448.410156 L 649.222656 448.410156 L 649.222656 452.960938 Z M 651.847656 452.960938 "/><path style=" stroke:none;fill-rule:nonzero;fill:#2f205b;fill-opacity:1;" d="M 662.769531 447.027344 L 669.957031 447.027344 L 669.957031 448.269531 L 664.148438 448.269531 L 664.148438 451.582031 L 669.402344 451.582031 L 669.402344 452.820312 L 664.148438 452.820312 L 664.148438 456.132812 L 670.09375 456.132812 L 670.09375 457.371094 L 662.628906 457.371094 L 662.628906 447.027344 Z M 662.769531 447.027344 "/><path style=" stroke:none;fill-rule:nonzero;fill:#2f205b;fill-opacity:1;" d="M 681.425781 448.546875 C 680.875 448.410156 680.460938 448.269531 680.042969 448.269531 C 679.492188 448.269531 678.9375 448.410156 678.523438 448.683594 C 678.109375 448.960938 677.972656 449.234375 677.972656 449.648438 C 677.972656 450.0625 678.109375 450.339844 678.25 450.613281 C 678.523438 450.890625 678.800781 451.027344 679.078125 451.167969 C 679.355469 451.304688 679.90625 451.441406 680.460938 451.582031 C 681.152344 451.855469 681.703125 451.996094 682.117188 452.269531 C 682.53125 452.40625 682.949219 452.820312 683.222656 453.097656 C 683.5 453.511719 683.636719 454.0625 683.636719 454.613281 C 683.636719 455.167969 683.5 455.71875 683.085938 456.132812 C 682.808594 456.546875 682.257812 456.960938 681.703125 457.234375 C 681.152344 457.511719 680.460938 457.648438 679.628906 457.648438 C 678.800781 457.648438 678.109375 457.511719 677.417969 457.234375 C 676.726562 456.960938 676.035156 456.546875 675.484375 455.992188 L 676.175781 454.753906 C 676.726562 455.304688 677.28125 455.578125 677.832031 455.855469 C 678.523438 456.132812 679.078125 456.269531 679.628906 456.269531 C 680.320312 456.269531 680.875 456.132812 681.289062 455.855469 C 681.703125 455.578125 681.839844 455.167969 681.839844 454.753906 C 681.839844 454.339844 681.703125 454.0625 681.566406 453.785156 C 681.289062 453.511719 681.011719 453.375 680.734375 453.234375 C 680.460938 453.097656 679.90625 452.960938 679.355469 452.820312 C 678.664062 452.546875 678.109375 452.40625 677.695312 452.269531 C 677.28125 452.132812 676.867188 451.71875 676.589844 451.441406 C 676.3125 451.027344 676.175781 450.476562 676.175781 449.925781 C 676.175781 449.375 676.3125 448.820312 676.589844 448.410156 C 676.867188 447.996094 677.28125 447.71875 677.832031 447.441406 C 678.386719 447.167969 679.078125 447.167969 679.769531 447.167969 C 680.460938 447.167969 681.011719 447.304688 681.566406 447.441406 C 682.117188 447.582031 682.671875 447.855469 683.222656 448.132812 L 682.671875 449.375 C 682.53125 448.960938 681.980469 448.683594 681.425781 448.546875 Z M 681.425781 448.546875 "/><path style=" stroke:none;fill-rule:nonzero;fill:#2f205b;fill-opacity:1;" d="M 696.492188 448.546875 C 695.941406 448.269531 695.386719 448.132812 694.832031 448.132812 C 694.144531 448.132812 693.453125 448.269531 692.761719 448.683594 C 692.207031 449.097656 691.65625 449.511719 691.238281 450.203125 C 690.824219 450.753906 690.6875 451.441406 690.6875 452.269531 C 690.6875 452.960938 690.824219 453.648438 691.238281 454.339844 C 691.65625 454.890625 692.070312 455.441406 692.761719 455.855469 C 693.3125 456.269531 694.003906 456.40625 694.832031 456.40625 C 695.386719 456.40625 695.9375 456.269531 696.492188 456.132812 C 697.046875 455.855469 697.460938 455.578125 697.875 455.167969 L 698.703125 456.132812 C 698.152344 456.683594 697.597656 457.097656 696.90625 457.371094 C 696.214844 457.648438 695.523438 457.785156 694.832031 457.785156 C 693.867188 457.785156 692.898438 457.511719 692.070312 457.097656 C 691.238281 456.683594 690.550781 455.992188 690.132812 455.167969 C 689.71875 454.339844 689.445312 453.511719 689.445312 452.40625 C 689.445312 451.441406 689.71875 450.476562 690.132812 449.789062 C 690.550781 448.960938 691.238281 448.410156 692.070312 447.855469 C 692.898438 447.441406 693.867188 447.167969 694.832031 447.167969 C 695.523438 447.167969 696.214844 447.304688 696.90625 447.582031 C 697.597656 447.855469 698.152344 448.269531 698.703125 448.683594 L 697.875 449.648438 C 697.597656 449.097656 697.046875 448.820312 696.492188 448.546875 Z M 696.492188 448.546875 "/><path style=" stroke:none;fill-rule:nonzero;fill:#2f205b;fill-opacity:1;" d="M 707.132812 455.441406 C 707.6875 455.992188 708.378906 456.269531 709.347656 456.269531 C 710.3125 456.269531 711.003906 455.992188 711.558594 455.441406 C 712.109375 454.890625 712.386719 454.199219 712.386719 453.234375 L 712.386719 447.027344 L 713.769531 447.027344 L 713.769531 453.234375 C 713.769531 454.613281 713.355469 455.71875 712.664062 456.40625 C 711.835938 457.234375 710.867188 457.511719 709.484375 457.511719 C 708.101562 457.511719 706.996094 457.097656 706.167969 456.40625 C 705.339844 455.578125 704.921875 454.613281 704.921875 453.234375 L 704.921875 447.027344 L 706.304688 447.027344 L 706.304688 453.234375 C 706.304688 454.199219 706.582031 454.890625 707.132812 455.441406 Z M 707.132812 455.441406 "/><path style=" stroke:none;fill-rule:nonzero;fill:#2f205b;fill-opacity:1;" d="M 720.816406 447.027344 L 728.003906 447.027344 L 728.003906 448.269531 L 722.199219 448.269531 L 722.199219 451.582031 L 727.453125 451.582031 L 727.453125 452.820312 L 722.199219 452.820312 L 722.199219 456.132812 L 728.144531 456.132812 L 728.144531 457.371094 L 720.679688 457.371094 L 720.679688 447.027344 Z M 720.816406 447.027344 "/></g></svg>