<svg width="238" height="51" viewBox="0 0 238 51" fill="none" xmlns="http://www.w3.org/2000/svg">
<g clip-path="url(#clip0_2116_124)">
<path d="M83.5176 15.0906C82.7502 14.5858 81.9626 14.2223 81.175 14.0001C80.4178 13.7578 79.8119 13.5962 79.3879 13.5155C77.944 13.152 76.7626 12.8491 75.8539 12.6067C74.9855 12.3745 74.2787 12.1322 73.7739 11.91C73.3094 11.6879 72.9964 11.4456 72.8348 11.1931C72.6834 10.9407 72.6026 10.5974 72.6026 10.1733C72.6026 9.70886 72.7036 9.32517 72.8954 9.03235C73.0974 8.72944 73.3599 8.46692 73.6527 8.27507C73.9758 8.07313 74.3393 7.92167 74.7331 7.8409C75.1269 7.76012 75.5308 7.70963 75.9347 7.70963C76.5506 7.70963 77.116 7.76012 77.6209 7.87119C78.1358 7.97216 78.6003 8.15391 78.9941 8.39624C79.3778 8.63857 79.6807 8.97177 79.9129 9.40595C80.1552 9.83002 80.3067 10.3854 80.3471 11.0518V11.2032H85.6077V11.0417C85.6077 9.67857 85.335 8.5073 84.81 7.55818C84.3051 6.58886 83.5983 5.78109 82.7199 5.16516C81.8414 4.54924 80.8216 4.10497 79.6807 3.84244C78.57 3.55972 77.3886 3.41837 76.1669 3.41837C75.1168 3.41837 74.0566 3.55972 73.0166 3.84244C71.9665 4.12516 71.0073 4.56943 70.1793 5.16516C69.3412 5.76089 68.6546 6.51818 68.1195 7.42691C67.6045 8.31546 67.3521 9.37565 67.3521 10.5873C67.3521 11.6677 67.5541 12.6067 67.9579 13.3943C68.382 14.1415 68.9273 14.7877 69.5937 15.2926C70.25 15.7974 71.0073 16.2215 71.8453 16.5446C72.6733 16.8475 73.5214 17.11 74.3898 17.3322C75.2278 17.5745 76.076 17.7865 76.8939 17.9784C77.7016 18.1702 78.4387 18.3924 79.0748 18.6549C79.7009 18.9073 80.2057 19.2203 80.5793 19.5939C80.963 19.9574 81.1448 20.4118 81.1448 20.9974C81.1448 21.5427 81.0034 21.997 80.7308 22.3504C80.4481 22.6937 80.0846 22.9764 79.6504 23.1784C79.2162 23.3904 78.7315 23.5318 78.2469 23.6126C77.742 23.6731 77.2574 23.7135 76.8131 23.7135C76.1568 23.7135 75.5207 23.6429 74.9148 23.4914C74.309 23.3298 73.7739 23.0774 73.3195 22.7745C72.8853 22.4413 72.5319 22.0172 72.2593 21.5023C71.9867 20.9873 71.8554 20.3512 71.8554 19.604V19.4425H66.5948V19.604C66.5746 21.0479 66.8372 22.3201 67.3925 23.3803C67.9478 24.4405 68.6849 25.319 69.6139 25.9955C70.5529 26.672 71.6434 27.1768 72.8449 27.4798C74.0667 27.8029 75.3288 27.9745 76.6213 27.9745C78.2065 27.9745 79.6201 27.7827 80.8216 27.4192C82.0434 27.0456 83.0834 26.5205 83.8912 25.8642C84.7292 25.1776 85.3653 24.3598 85.7894 23.4409C86.2034 22.512 86.4154 21.5023 86.4154 20.4219C86.4154 19.0992 86.1226 17.9986 85.5471 17.1504C85.0018 16.2922 84.3253 15.5955 83.558 15.0906H83.5176Z" fill="#201B30"/>
<path d="M100.491 20.846C100.35 21.8456 99.9762 22.6534 99.4007 23.2491C98.8554 23.8145 98.0477 24.1074 96.9875 24.1074C96.311 24.1074 95.7354 23.9559 95.2609 23.653C94.7863 23.34 94.4026 22.9462 94.1199 22.4817C93.8473 21.9769 93.6453 21.4114 93.5242 20.8056C93.3929 20.1897 93.3323 19.5839 93.3323 18.9881C93.3323 18.3924 93.3929 17.7563 93.5242 17.1404C93.6554 16.5143 93.8574 15.9388 94.1502 15.444C94.4632 14.9291 94.857 14.505 95.3316 14.2021C95.796 13.879 96.3917 13.7174 97.0884 13.7174C98.9766 13.7174 100.037 14.6161 100.33 16.4639L100.35 16.6052H105.176V16.4336C105.095 15.333 104.833 14.3738 104.368 13.5761C103.904 12.7582 103.288 12.0716 102.541 11.5466C101.814 11.0013 100.966 10.5873 100.027 10.3147C99.1079 10.0522 98.1284 9.92093 97.1288 9.92093C95.7556 9.92093 94.5036 10.1532 93.4333 10.6176C92.363 11.0821 91.4341 11.7384 90.6869 12.5664C89.9397 13.3842 89.3642 14.3738 88.9704 15.5147C88.5968 16.6254 88.415 17.8573 88.415 19.1699C88.415 20.4825 88.6271 21.6235 89.0411 22.7039C89.455 23.754 90.0508 24.6829 90.7979 25.4503C91.5451 26.2176 92.4539 26.8336 93.5141 27.2677C94.5844 27.6817 95.7758 27.8938 97.0481 27.8938C99.2997 27.8938 101.178 27.2879 102.632 26.1066C104.086 24.9151 104.984 23.1683 105.287 20.9066L105.307 20.7147H100.532L100.511 20.8561L100.491 20.846Z" fill="#201B30"/>
<path d="M123.351 25.7128C123.27 25.0261 123.219 24.3093 123.219 23.5621V14.8382C123.219 13.7881 122.977 12.9399 122.513 12.3139C122.048 11.6677 121.432 11.1628 120.705 10.7993C119.978 10.4459 119.171 10.2137 118.292 10.1026C116.464 9.83001 114.667 9.83001 112.89 10.2036C111.971 10.3753 111.123 10.6883 110.366 11.1325C109.609 11.5768 108.983 12.1725 108.498 12.8995C108.003 13.6366 107.73 14.5656 107.66 15.6762V15.8479H112.577V15.6964C112.668 14.8382 112.961 14.2222 113.435 13.8689C113.92 13.5054 114.607 13.3135 115.475 13.3135C115.879 13.3135 116.242 13.3438 116.586 13.4145C116.929 13.4549 117.222 13.5558 117.464 13.7174C117.717 13.8487 117.908 14.0607 118.05 14.3434C118.201 14.5958 118.282 14.9593 118.282 15.4339C118.302 15.858 118.181 16.1811 117.918 16.3931C117.636 16.6153 117.242 16.7869 116.747 16.9182C116.242 17.0494 115.647 17.1403 114.99 17.2009C114.314 17.2615 113.627 17.3524 112.941 17.4634C112.244 17.5745 111.537 17.7259 110.85 17.9178C110.164 18.0894 109.538 18.3722 108.983 18.7558C108.447 19.1395 107.993 19.6545 107.64 20.3007C107.306 20.9267 107.135 21.7345 107.135 22.7139C107.135 23.6025 107.286 24.3698 107.579 25.0261C107.892 25.6724 108.326 26.2176 108.861 26.6417C109.397 27.0658 110.023 27.3788 110.739 27.5807C111.436 27.7827 112.214 27.8735 113.021 27.8735C114.071 27.8735 115.111 27.7221 116.121 27.4091C117.03 27.1364 117.838 26.672 118.534 26.0258C118.555 26.1974 118.575 26.3691 118.605 26.5508C118.676 26.8133 118.746 27.086 118.837 27.3384L118.878 27.4495H123.967L123.805 27.197C123.603 26.8739 123.462 26.3691 123.371 25.7027L123.351 25.7128ZM118.292 19.4122V20.8056C118.292 21.058 118.262 21.3912 118.191 21.8254C118.151 22.2293 118.019 22.6533 117.787 23.0572C117.565 23.4409 117.212 23.7842 116.737 24.0669C116.273 24.3496 115.586 24.491 114.718 24.491C114.364 24.491 114.011 24.4607 113.678 24.4001C113.355 24.3395 113.062 24.2386 112.83 24.0972C112.597 23.9458 112.405 23.7337 112.264 23.4712C112.123 23.2188 112.052 22.8957 112.052 22.512C112.052 22.1081 112.123 21.7749 112.264 21.5225C112.405 21.2599 112.587 21.058 112.799 20.8964C113.042 20.7147 113.324 20.5733 113.627 20.4724C113.971 20.3613 114.314 20.2805 114.647 20.2199C115.011 20.1593 115.384 20.0988 115.737 20.0584C116.111 20.018 116.464 19.9574 116.788 19.8968C117.141 19.8362 117.464 19.7555 117.757 19.6646C117.949 19.5939 118.131 19.5131 118.282 19.4122H118.292Z" fill="#201B30"/>
<path d="M141.586 11.8899C141.112 11.2638 140.455 10.7792 139.637 10.446C138.84 10.0926 137.8 9.91083 136.558 9.91083C135.558 9.91083 134.579 10.1431 133.63 10.6075C132.782 11.0013 132.065 11.6172 131.499 12.4553V10.3652H126.794V27.4596H131.731V18.5035C131.731 16.8374 132.004 15.646 132.539 14.9392C133.064 14.2324 133.943 13.8689 135.134 13.8689C136.184 13.8689 136.891 14.1819 137.295 14.8281C137.709 15.4642 137.921 16.4739 137.921 17.8169V27.4495H142.858V16.9687C142.858 15.9186 142.757 14.9594 142.566 14.1112C142.394 13.2227 142.061 12.4654 141.596 11.8697L141.586 11.8899Z" fill="#201B30"/>
<path d="M161.135 11.8899C160.66 11.2638 160.014 10.7792 159.186 10.446C158.389 10.0926 157.349 9.91083 156.107 9.91083C155.117 9.91083 154.128 10.1431 153.189 10.6075C152.34 11.0013 151.624 11.6172 151.058 12.4553V10.3652H146.343V27.4596H151.28V18.5035C151.28 16.8374 151.553 15.646 152.088 14.9392C152.613 14.2324 153.481 13.8689 154.673 13.8689C155.723 13.8689 156.43 14.1819 156.834 14.8281C157.248 15.4642 157.46 16.4739 157.46 17.8169V27.4495H162.397V16.9687C162.397 15.9186 162.296 14.9594 162.104 14.1112C161.923 13.2227 161.599 12.4654 161.135 11.8697V11.8899Z" fill="#201B30"/>
<path d="M181.398 25.7128C181.317 25.0261 181.267 24.3093 181.267 23.5621V14.8382C181.267 13.7881 181.025 12.9399 180.56 12.3139C180.096 11.6677 179.48 11.1628 178.743 10.7993C178.016 10.4459 177.208 10.2137 176.329 10.1026C174.502 9.83001 172.705 9.83001 170.928 10.2036C170.009 10.3753 169.161 10.6883 168.413 11.1325C167.656 11.5768 167.03 12.1725 166.545 12.8995C166.051 13.6366 165.778 14.5656 165.707 15.6762V15.8479H170.635L170.655 15.6964C170.736 14.8382 171.018 14.2222 171.493 13.8689C171.978 13.5054 172.664 13.3236 173.533 13.3236C173.936 13.3236 174.3 13.3539 174.643 13.4246C174.987 13.465 175.279 13.5659 175.522 13.7275C175.774 13.8588 175.966 14.0708 176.107 14.3535C176.259 14.6059 176.34 14.9694 176.34 15.444C176.36 15.8681 176.239 16.1912 175.976 16.4032C175.693 16.6254 175.3 16.797 174.805 16.9283C174.3 17.0595 173.704 17.1504 173.048 17.211C172.371 17.2716 171.685 17.3624 170.998 17.4735C170.302 17.5846 169.595 17.736 168.908 17.9279C168.222 18.0995 167.595 18.3823 167.04 18.7659C166.505 19.1496 166.051 19.6646 165.697 20.3108C165.364 20.9368 165.192 21.7446 165.192 22.724C165.192 23.6126 165.334 24.3799 165.627 25.0362C165.94 25.6825 166.374 26.2277 166.909 26.6518C167.444 27.0759 168.07 27.3889 168.787 27.5908C169.484 27.7928 170.261 27.8836 171.069 27.8836C172.119 27.8836 173.159 27.7322 174.169 27.4192C175.077 27.1465 175.885 26.6821 176.582 26.0359C176.602 26.2075 176.622 26.3792 176.653 26.5609C176.723 26.8234 176.794 27.0961 176.885 27.3485L176.925 27.4596H182.014L181.853 27.2071C181.651 26.884 181.509 26.3792 181.418 25.7128H181.398ZM176.329 20.8056C176.329 21.058 176.299 21.3912 176.229 21.8254C176.188 22.2293 176.057 22.6533 175.825 23.0572C175.602 23.4409 175.249 23.7842 174.775 24.0669C174.31 24.3496 173.623 24.491 172.755 24.491C172.402 24.491 172.048 24.4607 171.715 24.4001C171.392 24.3395 171.099 24.2386 170.867 24.0972C170.635 23.9458 170.443 23.7337 170.302 23.4712C170.17 23.2188 170.089 22.8957 170.089 22.512C170.089 22.1081 170.16 21.7749 170.302 21.5225C170.443 21.2599 170.625 21.058 170.837 20.8964C171.079 20.7147 171.362 20.5733 171.665 20.4724C172.008 20.3613 172.351 20.2805 172.684 20.2199C173.048 20.1593 173.422 20.0988 173.775 20.0584C174.149 20.018 174.502 19.9574 174.825 19.8968C175.178 19.8362 175.502 19.7555 175.794 19.6646C175.986 19.5939 176.158 19.5131 176.319 19.4122V20.8056H176.329Z" fill="#201B30"/>
<path d="M199.776 12.0615C199.11 11.3446 198.352 10.7893 197.514 10.4359C196.676 10.0825 195.818 9.90072 194.95 9.90072C193.889 9.90072 192.86 10.1128 191.87 10.5267C191.022 10.87 190.315 11.4153 189.76 12.1322V3.97372H184.822V27.4596H189.538V25.6421C190.042 26.3893 190.729 26.9446 191.577 27.2879C192.567 27.6817 193.698 27.8837 194.95 27.8837C195.808 27.8837 196.676 27.7019 197.514 27.3485C198.352 26.9951 199.11 26.4499 199.776 25.7229C200.453 24.9959 201.018 24.067 201.432 22.9462C201.846 21.8052 202.058 20.4522 202.058 18.8972C202.058 17.3423 201.846 15.9994 201.432 14.8887C201.018 13.7477 200.463 12.7986 199.776 12.0817V12.0615ZM196.908 20.8965C196.757 21.5225 196.525 22.0879 196.212 22.5625C195.899 23.027 195.505 23.4207 195.03 23.7035C194.586 23.966 194.021 24.1073 193.364 24.1073C192.708 24.1073 192.163 23.9761 191.698 23.7136C191.224 23.4308 190.83 23.0371 190.517 22.5625C190.204 22.0879 189.972 21.5225 189.82 20.8965C189.669 20.2603 189.598 19.604 189.598 18.9275C189.598 18.251 189.669 17.5543 189.82 16.9182C189.972 16.2922 190.204 15.7267 190.517 15.2522C190.82 14.7776 191.224 14.404 191.698 14.1415C192.163 13.8588 192.728 13.7174 193.364 13.7174C194.001 13.7174 194.576 13.8588 195.03 14.1516C195.505 14.4141 195.899 14.7978 196.202 15.2623C196.515 15.7368 196.747 16.3023 196.898 16.9283C197.05 17.5644 197.121 18.2409 197.121 18.9376C197.121 19.6343 197.05 20.2805 196.898 20.9066L196.908 20.8965Z" fill="#201B30"/>
<path d="M210.045 3.97372H205.107V27.4596H210.045V3.97372Z" fill="#201B30"/>
<path d="M229.552 16.2518C229.249 15.0503 228.734 13.9598 228.037 13.0207C227.351 12.0716 226.462 11.3143 225.392 10.7691C224.311 10.1935 223.029 9.91083 221.585 9.91083C220.293 9.91083 219.091 10.1431 218.021 10.6075C216.971 11.072 216.042 11.7081 215.275 12.526C214.507 13.3136 213.901 14.2728 213.487 15.3734C213.073 16.4739 212.861 17.6654 212.861 18.9376C212.861 20.2099 213.063 21.4619 213.457 22.5625C213.871 23.6631 214.467 24.6122 215.204 25.4099C215.951 26.1975 216.88 26.8235 217.95 27.2677C219.021 27.6817 220.242 27.8938 221.575 27.8938C223.504 27.8938 225.17 27.4495 226.533 26.571C227.896 25.6926 228.926 24.2083 229.582 22.1687L229.653 21.9567H225.25L225.22 22.0778C225.079 22.5625 224.685 23.027 224.059 23.4813C223.423 23.9155 222.645 24.1376 221.747 24.1376C220.505 24.1376 219.536 23.8145 218.879 23.1784C218.253 22.5726 217.89 21.573 217.799 20.22H229.875V20.0685C229.976 18.7559 229.855 17.4837 229.552 16.2922V16.2518ZM224.907 16.9384H217.799C217.829 16.6658 217.89 16.373 217.97 16.0499C218.092 15.6561 218.294 15.2825 218.556 14.9392C218.849 14.5959 219.222 14.3031 219.667 14.0708C220.141 13.8285 220.737 13.6972 221.444 13.6972C222.514 13.6972 223.312 13.98 223.817 14.5555C224.322 15.1007 224.685 15.8984 224.907 16.9384Z" fill="#201B30"/>
<path d="M38.2526 0.126709H13.2017C5.9969 0.126709 0.15625 5.96736 0.15625 13.1722V37.2941C0.15625 44.4989 5.9969 50.3396 13.2017 50.3396H38.2526C45.4574 50.3396 51.2981 44.4989 51.2981 37.2941V13.1722C51.2981 5.96736 45.4574 0.126709 38.2526 0.126709Z" fill="#CCFF00"/>
<path d="M6.88184 31.4782V26.4095C12.5463 26.4095 16.3933 22.1182 18.6147 18.5237C21.3914 14.0405 27.278 9.26462 32.7304 9.26462V14.3334C29.4489 14.3334 25.0768 17.8573 23.0372 21.1489C18.9176 27.813 13.1824 31.4782 6.88184 31.4782Z" fill="#201B30"/>
<path d="M18.0596 35.6382V30.4887C22.4922 30.4887 25.4406 26.7527 26.7936 24.5314C29.0553 20.8258 33.8615 16.898 38.3245 16.898V22.0475C36.2243 22.0475 32.9124 24.4607 31.2363 27.197C27.9143 32.6495 23.2394 35.6382 18.0697 35.6382H18.0596Z" fill="#201B30"/>
<path d="M29.2363 39.7982V34.8305C32.2049 34.8305 34.295 32.3163 35.2744 30.8219C37.102 28.0452 40.8884 25.2281 44.6041 25.2281V30.1959C43.2208 30.1959 40.9591 31.7206 39.8686 33.4068C37.1626 37.5365 33.3862 39.8083 29.2363 39.8083V39.7982Z" fill="#201B30"/>
<path d="M73.6223 40.1011C71.8452 39.6064 70.0883 39.4347 70.0883 38.4957C70.0883 37.6879 70.9466 37.4557 71.6231 37.4557C72.5924 37.4557 73.6425 37.8192 73.592 38.9299H76.7726C76.7524 36.1835 74.3089 35.0021 71.8856 35.0021C69.5936 35.0021 66.9179 36.0421 66.9179 38.7077C66.9179 40.9493 68.7454 41.7268 70.4922 42.2316C72.2491 42.7264 73.9959 42.9283 73.9959 44.0087C73.9959 44.9175 73.0064 45.2608 72.0472 45.2608C70.6942 45.2608 69.8056 44.7963 69.745 43.3625H66.5645C66.5846 46.4926 69.0584 47.7144 71.8654 47.7144C74.6724 47.7144 77.1765 46.7248 77.1765 43.6351C77.1765 41.434 75.3994 40.6161 73.6425 40.1112L73.6223 40.1011Z" fill="#201B30"/>
<path d="M86.1632 43.3827H86.1228L84.0226 35.2444H79.3477V47.4518H82.3364V38.1928H82.3667L84.9314 47.4518H87.3547L89.9193 38.1928H89.9496V47.4518H92.9485V35.2444H88.2634L86.1632 43.3827Z" fill="#201B30"/>
<path d="M99.1371 35.2444L94.5732 47.4417H97.8346L98.602 45.2506H102.853L103.6 47.4417H106.912L102.348 35.2444H99.1169H99.1371ZM99.3492 42.9081L100.732 38.637H100.763L102.116 42.9081H99.3492Z" fill="#201B30"/>
<path d="M117.12 41.7772V41.747C118.403 41.2522 119.039 40.0002 119.039 38.6875C119.039 36.2238 116.918 35.2545 114.768 35.2545H108.548V47.4518H111.728V43.0091H114.142C115.626 43.0091 115.828 44.2712 115.919 45.5031C115.949 45.8464 116.01 47.0378 116.282 47.4518H119.422C118.998 47.0075 118.948 45.2103 118.907 44.7054C118.807 43.5442 118.433 42.0903 117.13 41.7873L117.12 41.7772ZM114.384 40.5454H111.718V37.799H114.243C115.131 37.799 115.848 38.213 115.848 39.1116C115.848 40.0103 115.333 40.5454 114.374 40.5454H114.384Z" fill="#201B30"/>
<path d="M120.463 37.9807H124.108V47.4518H127.289V37.9807H130.923V35.2444H120.463V37.9807Z" fill="#201B30"/>
<path d="M144.878 35.2444H139.082V47.4417H142.263V43.3726H144.878C147.564 43.3726 149.28 42.1912 149.28 39.1722C149.28 36.1532 147.15 35.2444 144.878 35.2444ZM144.403 40.919H142.273V37.7889H144.403C145.383 37.7889 146.11 38.2534 146.11 39.3943C146.11 40.5353 145.393 40.919 144.403 40.919Z" fill="#201B30"/>
<path d="M160.044 41.7772V41.747C161.326 41.2522 161.963 40.0002 161.963 38.6875C161.963 36.2238 159.842 35.2545 157.691 35.2545H151.472V47.4518H154.652V43.0091H157.065C158.55 43.0091 158.762 44.2712 158.843 45.5031C158.873 45.8464 158.923 47.0378 159.196 47.4518H162.336C161.912 47.0075 161.862 45.2103 161.821 44.7054C161.72 43.5442 161.347 42.0903 160.044 41.7873V41.7772ZM157.308 40.5454H154.642V37.799H157.166C158.055 37.799 158.772 38.213 158.772 39.1116C158.772 40.0103 158.257 40.5454 157.308 40.5454Z" fill="#201B30"/>
<path d="M170.031 34.992C166.184 34.992 164.013 37.8091 164.013 41.3431C164.013 44.8771 166.184 47.6942 170.031 47.6942C173.878 47.6942 176.048 44.8771 176.048 41.3431C176.048 37.8091 173.878 34.992 170.031 34.992ZM170.031 44.9679C167.981 44.9679 167.193 43.1606 167.193 41.3431C167.193 39.5256 167.981 37.7182 170.031 37.7182C172.08 37.7182 172.868 39.5256 172.868 41.3431C172.868 43.1606 172.08 44.9679 170.031 44.9679Z" fill="#201B30"/>
<path d="M183.702 35.2444H178.451V47.4417H183.702C187.407 47.4417 189.679 45.291 189.679 41.2926C189.679 37.5163 187.438 35.2444 183.702 35.2444ZM183.146 44.7155H181.642V37.9807H183.146C185.317 37.9807 186.509 39.0611 186.509 41.2825C186.509 43.726 185.549 44.665 183.146 44.7155Z" fill="#201B30"/>
<path d="M199.473 42.5951C199.473 44.1703 198.897 44.9679 197.342 44.9679C195.787 44.9679 195.212 44.1602 195.212 42.5951V35.2444H192.031V42.4033C192.031 45.9372 193.657 47.7042 197.342 47.7042C201.028 47.7042 202.653 45.9473 202.653 42.4033V35.2444H199.473V42.5951Z" fill="#201B30"/>
<path d="M211.095 37.7283C212.428 37.7283 213.387 38.3745 213.558 39.6064H216.739C216.658 36.6681 213.801 34.992 211.165 34.992C207.48 34.992 205.087 37.8091 205.087 41.3431C205.087 44.8771 207.48 47.6942 211.165 47.6942C214.255 47.6942 216.567 45.8464 216.739 42.7062H213.558C213.437 44.1097 212.589 44.9578 211.095 44.9578C209.045 44.9578 208.257 43.1505 208.257 41.333C208.257 39.5155 209.045 37.7081 211.095 37.7081V37.7283Z" fill="#201B30"/>
<path d="M218.314 37.9807H221.96V47.4518H225.13V37.9807H228.775V35.2444H218.314V37.9807Z" fill="#201B30"/>
<path d="M236.257 35.2444L235.661 36.8297L235.065 35.2444H234.035V37.9807H234.762V36.1834H234.772L235.368 37.9807H235.954L236.549 36.1834H236.559V37.9807H237.297V35.2444H236.257Z" fill="#201B30"/>
<path d="M231.188 35.8704H231.914V37.9807H232.742V35.8704H233.48V35.2444H231.188V35.8704Z" fill="#201B30"/>
</g>
<defs>
<clipPath id="clip0_2116_124">
<rect width="237.18" height="50.2129" fill="white" transform="translate(0.136719 0.126709)"/>
</clipPath>
</defs>
</svg>
