<svg xmlns="http://www.w3.org/2000/svg" xmlns:xlink="http://www.w3.org/1999/xlink" width="500" zoomAndPan="magnify" viewBox="0 0 375 71.249999" height="95" preserveAspectRatio="xMidYMid meet" version="1.2"><defs><clipPath id="89d88eb0b1"><path d="M 169 53 L 180 53 L 180 70.507812 L 169 70.507812 Z M 169 53 "/></clipPath><clipPath id="a3ac99f901"><path d="M 202 53 L 218 53 L 218 70.507812 L 202 70.507812 Z M 202 53 "/></clipPath><clipPath id="4a85be2770"><path d="M 241 54 L 250 54 L 250 70.507812 L 241 70.507812 Z M 241 54 "/></clipPath><clipPath id="bb4ba4b084"><path d="M 274 54 L 283 54 L 283 70.507812 L 274 70.507812 Z M 274 54 "/></clipPath><clipPath id="376a760ff3"><path d="M 307 54 L 317 54 L 317 70.507812 L 307 70.507812 Z M 307 54 "/></clipPath><clipPath id="9bfcf89d35"><path d="M 339 54 L 353 54 L 353 70.507812 L 339 70.507812 Z M 339 54 "/></clipPath></defs><g id="3f1df7cac6"><path style=" stroke:none;fill-rule:nonzero;fill:#ffffff;fill-opacity:1;" d="M 187.347656 37.835938 L 183.476562 26.550781 L 183.394531 26.550781 L 179.976562 37.835938 Z M 189.039062 42.78125 L 178.246094 42.78125 L 175.691406 49.332031 L 169.304688 49.332031 L 181.417969 17.445312 L 186.113281 17.445312 L 197.894531 49.332031 L 191.425781 49.332031 L 189.039062 42.78125 "/><path style=" stroke:none;fill-rule:nonzero;fill:#ffffff;fill-opacity:1;" d="M 218.863281 20.90625 L 216.023438 25.109375 C 214.757812 23.40625 213.207031 22.554688 211.363281 22.554688 C 210.375 22.554688 209.5 22.890625 208.730469 23.5625 C 207.960938 24.238281 207.578125 25.066406 207.578125 26.054688 C 207.578125 27.402344 208.648438 28.570312 210.789062 29.558594 C 214.140625 31.09375 216.105469 32.097656 216.683594 32.566406 C 218.820312 34.210938 219.894531 36.535156 219.894531 39.527344 C 219.894531 42.6875 218.972656 45.25 217.136719 47.210938 C 215.292969 49.175781 212.808594 50.15625 209.679688 50.15625 C 205.722656 50.15625 202.535156 48.136719 200.121094 44.101562 L 204.03125 40.269531 C 204.472656 41.53125 205.207031 42.601562 206.234375 43.480469 C 207.265625 44.359375 208.398438 44.800781 209.636719 44.800781 C 210.84375 44.800781 211.8125 44.359375 212.539062 43.480469 C 213.269531 42.601562 213.632812 41.546875 213.632812 40.308594 C 213.632812 38.910156 213.039062 37.78125 211.859375 36.929688 C 211.339844 36.578125 210.128906 36.011719 208.238281 35.242188 C 205.957031 34.335938 204.308594 33.320312 203.292969 32.195312 C 201.972656 30.792969 201.3125 28.980469 201.3125 26.757812 C 201.3125 24.148438 202.179688 21.945312 203.910156 20.144531 C 205.640625 18.34375 207.796875 17.445312 210.375 17.445312 C 211.804688 17.445312 213.351562 17.769531 215.011719 18.414062 C 216.675781 19.0625 217.957031 19.890625 218.863281 20.90625 "/><path style=" stroke:none;fill-rule:nonzero;fill:#ffffff;fill-opacity:1;" d="M 230.769531 23.296875 L 230.769531 32.691406 L 232.007812 32.691406 C 233.957031 32.691406 235.328125 32.386719 236.125 31.78125 C 237.058594 31.070312 237.527344 29.765625 237.527344 27.867188 C 237.527344 26.03125 237.003906 24.765625 235.960938 24.078125 C 235.136719 23.558594 233.761719 23.296875 231.839844 23.296875 Z M 230.769531 37.714844 L 230.769531 49.332031 L 224.714844 49.332031 L 224.714844 18.269531 L 232.953125 18.269531 C 240.121094 18.269531 243.707031 21.484375 243.707031 27.910156 C 243.707031 34.449219 240.394531 37.714844 233.777344 37.714844 L 230.769531 37.714844 "/><path style=" stroke:none;fill-rule:nonzero;fill:#ffffff;fill-opacity:1;" d="M 254.167969 18.269531 L 254.167969 49.332031 L 248.113281 49.332031 L 248.113281 18.269531 L 254.167969 18.269531 "/><path style=" stroke:none;fill-rule:nonzero;fill:#ffffff;fill-opacity:1;" d="M 266.28125 23.214844 L 266.28125 32.566406 L 267.0625 32.566406 C 270.851562 32.566406 272.75 30.972656 272.75 27.785156 C 272.75 26.003906 272.210938 24.765625 271.144531 24.078125 C 270.261719 23.5 268.917969 23.214844 267.105469 23.214844 Z M 272.460938 36.230469 L 281.234375 49.332031 L 273.863281 49.332031 L 266.28125 36.808594 L 266.28125 49.332031 L 260.222656 49.332031 L 260.222656 18.269531 L 268.421875 18.269531 C 275.34375 18.269531 278.804688 21.386719 278.804688 27.621094 C 278.804688 29.710938 278.269531 31.550781 277.199219 33.140625 C 276.019531 34.871094 274.4375 35.902344 272.460938 36.230469 "/><path style=" stroke:none;fill-rule:nonzero;fill:#ffffff;fill-opacity:1;" d="M 290.917969 18.269531 L 290.917969 49.332031 L 284.863281 49.332031 L 284.863281 18.269531 L 290.917969 18.269531 "/><path style=" stroke:none;fill-rule:nonzero;fill:#ffffff;fill-opacity:1;" d="M 296.972656 49.332031 L 296.972656 17.445312 L 301.359375 17.445312 L 317.777344 39.15625 L 317.777344 18.269531 L 323.835938 18.269531 L 323.835938 49.949219 L 319.449219 49.949219 L 303.027344 28.238281 L 303.027344 49.332031 L 296.972656 49.332031 "/><path style=" stroke:none;fill-rule:nonzero;fill:#ffffff;fill-opacity:1;" d="M 343.933594 32.8125 L 357.324219 32.8125 L 357.324219 33.59375 C 357.324219 38.292969 356.175781 42.152344 353.863281 45.171875 C 351.335938 48.496094 347.78125 50.15625 343.195312 50.15625 C 338.800781 50.15625 335.203125 48.523438 332.402344 45.253906 C 329.738281 42.152344 328.40625 38.375 328.40625 33.925781 C 328.40625 29.339844 329.777344 25.480469 332.523438 22.347656 C 335.382812 19.078125 339.058594 17.445312 343.566406 17.445312 C 346.230469 17.445312 348.648438 18.089844 350.816406 19.382812 C 352.984375 20.671875 354.660156 22.5 355.84375 24.859375 L 350.488281 27.746094 C 349.855469 26.289062 348.90625 25.101562 347.644531 24.183594 C 346.382812 23.261719 344.964844 22.800781 343.402344 22.800781 C 340.683594 22.800781 338.5 24.011719 336.851562 26.425781 C 335.394531 28.570312 334.667969 31.070312 334.667969 33.925781 C 334.667969 36.753906 335.394531 39.210938 336.851562 41.300781 C 338.5 43.632812 340.695312 44.800781 343.441406 44.800781 C 345.308594 44.800781 346.945312 44.101562 348.347656 42.699219 C 349.746094 41.300781 350.472656 39.652344 350.527344 37.757812 L 343.933594 37.757812 L 343.933594 32.8125 "/><g clip-rule="nonzero" clip-path="url(#89d88eb0b1)"><path style=" stroke:none;fill-rule:nonzero;fill:#ffffff;fill-opacity:1;" d="M 178.847656 55.515625 L 177.390625 57.671875 C 176.742188 56.796875 175.949219 56.359375 175.003906 56.359375 C 174.496094 56.359375 174.046875 56.53125 173.652344 56.878906 C 173.257812 57.222656 173.0625 57.648438 173.0625 58.15625 C 173.0625 58.84375 173.609375 59.445312 174.710938 59.949219 C 176.425781 60.738281 177.433594 61.253906 177.730469 61.492188 C 178.828125 62.335938 179.375 63.527344 179.375 65.0625 C 179.375 66.679688 178.90625 67.992188 177.960938 69 C 177.019531 70.007812 175.742188 70.511719 174.140625 70.511719 C 172.109375 70.511719 170.476562 69.476562 169.238281 67.40625 L 171.246094 65.441406 C 171.472656 66.089844 171.847656 66.636719 172.375 67.089844 C 172.902344 67.539062 173.484375 67.765625 174.117188 67.765625 C 174.738281 67.765625 175.234375 67.539062 175.605469 67.089844 C 175.980469 66.636719 176.167969 66.09375 176.167969 65.464844 C 176.167969 64.746094 175.863281 64.167969 175.257812 63.730469 C 174.992188 63.550781 174.371094 63.257812 173.398438 62.863281 C 172.230469 62.402344 171.386719 61.878906 170.867188 61.300781 C 170.1875 60.582031 169.851562 59.65625 169.851562 58.515625 C 169.851562 57.175781 170.292969 56.046875 171.183594 55.125 C 172.066406 54.203125 173.175781 53.742188 174.496094 53.742188 C 175.230469 53.742188 176.023438 53.90625 176.875 54.238281 C 177.726562 54.570312 178.386719 54.992188 178.847656 55.515625 "/></g><g clip-rule="nonzero" clip-path="url(#a3ac99f901)"><path style=" stroke:none;fill-rule:nonzero;fill:#ffffff;fill-opacity:1;" d="M 212.15625 64.195312 L 210.171875 58.410156 L 210.128906 58.410156 L 208.375 64.195312 Z M 213.019531 66.730469 L 207.488281 66.730469 L 206.179688 70.089844 L 202.90625 70.089844 L 209.113281 53.742188 L 211.523438 53.742188 L 217.5625 70.089844 L 214.246094 70.089844 L 213.019531 66.730469 "/></g><g clip-rule="nonzero" clip-path="url(#4a85be2770)"><path style=" stroke:none;fill-rule:nonzero;fill:#ffffff;fill-opacity:1;" d="M 249.644531 56.867188 L 244.851562 56.867188 L 244.851562 60.375 L 249.347656 60.375 L 249.347656 63.078125 L 244.851562 63.078125 L 244.851562 70.089844 L 241.746094 70.089844 L 241.746094 54.164062 L 249.644531 54.164062 L 249.644531 56.867188 "/></g><g clip-rule="nonzero" clip-path="url(#bb4ba4b084)"><path style=" stroke:none;fill-rule:nonzero;fill:#ffffff;fill-opacity:1;" d="M 282.992188 56.867188 L 277.859375 56.867188 L 277.859375 60.375 L 282.800781 60.375 L 282.800781 63.078125 L 277.859375 63.078125 L 277.859375 67.386719 L 282.992188 67.386719 L 282.992188 70.089844 L 274.753906 70.089844 L 274.753906 54.164062 L 282.992188 54.164062 L 282.992188 56.867188 "/></g><g clip-rule="nonzero" clip-path="url(#376a760ff3)"><path style=" stroke:none;fill-rule:nonzero;fill:#ffffff;fill-opacity:1;" d="M 313.46875 56.867188 L 313.46875 70.089844 L 310.363281 70.089844 L 310.363281 56.867188 L 307.15625 56.867188 L 307.15625 54.164062 L 316.679688 54.164062 L 316.679688 56.867188 L 313.46875 56.867188 "/></g><g clip-rule="nonzero" clip-path="url(#9bfcf89d35)"><path style=" stroke:none;fill-rule:nonzero;fill:#ffffff;fill-opacity:1;" d="M 344.515625 62.78125 L 339.574219 54.164062 L 343.183594 54.164062 L 345.972656 59.695312 L 349.015625 54.164062 L 352.648438 54.164062 L 347.621094 62.78125 L 347.621094 70.089844 L 344.515625 70.089844 L 344.515625 62.78125 "/></g><path style=" stroke:none;fill-rule:nonzero;fill:#ffffff;fill-opacity:1;" d="M 69.453125 0 L 17.664062 70 L 31.65625 70 L 69.453125 18.761719 L 107.457031 70 L 121.242188 70 L 69.453125 0 "/><path style=" stroke:none;fill-rule:nonzero;fill:#ffffff;fill-opacity:1;" d="M 46.511719 48.464844 L 93.074219 48.464844 L 93.074219 37.304688 L 46.511719 37.304688 L 46.511719 48.464844 "/><path style=" stroke:none;fill-rule:nonzero;fill:#ffffff;fill-opacity:1;" d="M 163.257812 67.785156 L 147.429688 46.390625 L 147.011719 45.828125 L 122.035156 45.828125 L 128.257812 37.414062 L 131.574219 41.863281 L 144.121094 41.863281 L 129.371094 21.976562 L 128.253906 20.472656 L 127.136719 21.980469 L 109.886719 45.296875 L 109.277344 46.121094 L 109.886719 46.949219 L 116.101562 55.34375 L 116.515625 55.90625 L 141.933594 55.90625 L 144.902344 59.921875 L 107.757812 59.921875 L 109.398438 62.132812 L 114.800781 69.4375 L 115.21875 70 L 164.898438 70 L 163.257812 67.785156 "/></g></svg>