<svg xmlns="http://www.w3.org/2000/svg" xmlns:xlink="http://www.w3.org/1999/xlink" width="860" zoomAndPan="magnify" viewBox="0 0 645 177.000001" height="236" preserveAspectRatio="xMidYMid meet" version="1.0"><defs><clipPath id="bde9572ae1"><path d="M 1.8125 0 L 643 0 L 643 176 L 1.8125 176 Z M 1.8125 0 " clip-rule="nonzero"/></clipPath></defs><g clip-path="url(#bde9572ae1)"><path fill="#ffffff" d="M 37.148438 0.652344 C 37.480469 0.582031 37.953125 0.578125 38.574219 0.644531 C 40.644531 0.863281 42.832031 1 45.058594 1.429688 C 56.402344 3.628906 66.527344 10.261719 72.964844 19.886719 C 73.039062 19.996094 73.121094 20.050781 73.210938 20.050781 C 73.300781 20.050781 73.382812 19.996094 73.457031 19.886719 C 79.898438 10.261719 90.023438 3.628906 101.367188 1.433594 C 103.59375 1.003906 105.78125 0.867188 107.851562 0.648438 C 108.46875 0.582031 108.945312 0.585938 109.277344 0.652344 C 109.382812 0.675781 109.476562 0.734375 109.542969 0.816406 C 109.609375 0.902344 109.648438 1.003906 109.648438 1.113281 C 109.640625 7.945312 109.640625 12.46875 109.644531 14.6875 C 109.644531 15.050781 109.433594 15.238281 109.015625 15.242188 C 104.527344 15.324219 100.222656 16.445312 96.097656 18.601562 C 92.703125 20.378906 89.691406 22.972656 87.089844 25.996094 C 86.496094 26.6875 85.925781 27.457031 85.378906 28.300781 C 85.355469 28.332031 85.34375 28.367188 85.339844 28.40625 C 85.335938 28.445312 85.339844 28.480469 85.355469 28.515625 C 85.367188 28.550781 85.386719 28.582031 85.414062 28.609375 C 85.445312 28.632812 85.476562 28.652344 85.511719 28.664062 C 85.714844 28.71875 85.90625 28.683594 86.085938 28.554688 C 86.664062 28.144531 87.734375 27.535156 89.292969 26.722656 C 89.867188 26.425781 91.050781 25.949219 92.84375 25.296875 C 94.269531 24.777344 95.480469 24.382812 96.476562 24.117188 C 106.011719 21.554688 115.410156 22.140625 124.664062 25.875 C 129.828125 27.960938 134.222656 31.113281 138.300781 34.714844 C 138.789062 35.144531 138.605469 35.429688 138.1875 35.859375 C 135.308594 38.8125 132.203125 41.933594 128.875 45.222656 C 128.585938 45.507812 128.320312 45.535156 128.085938 45.308594 C 122.925781 40.34375 116.792969 37.644531 109.683594 37.210938 C 103.722656 36.84375 98.171875 38.183594 93.027344 41.234375 C 92.976562 41.261719 92.933594 41.308594 92.90625 41.359375 C 92.878906 41.410156 92.863281 41.46875 92.863281 41.527344 C 92.863281 41.589844 92.882812 41.644531 92.914062 41.695312 C 92.945312 41.746094 92.988281 41.789062 93.039062 41.816406 C 97.335938 44.128906 101.457031 47.109375 104.800781 50.628906 C 110.152344 56.253906 113.785156 62.863281 115.699219 70.453125 C 116.429688 73.347656 116.742188 76.480469 116.957031 79.296875 C 116.992188 79.808594 116.96875 80.203125 116.882812 80.480469 C 116.859375 80.5625 116.808594 80.632812 116.742188 80.679688 C 116.675781 80.730469 116.59375 80.757812 116.511719 80.757812 L 102.824219 80.757812 C 102.699219 80.757812 102.582031 80.707031 102.492188 80.621094 C 102.402344 80.535156 102.351562 80.414062 102.347656 80.289062 C 102.015625 68.21875 94.765625 58.074219 83.554688 53.636719 C 82.507812 53.222656 81.789062 52.960938 80.910156 52.835938 C 80.859375 52.828125 80.808594 52.832031 80.757812 52.84375 C 80.707031 52.859375 80.660156 52.886719 80.621094 52.917969 C 80.578125 52.953125 80.546875 52.996094 80.527344 53.042969 C 80.503906 53.09375 80.492188 53.144531 80.492188 53.199219 L 80.492188 145.089844 C 80.492188 145.238281 80.546875 145.375 80.644531 145.480469 C 80.742188 145.589844 80.878906 145.652344 81.023438 145.664062 C 86.371094 146.054688 91.820312 146.914062 97.378906 148.242188 C 114.101562 152.246094 129.84375 160.425781 142.5 172.101562 C 143.496094 173.019531 144.699219 173.898438 145.414062 174.847656 C 145.535156 175.007812 145.597656 175.097656 145.601562 175.121094 C 145.613281 175.160156 145.617188 175.207031 145.605469 175.25 C 145.597656 175.289062 145.578125 175.332031 145.550781 175.367188 C 145.527344 175.398438 145.492188 175.425781 145.453125 175.445312 C 145.414062 175.464844 145.371094 175.476562 145.328125 175.472656 C 139.382812 175.425781 132.453125 175.414062 124.542969 175.441406 C 123.722656 175.445312 123.007812 175.242188 122.402344 174.839844 C 109.445312 166.195312 95.222656 161.285156 79.734375 160.101562 C 77.949219 159.964844 75.773438 159.898438 73.207031 159.898438 C 70.640625 159.898438 68.464844 159.964844 66.675781 160.101562 C 51.1875 161.28125 36.96875 166.191406 24.011719 174.835938 C 23.40625 175.238281 22.691406 175.4375 21.867188 175.4375 C 13.957031 175.410156 7.03125 175.421875 1.085938 175.46875 C 1.042969 175.46875 1 175.460938 0.960938 175.441406 C 0.921875 175.421875 0.886719 175.394531 0.859375 175.359375 C 0.832031 175.324219 0.816406 175.285156 0.804688 175.242188 C 0.796875 175.199219 0.796875 175.15625 0.808594 175.113281 C 0.816406 175.09375 0.878906 175 1 174.839844 C 1.710938 173.894531 2.917969 173.015625 3.914062 172.097656 C 16.566406 160.421875 32.3125 152.242188 49.035156 148.238281 C 54.59375 146.910156 60.042969 146.054688 65.390625 145.664062 C 65.535156 145.652344 65.671875 145.589844 65.769531 145.480469 C 65.867188 145.375 65.921875 145.238281 65.921875 145.089844 L 65.929688 53.199219 C 65.929688 53.144531 65.917969 53.09375 65.894531 53.042969 C 65.875 52.996094 65.84375 52.953125 65.800781 52.917969 C 65.761719 52.886719 65.714844 52.859375 65.664062 52.84375 C 65.617188 52.832031 65.5625 52.828125 65.511719 52.835938 C 64.632812 52.960938 63.914062 53.222656 62.867188 53.636719 C 51.65625 58.070312 44.402344 68.214844 44.074219 80.289062 C 44.070312 80.414062 44.019531 80.53125 43.929688 80.617188 C 43.839844 80.707031 43.71875 80.753906 43.59375 80.753906 L 29.910156 80.753906 C 29.828125 80.753906 29.746094 80.726562 29.675781 80.679688 C 29.609375 80.628906 29.558594 80.558594 29.535156 80.476562 C 29.449219 80.199219 29.425781 79.804688 29.464844 79.292969 C 29.675781 76.480469 29.992188 73.34375 30.722656 70.453125 C 32.632812 62.859375 36.265625 56.25 41.621094 50.625 C 44.964844 47.105469 49.085938 44.128906 53.382812 41.816406 C 53.433594 41.785156 53.476562 41.746094 53.507812 41.695312 C 53.539062 41.644531 53.558594 41.585938 53.558594 41.527344 C 53.558594 41.46875 53.546875 41.410156 53.515625 41.355469 C 53.488281 41.304688 53.445312 41.261719 53.394531 41.230469 C 48.25 38.183594 42.699219 36.839844 36.738281 37.207031 C 29.628906 37.640625 23.496094 40.339844 18.339844 45.300781 C 18.101562 45.53125 17.835938 45.503906 17.550781 45.21875 C 14.21875 41.929688 11.113281 38.808594 8.234375 35.851562 C 7.816406 35.425781 7.632812 35.136719 8.121094 34.710938 C 12.199219 31.109375 16.59375 27.953125 21.757812 25.871094 C 31.015625 22.136719 40.410156 21.550781 49.949219 24.113281 C 50.945312 24.382812 52.15625 24.773438 53.582031 25.292969 C 55.375 25.945312 56.554688 26.421875 57.128906 26.722656 C 58.6875 27.535156 59.757812 28.144531 60.335938 28.554688 C 60.515625 28.683594 60.707031 28.71875 60.910156 28.664062 C 60.945312 28.652344 60.980469 28.632812 61.007812 28.609375 C 61.035156 28.582031 61.054688 28.550781 61.070312 28.515625 C 61.082031 28.480469 61.085938 28.445312 61.082031 28.40625 C 61.078125 28.367188 61.066406 28.332031 61.046875 28.300781 C 60.496094 27.457031 59.925781 26.6875 59.332031 25.996094 C 56.734375 22.972656 53.722656 20.375 50.328125 18.601562 C 46.203125 16.441406 41.898438 15.324219 37.410156 15.242188 C 36.988281 15.234375 36.78125 15.050781 36.78125 14.683594 C 36.785156 12.46875 36.785156 7.945312 36.777344 1.109375 C 36.777344 1.003906 36.8125 0.898438 36.882812 0.816406 C 36.949219 0.730469 37.042969 0.675781 37.148438 0.652344 Z M 195.757812 55.832031 C 202.113281 53.351562 209.296875 52.816406 216.050781 53.96875 C 219.4375 54.546875 222.425781 55.414062 225.015625 56.570312 C 231.988281 59.683594 237.679688 64.933594 241.832031 71.382812 C 246.757812 79.035156 248.710938 87.871094 248.441406 96.949219 C 248.09375 108.871094 243.519531 119.667969 234.648438 127.757812 C 229.667969 132.296875 223.886719 135.203125 217.300781 136.480469 C 212.320312 137.441406 207.273438 137.527344 202.164062 136.738281 C 195.953125 135.777344 190.417969 133.378906 185.5625 129.546875 C 184.953125 129.0625 184.4375 128.570312 184.015625 128.066406 C 183.925781 127.964844 183.800781 127.894531 183.664062 127.878906 C 183.523438 127.859375 183.378906 127.890625 183.257812 127.96875 C 183.105469 128.0625 183.035156 128.214844 183.046875 128.425781 C 183.152344 130.664062 183.207031 132.886719 183.203125 135.085938 C 183.175781 158.042969 183.160156 169.816406 183.152344 170.410156 C 183.125 172.910156 183.109375 174.265625 183.105469 174.472656 C 183.105469 174.933594 182.878906 175.171875 182.433594 175.183594 C 182.078125 175.195312 181.628906 175.195312 181.074219 175.195312 C 170.683594 175.144531 162.632812 175.136719 156.921875 175.171875 C 156.550781 175.175781 156.292969 175.113281 156.140625 174.984375 C 155.945312 174.8125 155.847656 174.5625 155.847656 174.230469 C 155.835938 171.847656 155.835938 169.324219 155.839844 166.648438 C 155.921875 132.253906 155.9375 97.746094 155.894531 63.125 C 155.894531 62.28125 155.878906 61.230469 155.851562 59.96875 C 155.820312 58.386719 155.699219 57.117188 155.9375 56.085938 C 155.949219 56.039062 155.972656 55.992188 156.003906 55.957031 C 156.039062 55.917969 156.082031 55.890625 156.128906 55.878906 C 156.335938 55.8125 156.617188 55.777344 156.972656 55.777344 C 167.167969 55.78125 175.261719 55.78125 181.253906 55.78125 C 181.691406 55.78125 182.105469 55.820312 182.5 55.894531 C 182.613281 55.914062 182.71875 55.976562 182.792969 56.066406 C 182.867188 56.15625 182.90625 56.269531 182.90625 56.386719 C 182.90625 59.089844 182.878906 61.578125 182.832031 63.847656 C 182.828125 63.960938 182.867188 64.070312 182.941406 64.152344 C 183.015625 64.234375 183.117188 64.28125 183.226562 64.285156 C 183.496094 64.296875 183.75 64.167969 183.996094 63.90625 C 187.359375 60.269531 191.285156 57.578125 195.757812 55.832031 Z M 284.628906 54.320312 C 291.746094 52.835938 298.765625 53.125 305.679688 55.1875 C 309.460938 56.320312 313.019531 58.15625 316.355469 60.707031 C 316.859375 61.089844 317.242188 61.414062 317.5 61.683594 C 317.949219 62.148438 318.480469 62.78125 318.890625 62.898438 C 318.9375 62.914062 318.984375 62.914062 319.03125 62.894531 C 319.078125 62.878906 319.117188 62.84375 319.144531 62.804688 C 319.257812 62.613281 319.335938 62.347656 319.371094 62.007812 C 319.386719 61.863281 319.367188 60.128906 319.316406 56.800781 C 319.316406 56.632812 319.359375 56.390625 319.445312 56.070312 C 319.472656 55.988281 319.519531 55.914062 319.589844 55.863281 C 319.660156 55.808594 319.742188 55.78125 319.828125 55.78125 C 328.71875 55.78125 337.480469 55.78125 346.113281 55.785156 C 346.53125 55.785156 346.742188 55.976562 346.742188 56.367188 C 346.707031 83.660156 346.710938 109.710938 346.746094 134.511719 C 346.746094 134.574219 346.734375 134.636719 346.710938 134.691406 C 346.6875 134.75 346.65625 134.800781 346.613281 134.84375 C 346.566406 134.886719 346.519531 134.921875 346.460938 134.945312 C 346.40625 134.96875 346.34375 134.980469 346.28125 134.980469 C 338.914062 134.992188 330.332031 134.996094 320.53125 134.992188 C 320.09375 134.992188 319.800781 134.832031 319.652344 134.507812 C 319.621094 134.445312 319.605469 134.371094 319.605469 134.300781 C 319.652344 131.210938 319.679688 128.734375 319.6875 126.875 C 319.6875 126.664062 319.65625 126.511719 319.597656 126.417969 C 319.566406 126.363281 319.519531 126.316406 319.464844 126.285156 C 319.410156 126.253906 319.34375 126.234375 319.277344 126.234375 C 319.210938 126.230469 319.144531 126.246094 319.085938 126.273438 C 319.023438 126.300781 318.964844 126.339844 318.921875 126.394531 C 317.832031 127.660156 316.53125 128.894531 315.019531 130.089844 C 308.34375 135.371094 300.117188 137.65625 291.667969 137.246094 C 284.878906 136.917969 278.453125 135.234375 272.707031 131.542969 C 263.183594 125.429688 256.675781 115.1875 254.78125 104.066406 C 254.121094 100.203125 253.886719 96.449219 254.082031 92.800781 C 254.171875 91.132812 254.425781 88.921875 254.851562 86.175781 C 255.09375 84.59375 255.683594 82.449219 256.613281 79.738281 C 258.941406 72.945312 263.40625 66.703125 268.933594 62 C 273.507812 58.109375 278.738281 55.546875 284.628906 54.320312 Z M 616.320312 55.785156 C 631.128906 55.785156 639.796875 55.785156 642.328125 55.785156 C 642.441406 55.785156 642.554688 55.824219 642.644531 55.898438 C 642.734375 55.96875 642.796875 56.070312 642.824219 56.179688 C 642.871094 56.382812 642.894531 56.730469 642.898438 57.230469 C 642.898438 58.246094 642.890625 72.652344 642.878906 100.445312 C 642.875 108.433594 641.472656 117 636.953125 123.695312 C 630.300781 133.542969 617.609375 136.285156 606.476562 137.039062 C 604.042969 137.203125 601.863281 137.285156 599.9375 137.285156 C 598.015625 137.285156 595.835938 137.203125 593.398438 137.039062 C 582.273438 136.285156 569.578125 133.542969 562.925781 123.695312 C 558.40625 117 557.003906 108.433594 557 100.445312 C 556.988281 72.652344 556.980469 58.246094 556.984375 57.230469 C 556.984375 56.730469 557.007812 56.382812 557.054688 56.179688 C 557.082031 56.070312 557.144531 55.96875 557.234375 55.898438 C 557.324219 55.824219 557.4375 55.785156 557.550781 55.785156 C 560.082031 55.785156 568.75 55.785156 583.5625 55.785156 C 584.097656 55.785156 584.367188 56.039062 584.363281 56.554688 C 584.34375 65.035156 584.335938 75.800781 584.34375 88.855469 C 584.34375 92.367188 584.371094 94.933594 584.421875 96.550781 C 584.53125 100.054688 585.105469 103.410156 586.15625 106.617188 C 587.585938 110.996094 590.960938 113.777344 595.445312 114.640625 C 596.984375 114.933594 598.429688 115.007812 599.9375 115.007812 C 601.449219 115.007812 602.894531 114.933594 604.433594 114.640625 C 608.917969 113.777344 612.292969 110.996094 613.726562 106.617188 C 614.773438 103.410156 615.347656 100.054688 615.457031 96.550781 C 615.511719 94.933594 615.535156 92.367188 615.535156 88.855469 C 615.542969 75.800781 615.535156 65.035156 615.515625 56.554688 C 615.511719 56.039062 615.78125 55.785156 616.320312 55.785156 Z M 512.492188 53.398438 C 516.40625 53.40625 520.296875 54.035156 524.160156 55.28125 C 527.828125 56.464844 531.277344 58.363281 534.515625 60.972656 C 537.058594 63.023438 539 65.539062 540.332031 68.515625 C 541.242188 70.542969 541.972656 72.527344 542.371094 74.726562 C 542.882812 77.550781 543.136719 79.9375 543.136719 81.890625 C 543.136719 106.402344 543.144531 123.945312 543.15625 134.519531 C 543.15625 134.632812 543.117188 134.742188 543.042969 134.828125 C 542.96875 134.914062 542.867188 134.96875 542.753906 134.988281 C 542.6875 134.996094 542.414062 135 541.9375 135 C 535.234375 134.980469 526.703125 134.984375 516.34375 135.011719 C 516.109375 135.011719 515.941406 134.925781 515.84375 134.757812 C 515.78125 134.648438 515.746094 134.457031 515.746094 134.183594 C 515.792969 109.761719 515.796875 94.847656 515.753906 89.441406 C 515.734375 86.496094 514.945312 83.757812 513.390625 81.234375 C 511.25 77.75 508.089844 75.832031 503.914062 75.476562 C 501.21875 75.25 498.625 75.394531 496.277344 76.417969 C 491.613281 78.445312 489.1875 83.679688 489.191406 88.667969 C 489.199219 105.503906 489.195312 120.769531 489.175781 134.472656 C 489.175781 134.808594 488.949219 134.972656 488.492188 134.972656 C 479.621094 134.988281 471.378906 134.996094 463.773438 135.003906 C 463.753906 135.003906 463.347656 135.015625 462.5625 135.039062 C 462.453125 135.042969 462.34375 135.015625 462.25 134.957031 C 462.15625 134.898438 462.082031 134.816406 462.035156 134.714844 C 461.929688 134.496094 461.878906 134.207031 461.882812 133.851562 C 461.894531 121.871094 461.902344 107.554688 461.894531 90.902344 C 461.894531 87.199219 461.3125 84.101562 459.363281 81 C 456.097656 75.804688 450.121094 74.605469 444.40625 75.765625 C 439.640625 76.734375 436.28125 81.230469 435.628906 85.785156 C 435.429688 87.175781 435.332031 88.898438 435.335938 90.949219 C 435.375 109.210938 435.382812 122.800781 435.355469 131.722656 C 435.347656 133.480469 435.347656 134.386719 435.347656 134.429688 C 435.34375 134.804688 435.140625 134.992188 434.730469 134.992188 C 425.160156 134.988281 416.511719 134.992188 408.792969 135 C 408.078125 135 408.015625 134.621094 408.015625 133.976562 C 408.023438 104.703125 408.019531 79.164062 408.015625 57.355469 C 408.015625 56.664062 408.039062 56.210938 408.089844 56 C 408.097656 55.957031 408.117188 55.917969 408.144531 55.882812 C 408.175781 55.851562 408.207031 55.824219 408.25 55.8125 C 408.335938 55.78125 408.664062 55.765625 409.226562 55.765625 C 421.75 55.792969 429.910156 55.792969 433.710938 55.769531 C 434.273438 55.765625 434.742188 55.816406 435.113281 55.925781 C 435.191406 55.945312 435.253906 55.992188 435.304688 56.054688 C 435.351562 56.117188 435.375 56.195312 435.375 56.273438 L 435.375 63.386719 C 435.375 63.453125 435.390625 63.515625 435.417969 63.574219 C 435.445312 63.632812 435.484375 63.6875 435.535156 63.726562 C 435.582031 63.769531 435.640625 63.800781 435.703125 63.820312 C 435.765625 63.835938 435.832031 63.839844 435.898438 63.828125 C 436.125 63.792969 436.339844 63.652344 436.546875 63.414062 C 438.042969 61.6875 439.566406 60.519531 441.699219 59.011719 C 448.886719 53.9375 456.863281 52.304688 465.625 54.109375 C 470.824219 55.179688 475.960938 57.0625 480.066406 60.558594 C 482.375 62.527344 484.253906 64.832031 485.703125 67.46875 C 485.734375 67.527344 485.78125 67.578125 485.839844 67.617188 C 485.898438 67.65625 485.960938 67.679688 486.03125 67.683594 C 486.097656 67.691406 486.167969 67.679688 486.226562 67.652344 C 486.292969 67.625 486.347656 67.582031 486.386719 67.53125 C 489.101562 64.136719 492.253906 61.207031 495.851562 58.742188 C 501.074219 55.164062 506.621094 53.378906 512.492188 53.398438 Z M 390.582031 2.179688 C 390.832031 2.179688 391.03125 2.378906 391.03125 2.625 L 391.03125 134.546875 C 391.03125 134.792969 390.832031 134.992188 390.582031 134.992188 L 364.132812 134.992188 C 363.882812 134.992188 363.683594 134.792969 363.683594 134.546875 L 363.683594 2.625 C 363.683594 2.378906 363.882812 2.179688 364.132812 2.179688 Z M 210.191406 78.855469 C 207 77.140625 203.28125 76.601562 199.609375 76.8125 C 195.953125 77.023438 192.667969 78.0625 189.8125 80.203125 C 186.375 82.773438 184.148438 86.128906 183.132812 90.265625 C 181.746094 95.929688 182.664062 102.601562 186.511719 107.210938 C 190.636719 112.160156 195.980469 114.390625 202.539062 113.902344 C 206.949219 113.574219 210.695312 111.945312 213.78125 109.023438 C 218.617188 104.4375 220.0625 98.222656 219.140625 91.753906 C 218.34375 86.183594 215.09375 81.488281 210.191406 78.855469 Z M 315.984375 83.523438 C 311.859375 78.574219 306.519531 76.347656 299.957031 76.832031 C 295.546875 77.164062 291.800781 78.789062 288.714844 81.714844 C 283.878906 86.300781 282.433594 92.511719 283.359375 98.980469 C 284.152344 104.554688 287.402344 109.246094 292.304688 111.878906 C 295.5 113.589844 299.21875 114.132812 302.886719 113.921875 C 306.546875 113.710938 309.828125 112.671875 312.683594 110.535156 C 316.121094 107.960938 318.347656 104.605469 319.359375 100.472656 C 320.75 94.804688 319.832031 88.132812 315.984375 83.523438 Z M 315.984375 83.523438 " fill-opacity="1" fill-rule="nonzero"/></g></svg>