<svg xmlns="http://www.w3.org/2000/svg" xmlns:xlink="http://www.w3.org/1999/xlink" width="1080" zoomAndPan="magnify" viewBox="0 0 810 809.999993" height="1080" preserveAspectRatio="xMidYMid meet" version="1.0"><defs><clipPath id="c22615dc88"><path d="M 83 317 L 729 317 L 729 494 L 83 494 Z M 83 317 " clip-rule="nonzero"/></clipPath></defs><g clip-path="url(#c22615dc88)"><path fill="#ffffff" d="M 119.734375 317.230469 C 120.070312 317.160156 120.546875 317.15625 121.171875 317.222656 C 123.253906 317.441406 125.457031 317.582031 127.695312 318.011719 C 139.117188 320.222656 149.308594 326.894531 155.789062 336.574219 C 155.863281 336.683594 155.945312 336.738281 156.035156 336.738281 C 156.128906 336.738281 156.210938 336.683594 156.285156 336.574219 C 162.769531 326.894531 172.957031 320.226562 184.378906 318.015625 C 186.621094 317.585938 188.820312 317.445312 190.902344 317.222656 C 191.527344 317.160156 192.007812 317.164062 192.339844 317.230469 C 192.445312 317.253906 192.542969 317.3125 192.609375 317.398438 C 192.675781 317.480469 192.714844 317.585938 192.714844 317.691406 C 192.707031 324.566406 192.707031 329.117188 192.710938 331.34375 C 192.710938 331.710938 192.5 331.898438 192.074219 331.902344 C 187.558594 331.988281 183.222656 333.113281 179.074219 335.28125 C 175.65625 337.066406 172.625 339.679688 170.007812 342.71875 C 169.410156 343.414062 168.832031 344.183594 168.28125 345.035156 C 168.261719 345.066406 168.25 345.101562 168.246094 345.140625 C 168.242188 345.179688 168.246094 345.214844 168.257812 345.25 C 168.273438 345.285156 168.292969 345.320312 168.320312 345.34375 C 168.347656 345.371094 168.382812 345.386719 168.417969 345.398438 C 168.625 345.453125 168.816406 345.417969 168.996094 345.292969 C 169.578125 344.878906 170.65625 344.265625 172.222656 343.449219 C 172.800781 343.148438 173.992188 342.671875 175.796875 342.011719 C 177.234375 341.492188 178.453125 341.09375 179.453125 340.824219 C 189.054688 338.25 198.511719 338.839844 207.828125 342.597656 C 213.027344 344.691406 217.449219 347.863281 221.558594 351.484375 C 222.046875 351.914062 221.863281 352.203125 221.441406 352.632812 C 218.546875 355.605469 215.417969 358.746094 212.066406 362.050781 C 211.777344 362.335938 211.511719 362.367188 211.269531 362.136719 C 206.078125 357.144531 199.90625 354.429688 192.75 353.992188 C 186.75 353.625 181.160156 354.976562 175.984375 358.039062 C 175.933594 358.070312 175.890625 358.113281 175.863281 358.167969 C 175.832031 358.21875 175.816406 358.277344 175.820312 358.335938 C 175.820312 358.398438 175.835938 358.457031 175.867188 358.507812 C 175.898438 358.558594 175.945312 358.597656 175.996094 358.628906 C 180.320312 360.953125 184.46875 363.949219 187.835938 367.488281 C 193.222656 373.144531 196.878906 379.789062 198.804688 387.425781 C 199.539062 390.335938 199.855469 393.488281 200.070312 396.316406 C 200.109375 396.832031 200.082031 397.226562 200 397.507812 C 199.972656 397.589844 199.921875 397.660156 199.855469 397.710938 C 199.785156 397.757812 199.703125 397.785156 199.621094 397.785156 L 185.84375 397.785156 C 185.71875 397.785156 185.597656 397.738281 185.507812 397.648438 C 185.417969 397.5625 185.367188 397.441406 185.363281 397.316406 C 185.03125 385.175781 177.734375 374.976562 166.449219 370.511719 C 165.394531 370.097656 164.671875 369.832031 163.789062 369.707031 C 163.734375 369.699219 163.683594 369.703125 163.632812 369.71875 C 163.582031 369.730469 163.535156 369.757812 163.492188 369.792969 C 163.453125 369.828125 163.421875 369.867188 163.398438 369.917969 C 163.378906 369.964844 163.367188 370.019531 163.367188 370.070312 L 163.367188 462.484375 C 163.367188 462.628906 163.421875 462.769531 163.519531 462.875 C 163.617188 462.980469 163.753906 463.046875 163.898438 463.058594 C 169.28125 463.449219 174.769531 464.316406 180.363281 465.652344 C 197.199219 469.675781 213.042969 477.902344 225.78125 489.644531 C 226.785156 490.570312 227.996094 491.453125 228.714844 492.40625 C 228.835938 492.566406 228.898438 492.660156 228.90625 492.679688 C 228.917969 492.722656 228.917969 492.765625 228.910156 492.808594 C 228.902344 492.851562 228.882812 492.890625 228.855469 492.925781 C 228.828125 492.960938 228.792969 492.988281 228.753906 493.007812 C 228.714844 493.027344 228.671875 493.039062 228.628906 493.035156 C 222.644531 492.988281 215.667969 492.976562 207.707031 493.003906 C 206.878906 493.007812 206.160156 492.804688 205.550781 492.398438 C 192.511719 483.707031 178.195312 478.765625 162.605469 477.578125 C 160.808594 477.441406 158.617188 477.375 156.03125 477.375 C 153.449219 477.375 151.257812 477.441406 149.457031 477.578125 C 133.867188 478.765625 119.554688 483.703125 106.511719 492.394531 C 105.902344 492.800781 105.183594 493 104.355469 493 C 96.394531 492.972656 89.417969 492.984375 83.433594 493.03125 C 83.390625 493.03125 83.347656 493.023438 83.308594 493.003906 C 83.269531 492.984375 83.234375 492.957031 83.207031 492.921875 C 83.179688 492.886719 83.160156 492.847656 83.152344 492.804688 C 83.144531 492.761719 83.144531 492.71875 83.15625 492.675781 C 83.164062 492.652344 83.226562 492.5625 83.347656 492.398438 C 84.066406 491.449219 85.277344 490.566406 86.28125 489.640625 C 99.019531 477.898438 114.867188 469.671875 131.703125 465.648438 C 137.296875 464.3125 142.78125 463.449219 148.164062 463.058594 C 148.308594 463.046875 148.445312 462.980469 148.546875 462.875 C 148.644531 462.769531 148.699219 462.628906 148.699219 462.484375 L 148.707031 370.070312 C 148.707031 370.019531 148.695312 369.964844 148.671875 369.917969 C 148.652344 369.867188 148.617188 369.828125 148.578125 369.792969 C 148.539062 369.757812 148.492188 369.730469 148.441406 369.71875 C 148.390625 369.703125 148.335938 369.699219 148.285156 369.707031 C 147.402344 369.832031 146.675781 370.097656 145.625 370.511719 C 134.339844 374.972656 127.039062 385.175781 126.707031 397.316406 C 126.703125 397.441406 126.652344 397.558594 126.5625 397.648438 C 126.472656 397.734375 126.351562 397.785156 126.226562 397.785156 L 112.449219 397.785156 C 112.367188 397.785156 112.285156 397.757812 112.214844 397.707031 C 112.148438 397.65625 112.097656 397.585938 112.070312 397.507812 C 111.984375 397.226562 111.960938 396.828125 112 396.316406 C 112.214844 393.484375 112.53125 390.332031 113.265625 387.421875 C 115.191406 379.789062 118.847656 373.140625 124.238281 367.484375 C 127.605469 363.945312 131.753906 360.949219 136.074219 358.625 C 136.128906 358.597656 136.171875 358.554688 136.203125 358.503906 C 136.234375 358.453125 136.253906 358.394531 136.253906 358.335938 C 136.253906 358.273438 136.242188 358.214844 136.210938 358.164062 C 136.183594 358.109375 136.140625 358.066406 136.089844 358.039062 C 130.914062 354.972656 125.324219 353.625 119.324219 353.992188 C 112.167969 354.429688 105.992188 357.140625 100.800781 362.132812 C 100.5625 362.359375 100.296875 362.332031 100.007812 362.046875 C 96.652344 358.742188 93.527344 355.601562 90.628906 352.628906 C 90.210938 352.199219 90.027344 351.910156 90.515625 351.480469 C 94.625 347.859375 99.042969 344.6875 104.242188 342.589844 C 113.5625 338.835938 123.019531 338.246094 132.621094 340.824219 C 133.625 341.09375 134.84375 341.488281 136.277344 342.011719 C 138.082031 342.667969 139.269531 343.148438 139.847656 343.449219 C 141.417969 344.265625 142.492188 344.878906 143.078125 345.292969 C 143.257812 345.417969 143.449219 345.453125 143.652344 345.398438 C 143.691406 345.386719 143.722656 345.371094 143.75 345.34375 C 143.777344 345.320312 143.800781 345.285156 143.8125 345.25 C 143.828125 345.214844 143.832031 345.179688 143.828125 345.140625 C 143.824219 345.101562 143.8125 345.066406 143.789062 345.035156 C 143.238281 344.183594 142.664062 343.414062 142.066406 342.71875 C 139.453125 339.679688 136.417969 337.0625 133 335.277344 C 128.851562 333.109375 124.515625 331.984375 120 331.902344 C 119.578125 331.894531 119.363281 331.707031 119.363281 331.339844 C 119.371094 329.113281 119.367188 324.5625 119.363281 317.691406 C 119.363281 317.582031 119.398438 317.476562 119.464844 317.394531 C 119.535156 317.308594 119.628906 317.253906 119.734375 317.230469 Z M 279.394531 372.71875 C 285.789062 370.226562 293.019531 369.6875 299.816406 370.847656 C 303.226562 371.429688 306.238281 372.300781 308.84375 373.464844 C 315.863281 376.59375 321.589844 381.871094 325.769531 388.359375 C 330.726562 396.054688 332.695312 404.941406 332.425781 414.070312 C 332.070312 426.058594 327.46875 436.914062 318.539062 445.054688 C 313.527344 449.617188 307.707031 452.539062 301.078125 453.820312 C 296.0625 454.789062 290.984375 454.875 285.839844 454.082031 C 279.589844 453.117188 274.015625 450.707031 269.128906 446.851562 C 268.515625 446.363281 267.996094 445.867188 267.570312 445.363281 C 267.480469 445.257812 267.355469 445.191406 267.214844 445.171875 C 267.074219 445.152344 266.929688 445.1875 266.808594 445.265625 C 266.65625 445.359375 266.585938 445.511719 266.597656 445.722656 C 266.707031 447.972656 266.757812 450.207031 266.753906 452.421875 C 266.726562 475.507812 266.710938 487.347656 266.703125 487.945312 C 266.675781 490.457031 266.660156 491.820312 266.65625 492.03125 C 266.65625 492.492188 266.429688 492.730469 265.976562 492.746094 C 265.621094 492.753906 265.167969 492.757812 264.613281 492.753906 C 254.152344 492.703125 246.046875 492.699219 240.300781 492.734375 C 239.925781 492.734375 239.664062 492.671875 239.515625 492.542969 C 239.316406 492.371094 239.214844 492.117188 239.214844 491.785156 C 239.207031 489.390625 239.207031 486.851562 239.210938 484.164062 C 239.292969 449.570312 239.308594 414.871094 239.265625 380.054688 C 239.265625 379.207031 239.25 378.148438 239.222656 376.882812 C 239.191406 375.289062 239.070312 374.011719 239.308594 372.976562 C 239.320312 372.929688 239.34375 372.882812 239.378906 372.847656 C 239.410156 372.808594 239.453125 372.78125 239.503906 372.765625 C 239.707031 372.699219 239.992188 372.667969 240.351562 372.667969 C 250.613281 372.671875 258.761719 372.671875 264.792969 372.667969 C 265.234375 372.667969 265.648438 372.707031 266.046875 372.785156 C 266.160156 372.804688 266.265625 372.867188 266.339844 372.957031 C 266.414062 373.046875 266.457031 373.160156 266.457031 373.277344 C 266.453125 376 266.425781 378.5 266.378906 380.78125 C 266.378906 380.894531 266.417969 381.003906 266.492188 381.085938 C 266.566406 381.167969 266.667969 381.21875 266.777344 381.222656 C 267.046875 381.230469 267.304688 381.105469 267.550781 380.839844 C 270.941406 377.183594 274.886719 374.476562 279.394531 372.71875 Z M 368.847656 371.199219 C 376.015625 369.707031 383.078125 370 390.039062 372.074219 C 393.847656 373.210938 397.429688 375.058594 400.785156 377.621094 C 401.292969 378.007812 401.679688 378.335938 401.9375 378.605469 C 402.390625 379.070312 402.925781 379.710938 403.335938 379.828125 C 403.382812 379.84375 403.433594 379.839844 403.480469 379.824219 C 403.527344 379.804688 403.5625 379.773438 403.589844 379.730469 C 403.707031 379.542969 403.785156 379.273438 403.820312 378.929688 C 403.835938 378.785156 403.816406 377.042969 403.769531 373.695312 C 403.765625 373.527344 403.808594 373.28125 403.898438 372.960938 C 403.921875 372.875 403.972656 372.800781 404.039062 372.75 C 404.109375 372.699219 404.195312 372.667969 404.28125 372.667969 C 413.230469 372.667969 422.050781 372.671875 430.738281 372.671875 C 431.160156 372.671875 431.371094 372.867188 431.371094 373.261719 C 431.339844 400.707031 431.339844 426.902344 431.378906 451.84375 C 431.378906 451.90625 431.367188 451.96875 431.34375 452.023438 C 431.320312 452.082031 431.285156 452.132812 431.242188 452.179688 C 431.195312 452.222656 431.148438 452.257812 431.089844 452.28125 C 431.03125 452.304688 430.972656 452.316406 430.910156 452.316406 C 423.492188 452.324219 414.851562 452.328125 404.988281 452.324219 C 404.550781 452.324219 404.253906 452.164062 404.101562 451.839844 C 404.074219 451.773438 404.054688 451.703125 404.058594 451.632812 C 404.105469 448.523438 404.132812 446.035156 404.136719 444.164062 C 404.136719 443.953125 404.109375 443.796875 404.050781 443.703125 C 404.019531 443.648438 403.972656 443.605469 403.914062 443.570312 C 403.859375 443.539062 403.796875 443.519531 403.726562 443.519531 C 403.660156 443.515625 403.59375 443.53125 403.53125 443.558594 C 403.46875 443.585938 403.414062 443.628906 403.367188 443.679688 C 402.269531 444.953125 400.960938 446.191406 399.4375 447.398438 C 392.71875 452.707031 384.441406 455.007812 375.933594 454.59375 C 369.101562 454.265625 362.632812 452.570312 356.851562 448.859375 C 347.265625 442.710938 340.710938 432.410156 338.804688 421.226562 C 338.140625 417.339844 337.90625 413.566406 338.101562 409.898438 C 338.191406 408.21875 338.449219 406 338.875 403.238281 C 339.121094 401.644531 339.714844 399.488281 340.648438 396.761719 C 342.992188 389.929688 347.488281 383.652344 353.050781 378.921875 C 357.65625 375.011719 362.921875 372.4375 368.847656 371.199219 Z M 702.726562 372.671875 C 717.636719 372.671875 726.363281 372.671875 728.910156 372.675781 C 729.027344 372.675781 729.136719 372.714844 729.230469 372.785156 C 729.320312 372.859375 729.382812 372.957031 729.410156 373.070312 C 729.457031 373.273438 729.480469 373.625 729.480469 374.128906 C 729.484375 375.148438 729.476562 389.632812 729.464844 417.582031 C 729.460938 425.617188 728.050781 434.230469 723.5 440.964844 C 716.804688 450.871094 704.027344 453.628906 692.824219 454.382812 C 690.371094 454.550781 688.179688 454.632812 686.242188 454.632812 C 684.304688 454.632812 682.109375 454.550781 679.65625 454.382812 C 668.457031 453.628906 655.679688 450.871094 648.984375 440.964844 C 644.433594 434.230469 643.023438 425.617188 643.019531 417.582031 C 643.003906 389.632812 643 375.148438 643 374.128906 C 643.003906 373.625 643.027344 373.273438 643.074219 373.070312 C 643.101562 372.957031 643.164062 372.859375 643.253906 372.785156 C 643.347656 372.714844 643.457031 372.675781 643.574219 372.675781 C 646.121094 372.671875 654.847656 372.671875 669.753906 372.671875 C 670.296875 372.671875 670.566406 372.929688 670.5625 373.445312 C 670.542969 381.976562 670.535156 392.804688 670.542969 405.929688 C 670.542969 409.460938 670.570312 412.042969 670.621094 413.671875 C 670.730469 417.191406 671.3125 420.566406 672.367188 423.792969 C 673.808594 428.195312 677.203125 430.992188 681.714844 431.859375 C 683.265625 432.15625 684.722656 432.230469 686.242188 432.230469 C 687.757812 432.230469 689.214844 432.15625 690.765625 431.859375 C 695.28125 430.992188 698.675781 428.195312 700.117188 423.792969 C 701.171875 420.566406 701.753906 417.191406 701.863281 413.671875 C 701.914062 412.042969 701.9375 409.460938 701.941406 405.929688 C 701.949219 392.804688 701.941406 381.976562 701.917969 373.445312 C 701.917969 372.929688 702.1875 372.671875 702.726562 372.671875 Z M 598.214844 370.273438 C 602.15625 370.28125 606.074219 370.914062 609.960938 372.167969 C 613.652344 373.359375 617.125 375.265625 620.382812 377.890625 C 622.945312 379.953125 624.898438 382.480469 626.242188 385.476562 C 627.15625 387.515625 627.890625 389.511719 628.292969 391.722656 C 628.804688 394.558594 629.0625 396.960938 629.0625 398.925781 C 629.0625 423.574219 629.070312 441.21875 629.085938 451.851562 C 629.085938 451.964844 629.042969 452.074219 628.96875 452.160156 C 628.894531 452.246094 628.792969 452.304688 628.675781 452.320312 C 628.609375 452.332031 628.335938 452.335938 627.859375 452.332031 C 621.109375 452.316406 612.523438 452.320312 602.09375 452.347656 C 601.859375 452.347656 601.691406 452.261719 601.589844 452.089844 C 601.527344 451.980469 601.492188 451.789062 601.492188 451.511719 C 601.542969 426.957031 601.542969 411.957031 601.5 406.519531 C 601.480469 403.558594 600.683594 400.804688 599.121094 398.265625 C 596.964844 394.761719 593.789062 392.832031 589.582031 392.476562 C 586.871094 392.246094 584.257812 392.394531 581.894531 393.421875 C 577.199219 395.460938 574.761719 400.726562 574.761719 405.742188 C 574.769531 422.671875 574.765625 438.023438 574.746094 451.804688 C 574.746094 452.140625 574.519531 452.308594 574.058594 452.308594 C 565.128906 452.320312 556.832031 452.332031 549.175781 452.339844 C 549.15625 452.339844 548.75 452.351562 547.960938 452.375 C 547.847656 452.378906 547.738281 452.347656 547.644531 452.292969 C 547.550781 452.234375 547.476562 452.148438 547.429688 452.046875 C 547.320312 451.828125 547.269531 451.535156 547.269531 451.179688 C 547.285156 439.128906 547.292969 424.734375 547.285156 407.988281 C 547.285156 404.261719 546.699219 401.148438 544.738281 398.03125 C 541.449219 392.808594 535.433594 391.597656 529.679688 392.765625 C 524.886719 393.742188 521.503906 398.261719 520.84375 402.84375 C 520.644531 404.242188 520.546875 405.972656 520.550781 408.035156 C 520.59375 426.402344 520.597656 440.070312 520.570312 449.039062 C 520.566406 450.808594 520.5625 451.714844 520.5625 451.761719 C 520.558594 452.136719 520.355469 452.324219 519.941406 452.324219 C 510.304688 452.324219 501.605469 452.328125 493.832031 452.332031 C 493.113281 452.332031 493.050781 451.953125 493.050781 451.308594 C 493.058594 421.867188 493.054688 396.183594 493.050781 374.25 C 493.050781 373.558594 493.074219 373.101562 493.125 372.886719 C 493.132812 372.84375 493.152344 372.804688 493.179688 372.773438 C 493.210938 372.738281 493.246094 372.714844 493.289062 372.699219 C 493.375 372.667969 493.703125 372.652344 494.269531 372.65625 C 506.875 372.679688 515.089844 372.683594 518.914062 372.65625 C 519.480469 372.652344 519.953125 372.707031 520.328125 372.8125 C 520.40625 372.835938 520.46875 372.882812 520.519531 372.945312 C 520.566406 373.007812 520.59375 373.085938 520.59375 373.164062 L 520.59375 380.320312 C 520.59375 380.382812 520.605469 380.449219 520.632812 380.507812 C 520.660156 380.566406 520.703125 380.621094 520.75 380.660156 C 520.800781 380.703125 520.859375 380.734375 520.921875 380.753906 C 520.984375 380.769531 521.050781 380.773438 521.117188 380.761719 C 521.34375 380.726562 521.5625 380.585938 521.769531 380.347656 C 523.273438 378.609375 524.808594 377.433594 526.957031 375.917969 C 534.191406 370.816406 542.21875 369.171875 551.039062 370.988281 C 556.273438 372.066406 561.445312 373.960938 565.578125 377.476562 C 567.902344 379.453125 569.792969 381.769531 571.25 384.421875 C 571.28125 384.484375 571.328125 384.535156 571.390625 384.574219 C 571.445312 384.609375 571.511719 384.632812 571.582031 384.640625 C 571.648438 384.644531 571.71875 384.632812 571.777344 384.609375 C 571.84375 384.582031 571.898438 384.539062 571.941406 384.484375 C 574.671875 381.070312 577.84375 378.125 581.464844 375.648438 C 586.722656 372.046875 592.304688 370.253906 598.214844 370.273438 Z M 475.503906 318.765625 C 475.75 318.765625 475.953125 318.964844 475.953125 319.214844 L 475.953125 451.878906 C 475.953125 452.128906 475.75 452.328125 475.503906 452.328125 L 448.875 452.328125 C 448.628906 452.328125 448.425781 452.128906 448.425781 451.878906 L 448.425781 319.214844 C 448.425781 318.964844 448.628906 318.765625 448.875 318.765625 Z M 293.921875 395.875 C 290.707031 394.152344 286.964844 393.605469 283.269531 393.820312 C 279.585938 394.03125 276.285156 395.078125 273.410156 397.226562 C 269.945312 399.816406 267.707031 403.1875 266.683594 407.347656 C 265.289062 413.046875 266.214844 419.753906 270.085938 424.390625 C 274.238281 429.367188 279.613281 431.609375 286.21875 431.117188 C 290.65625 430.785156 294.429688 429.152344 297.535156 426.210938 C 302.402344 421.597656 303.859375 415.351562 302.929688 408.84375 C 302.128906 403.242188 298.855469 398.519531 293.921875 395.875 Z M 400.414062 400.566406 C 396.257812 395.59375 390.882812 393.351562 384.277344 393.839844 C 379.839844 394.171875 376.070312 395.808594 372.964844 398.75 C 368.097656 403.359375 366.640625 409.605469 367.570312 416.113281 C 368.371094 421.71875 371.644531 426.4375 376.578125 429.082031 C 379.792969 430.804688 383.535156 431.351562 387.226562 431.136719 C 390.910156 430.925781 394.214844 429.878906 397.089844 427.730469 C 400.546875 425.144531 402.789062 421.769531 403.808594 417.609375 C 405.207031 411.914062 404.285156 405.207031 400.414062 400.566406 Z M 400.414062 400.566406 " fill-opacity="1" fill-rule="nonzero"/></g></svg>