<svg xmlns="http://www.w3.org/2000/svg" xmlns:xlink="http://www.w3.org/1999/xlink" width="860" zoomAndPan="magnify" viewBox="0 0 645 177.000001" height="236" preserveAspectRatio="xMidYMid meet" version="1.0"><defs><clipPath id="70d756e5af"><path d="M 1.8125 0 L 643.1875 0 L 643.1875 176 L 1.8125 176 Z M 1.8125 0 " clip-rule="nonzero"/></clipPath></defs><g clip-path="url(#70d756e5af)"><path fill="#2f205b" d="M 37.191406 0.683594 C 37.523438 0.613281 38 0.609375 38.621094 0.675781 C 40.691406 0.894531 42.878906 1.03125 45.105469 1.460938 C 56.453125 3.660156 66.578125 10.292969 73.019531 19.921875 C 73.09375 20.03125 73.175781 20.085938 73.265625 20.085938 C 73.355469 20.085938 73.4375 20.03125 73.511719 19.921875 C 79.953125 10.292969 90.082031 3.660156 101.429688 1.464844 C 103.65625 1.035156 105.84375 0.898438 107.914062 0.675781 C 108.53125 0.613281 109.007812 0.617188 109.339844 0.683594 C 109.445312 0.707031 109.539062 0.765625 109.605469 0.847656 C 109.675781 0.933594 109.710938 1.035156 109.710938 1.144531 C 109.703125 7.976562 109.703125 12.503906 109.707031 14.71875 C 109.707031 15.085938 109.496094 15.269531 109.078125 15.277344 C 104.589844 15.359375 100.28125 16.480469 96.15625 18.636719 C 92.761719 20.414062 89.746094 23.011719 87.148438 26.035156 C 86.554688 26.722656 85.980469 27.492188 85.433594 28.335938 C 85.414062 28.367188 85.402344 28.40625 85.398438 28.441406 C 85.394531 28.480469 85.398438 28.519531 85.410156 28.554688 C 85.425781 28.589844 85.445312 28.621094 85.472656 28.644531 C 85.5 28.671875 85.535156 28.691406 85.570312 28.699219 C 85.773438 28.753906 85.964844 28.71875 86.140625 28.59375 C 86.722656 28.183594 87.792969 27.570312 89.351562 26.761719 C 89.925781 26.460938 91.109375 25.984375 92.902344 25.332031 C 94.328125 24.8125 95.539062 24.417969 96.535156 24.152344 C 106.074219 21.589844 115.472656 22.175781 124.730469 25.914062 C 129.898438 27.996094 134.289062 31.152344 138.371094 34.753906 C 138.859375 35.179688 138.675781 35.46875 138.257812 35.898438 C 135.378906 38.851562 132.273438 41.976562 128.941406 45.261719 C 128.652344 45.546875 128.390625 45.574219 128.152344 45.347656 C 122.992188 40.382812 116.855469 37.683594 109.746094 37.25 C 103.78125 36.882812 98.230469 38.226562 93.085938 41.273438 C 93.035156 41.304688 92.992188 41.347656 92.964844 41.398438 C 92.9375 41.449219 92.921875 41.507812 92.921875 41.570312 C 92.925781 41.628906 92.941406 41.6875 92.972656 41.738281 C 93.003906 41.789062 93.046875 41.828125 93.101562 41.859375 C 97.394531 44.171875 101.515625 47.152344 104.863281 50.667969 C 110.214844 56.296875 113.847656 62.90625 115.761719 70.5 C 116.492188 73.394531 116.808594 76.53125 117.019531 79.347656 C 117.058594 79.855469 117.035156 80.25 116.949219 80.53125 C 116.925781 80.609375 116.875 80.679688 116.808594 80.730469 C 116.738281 80.78125 116.65625 80.804688 116.574219 80.804688 L 102.886719 80.804688 C 102.761719 80.804688 102.640625 80.757812 102.550781 80.671875 C 102.460938 80.582031 102.410156 80.464844 102.40625 80.339844 C 102.078125 68.265625 94.824219 58.117188 83.613281 53.679688 C 82.566406 53.265625 81.847656 53.003906 80.96875 52.878906 C 80.914062 52.871094 80.863281 52.875 80.8125 52.886719 C 80.761719 52.902344 80.714844 52.925781 80.675781 52.960938 C 80.636719 52.996094 80.605469 53.039062 80.582031 53.085938 C 80.558594 53.136719 80.546875 53.1875 80.546875 53.238281 L 80.546875 145.15625 C 80.546875 145.300781 80.601562 145.441406 80.703125 145.546875 C 80.800781 145.652344 80.933594 145.71875 81.078125 145.726562 C 86.425781 146.117188 91.878906 146.976562 97.4375 148.308594 C 114.167969 152.308594 129.914062 160.492188 142.570312 172.171875 C 143.566406 173.089844 144.773438 173.96875 145.484375 174.917969 C 145.605469 175.078125 145.667969 175.167969 145.675781 175.191406 C 145.683594 175.234375 145.6875 175.277344 145.679688 175.320312 C 145.667969 175.363281 145.652344 175.402344 145.625 175.4375 C 145.597656 175.46875 145.5625 175.5 145.523438 175.515625 C 145.484375 175.535156 145.441406 175.546875 145.398438 175.546875 C 139.453125 175.496094 132.523438 175.484375 124.609375 175.511719 C 123.789062 175.515625 123.074219 175.3125 122.464844 174.910156 C 109.507812 166.265625 95.28125 161.351562 79.792969 160.171875 C 78.003906 160.035156 75.828125 159.964844 73.261719 159.964844 C 70.695312 159.964844 68.515625 160.035156 66.730469 160.171875 C 51.238281 161.347656 37.011719 166.261719 24.054688 174.90625 C 23.449219 175.308594 22.734375 175.511719 21.910156 175.507812 C 14 175.480469 7.070312 175.492188 1.121094 175.539062 C 1.078125 175.539062 1.035156 175.53125 0.996094 175.511719 C 0.957031 175.492188 0.921875 175.464844 0.898438 175.429688 C 0.871094 175.398438 0.851562 175.355469 0.84375 175.3125 C 0.835938 175.273438 0.835938 175.226562 0.847656 175.183594 C 0.851562 175.164062 0.917969 175.074219 1.035156 174.910156 C 1.75 173.964844 2.953125 173.085938 3.953125 172.167969 C 16.609375 160.488281 32.355469 152.308594 49.085938 148.304688 C 54.644531 146.976562 60.097656 146.117188 65.445312 145.726562 C 65.589844 145.71875 65.722656 145.652344 65.820312 145.546875 C 65.917969 145.441406 65.976562 145.300781 65.976562 145.15625 L 65.980469 53.238281 C 65.980469 53.1875 65.972656 53.136719 65.949219 53.085938 C 65.925781 53.039062 65.894531 52.996094 65.855469 52.960938 C 65.816406 52.925781 65.769531 52.902344 65.71875 52.886719 C 65.667969 52.871094 65.613281 52.871094 65.5625 52.878906 C 64.683594 53.003906 63.964844 53.265625 62.917969 53.679688 C 51.703125 58.117188 44.449219 68.261719 44.121094 80.335938 C 44.117188 80.460938 44.066406 80.582031 43.976562 80.667969 C 43.886719 80.753906 43.765625 80.804688 43.640625 80.804688 L 29.953125 80.804688 C 29.871094 80.804688 29.789062 80.777344 29.722656 80.726562 C 29.65625 80.675781 29.605469 80.609375 29.578125 80.527344 C 29.492188 80.246094 29.46875 79.851562 29.507812 79.34375 C 29.71875 76.527344 30.035156 73.390625 30.765625 70.5 C 32.679688 62.90625 36.3125 56.292969 41.667969 50.667969 C 45.011719 47.148438 49.132812 44.167969 53.429688 41.855469 C 53.484375 41.828125 53.527344 41.785156 53.558594 41.734375 C 53.589844 41.683594 53.605469 41.625 53.609375 41.566406 C 53.609375 41.507812 53.59375 41.449219 53.566406 41.394531 C 53.535156 41.34375 53.496094 41.300781 53.445312 41.269531 C 48.300781 38.222656 42.746094 36.878906 36.785156 37.246094 C 29.675781 37.679688 23.539062 40.378906 18.378906 45.34375 C 18.140625 45.570312 17.878906 45.542969 17.589844 45.257812 C 14.257812 41.96875 11.152344 38.847656 8.273438 35.890625 C 7.855469 35.464844 7.671875 35.175781 8.160156 34.75 C 12.242188 31.144531 16.632812 27.992188 21.800781 25.90625 C 31.058594 22.171875 40.457031 21.585938 49.996094 24.148438 C 50.996094 24.417969 52.207031 24.8125 53.632812 25.332031 C 55.421875 25.984375 56.605469 26.460938 57.179688 26.761719 C 58.738281 27.570312 59.808594 28.183594 60.386719 28.59375 C 60.566406 28.71875 60.757812 28.753906 60.960938 28.699219 C 60.996094 28.691406 61.03125 28.671875 61.058594 28.644531 C 61.085938 28.621094 61.105469 28.589844 61.121094 28.554688 C 61.132812 28.519531 61.136719 28.480469 61.132812 28.441406 C 61.128906 28.40625 61.117188 28.367188 61.097656 28.335938 C 60.550781 27.492188 59.976562 26.722656 59.382812 26.035156 C 56.785156 23.011719 53.769531 20.410156 50.375 18.632812 C 46.25 16.476562 41.945312 15.359375 37.457031 15.277344 C 37.035156 15.269531 36.824219 15.082031 36.824219 14.71875 C 36.832031 12.5 36.828125 7.976562 36.824219 1.140625 C 36.824219 1.035156 36.859375 0.929688 36.925781 0.847656 C 36.992188 0.761719 37.089844 0.703125 37.191406 0.683594 Z M 195.84375 55.875 C 202.199219 53.394531 209.382812 52.859375 216.136719 54.011719 C 219.527344 54.589844 222.515625 55.457031 225.105469 56.613281 C 232.082031 59.726562 237.773438 64.976562 241.925781 71.429688 C 246.851562 79.085938 248.808594 87.921875 248.539062 97.003906 C 248.1875 108.925781 243.613281 119.726562 234.738281 127.820312 C 229.757812 132.359375 223.976562 135.265625 217.390625 136.539062 C 212.40625 137.503906 207.359375 137.589844 202.25 136.800781 C 196.039062 135.839844 190.5 133.441406 185.644531 129.609375 C 185.03125 129.125 184.515625 128.632812 184.09375 128.128906 C 184.007812 128.023438 183.878906 127.957031 183.742188 127.9375 C 183.601562 127.917969 183.457031 127.953125 183.339844 128.027344 C 183.1875 128.125 183.117188 128.277344 183.125 128.484375 C 183.234375 130.726562 183.285156 132.945312 183.285156 135.148438 C 183.257812 158.109375 183.238281 169.886719 183.230469 170.480469 C 183.203125 172.980469 183.191406 174.335938 183.1875 174.542969 C 183.183594 175.003906 182.960938 175.242188 182.511719 175.253906 C 182.160156 175.265625 181.707031 175.269531 181.15625 175.265625 C 170.761719 175.214844 162.707031 175.207031 156.996094 175.246094 C 156.625 175.246094 156.367188 175.183594 156.214844 175.054688 C 156.019531 174.882812 155.917969 174.632812 155.917969 174.300781 C 155.910156 171.917969 155.910156 169.390625 155.914062 166.71875 C 155.992188 132.3125 156.011719 97.796875 155.96875 63.171875 C 155.96875 62.328125 155.953125 61.273438 155.925781 60.015625 C 155.894531 58.429688 155.773438 57.160156 156.011719 56.128906 C 156.023438 56.082031 156.046875 56.035156 156.078125 56 C 156.113281 55.964844 156.15625 55.9375 156.203125 55.921875 C 156.410156 55.855469 156.691406 55.820312 157.046875 55.820312 C 167.246094 55.824219 175.339844 55.828125 181.335938 55.824219 C 181.773438 55.824219 182.1875 55.863281 182.582031 55.9375 C 182.695312 55.960938 182.796875 56.019531 182.871094 56.109375 C 182.945312 56.199219 182.988281 56.3125 182.988281 56.429688 C 182.984375 59.136719 182.957031 61.625 182.910156 63.894531 C 182.910156 64.007812 182.949219 64.113281 183.023438 64.195312 C 183.097656 64.277344 183.199219 64.328125 183.304688 64.332031 C 183.574219 64.339844 183.832031 64.214844 184.074219 63.949219 C 187.441406 60.316406 191.367188 57.625 195.84375 55.875 Z M 284.730469 54.363281 C 291.851562 52.878906 298.871094 53.167969 305.789062 55.234375 C 309.574219 56.363281 313.132812 58.203125 316.46875 60.75 C 316.972656 61.132812 317.355469 61.460938 317.613281 61.730469 C 318.0625 62.191406 318.59375 62.828125 319 62.945312 C 319.046875 62.960938 319.097656 62.957031 319.144531 62.941406 C 319.191406 62.921875 319.226562 62.890625 319.253906 62.847656 C 319.371094 62.660156 319.449219 62.394531 319.484375 62.050781 C 319.496094 61.910156 319.480469 60.171875 319.429688 56.84375 C 319.429688 56.675781 319.46875 56.433594 319.558594 56.113281 C 319.582031 56.03125 319.632812 55.957031 319.703125 55.90625 C 319.769531 55.851562 319.855469 55.824219 319.941406 55.824219 C 328.832031 55.824219 337.597656 55.824219 346.230469 55.828125 C 346.652344 55.828125 346.863281 56.023438 346.863281 56.410156 C 346.828125 83.710938 346.828125 109.765625 346.867188 134.574219 C 346.867188 134.636719 346.855469 134.695312 346.832031 134.753906 C 346.808594 134.8125 346.773438 134.863281 346.730469 134.90625 C 346.6875 134.949219 346.636719 134.984375 346.582031 135.007812 C 346.523438 135.03125 346.460938 135.042969 346.398438 135.042969 C 339.03125 135.054688 330.445312 135.058594 320.644531 135.054688 C 320.207031 135.054688 319.914062 134.890625 319.765625 134.570312 C 319.734375 134.503906 319.71875 134.433594 319.71875 134.363281 C 319.765625 131.273438 319.792969 128.796875 319.796875 126.933594 C 319.796875 126.722656 319.769531 126.570312 319.710938 126.476562 C 319.679688 126.421875 319.632812 126.378906 319.578125 126.347656 C 319.523438 126.3125 319.457031 126.296875 319.390625 126.292969 C 319.324219 126.292969 319.257812 126.304688 319.195312 126.332031 C 319.132812 126.359375 319.078125 126.402344 319.035156 126.453125 C 317.945312 127.722656 316.640625 128.953125 315.128906 130.148438 C 308.453125 135.433594 300.226562 137.71875 291.773438 137.308594 C 284.984375 136.980469 278.554688 135.292969 272.808594 131.605469 C 263.285156 125.488281 256.773438 115.242188 254.875 104.121094 C 254.21875 100.257812 253.984375 96.5 254.179688 92.851562 C 254.265625 91.183594 254.523438 88.972656 254.949219 86.226562 C 255.191406 84.644531 255.78125 82.5 256.710938 79.789062 C 259.039062 72.992188 263.507812 66.746094 269.035156 62.042969 C 273.609375 58.152344 278.84375 55.59375 284.730469 54.363281 Z M 616.5 55.828125 C 631.3125 55.828125 639.984375 55.828125 642.515625 55.828125 C 642.632812 55.828125 642.742188 55.867188 642.835938 55.941406 C 642.921875 56.011719 642.988281 56.113281 643.015625 56.222656 C 643.0625 56.425781 643.082031 56.773438 643.085938 57.273438 C 643.089844 58.289062 643.082031 72.699219 643.070312 100.496094 C 643.0625 108.488281 641.664062 117.054688 637.140625 123.753906 C 630.488281 133.605469 617.792969 136.347656 606.65625 137.101562 C 604.222656 137.265625 602.042969 137.347656 600.117188 137.347656 C 598.195312 137.347656 596.011719 137.265625 593.578125 137.101562 C 582.445312 136.347656 569.75 133.605469 563.097656 123.753906 C 558.574219 117.054688 557.171875 108.488281 557.167969 100.496094 C 557.15625 72.699219 557.148438 58.289062 557.152344 57.273438 C 557.152344 56.773438 557.175781 56.425781 557.222656 56.222656 C 557.25 56.113281 557.3125 56.011719 557.402344 55.941406 C 557.492188 55.867188 557.605469 55.828125 557.722656 55.828125 C 560.25 55.828125 568.921875 55.828125 583.734375 55.828125 C 584.273438 55.828125 584.542969 56.082031 584.539062 56.597656 C 584.519531 65.082031 584.511719 75.851562 584.519531 88.90625 C 584.519531 92.417969 584.546875 94.984375 584.597656 96.605469 C 584.707031 100.109375 585.28125 103.464844 586.332031 106.671875 C 587.761719 111.054688 591.136719 113.832031 595.621094 114.695312 C 597.164062 114.992188 598.609375 115.066406 600.117188 115.066406 C 601.625 115.066406 603.070312 114.992188 604.613281 114.695312 C 609.101562 113.832031 612.472656 111.054688 613.90625 106.671875 C 614.953125 103.464844 615.53125 100.109375 615.640625 96.605469 C 615.691406 94.984375 615.71875 92.417969 615.71875 88.90625 C 615.726562 75.851562 615.71875 65.082031 615.695312 56.597656 C 615.695312 56.082031 615.964844 55.828125 616.5 55.828125 Z M 512.648438 53.441406 C 516.566406 53.449219 520.457031 54.078125 524.320312 55.328125 C 527.988281 56.511719 531.441406 58.40625 534.679688 61.015625 C 537.222656 63.066406 539.164062 65.582031 540.5 68.5625 C 541.410156 70.589844 542.136719 72.574219 542.535156 74.777344 C 543.046875 77.597656 543.304688 79.984375 543.304688 81.9375 C 543.304688 106.457031 543.308594 124.003906 543.324219 134.582031 C 543.324219 134.695312 543.28125 134.804688 543.207031 134.890625 C 543.132812 134.976562 543.03125 135.03125 542.917969 135.046875 C 542.851562 135.058594 542.582031 135.0625 542.105469 135.0625 C 535.398438 135.042969 526.863281 135.046875 516.503906 135.074219 C 516.269531 135.074219 516.101562 134.988281 516.003906 134.820312 C 515.9375 134.710938 515.90625 134.519531 515.90625 134.246094 C 515.953125 109.820312 515.957031 94.902344 515.914062 89.492188 C 515.890625 86.546875 515.101562 83.808594 513.550781 81.28125 C 511.40625 77.796875 508.25 75.878906 504.070312 75.527344 C 501.375 75.296875 498.777344 75.445312 496.433594 76.464844 C 491.765625 78.496094 489.339844 83.730469 489.34375 88.71875 C 489.351562 105.558594 489.347656 120.828125 489.328125 134.53125 C 489.328125 134.867188 489.101562 135.035156 488.644531 135.035156 C 479.769531 135.050781 471.527344 135.058594 463.921875 135.066406 C 463.898438 135.066406 463.496094 135.078125 462.710938 135.101562 C 462.597656 135.105469 462.492188 135.074219 462.398438 135.019531 C 462.304688 134.960938 462.230469 134.875 462.183594 134.777344 C 462.078125 134.558594 462.023438 134.269531 462.027344 133.910156 C 462.042969 121.929688 462.046875 107.609375 462.042969 90.953125 C 462.042969 87.25 461.460938 84.152344 459.507812 81.046875 C 456.242188 75.855469 450.261719 74.652344 444.546875 75.8125 C 439.78125 76.785156 436.421875 81.28125 435.769531 85.835938 C 435.566406 87.226562 435.472656 88.949219 435.476562 91 C 435.515625 109.269531 435.523438 122.863281 435.496094 131.78125 C 435.488281 133.542969 435.488281 134.445312 435.488281 134.492188 C 435.484375 134.867188 435.28125 135.054688 434.871094 135.054688 C 425.296875 135.050781 416.648438 135.054688 408.925781 135.0625 C 408.210938 135.0625 408.148438 134.679688 408.148438 134.039062 C 408.15625 104.757812 408.15625 79.210938 408.148438 57.398438 C 408.148438 56.707031 408.171875 56.253906 408.222656 56.042969 C 408.230469 56 408.25 55.960938 408.277344 55.925781 C 408.308594 55.894531 408.34375 55.871094 408.382812 55.855469 C 408.46875 55.824219 408.796875 55.808594 409.359375 55.808594 C 421.886719 55.835938 430.046875 55.835938 433.847656 55.8125 C 434.410156 55.808594 434.878906 55.859375 435.253906 55.96875 C 435.332031 55.988281 435.394531 56.035156 435.445312 56.097656 C 435.492188 56.160156 435.515625 56.238281 435.515625 56.316406 L 435.515625 63.433594 C 435.515625 63.496094 435.53125 63.5625 435.558594 63.621094 C 435.585938 63.679688 435.625 63.730469 435.675781 63.773438 C 435.722656 63.816406 435.78125 63.847656 435.84375 63.863281 C 435.90625 63.882812 435.972656 63.886719 436.035156 63.875 C 436.265625 63.835938 436.480469 63.699219 436.6875 63.460938 C 438.183594 61.730469 439.707031 60.5625 441.839844 59.054688 C 449.03125 53.980469 457.007812 52.347656 465.769531 54.152344 C 470.972656 55.222656 476.113281 57.105469 480.214844 60.605469 C 482.527344 62.574219 484.40625 64.875 485.855469 67.515625 C 485.886719 67.574219 485.933594 67.625 485.992188 67.664062 C 486.050781 67.699219 486.113281 67.722656 486.183594 67.730469 C 486.25 67.734375 486.316406 67.726562 486.378906 67.699219 C 486.445312 67.671875 486.5 67.628906 486.539062 67.578125 C 489.253906 64.179688 492.40625 61.25 496.003906 58.785156 C 501.230469 55.207031 506.777344 53.421875 512.648438 53.441406 Z M 390.710938 2.207031 C 390.960938 2.207031 391.160156 2.410156 391.160156 2.65625 L 391.160156 134.609375 C 391.160156 134.855469 390.960938 135.054688 390.710938 135.054688 L 364.253906 135.054688 C 364.007812 135.054688 363.808594 134.855469 363.808594 134.609375 L 363.808594 2.65625 C 363.808594 2.410156 364.007812 2.207031 364.253906 2.207031 Z M 210.277344 78.90625 C 207.085938 77.191406 203.363281 76.648438 199.695312 76.859375 C 196.035156 77.070312 192.753906 78.113281 189.894531 80.25 C 186.457031 82.824219 184.226562 86.179688 183.214844 90.316406 C 181.828125 95.984375 182.746094 102.65625 186.59375 107.265625 C 190.71875 112.214844 196.0625 114.445312 202.625 113.957031 C 207.035156 113.628906 210.785156 112.003906 213.867188 109.078125 C 218.707031 104.492188 220.152344 98.277344 219.226562 91.804688 C 218.433594 86.230469 215.179688 81.535156 210.277344 78.90625 Z M 316.097656 83.574219 C 311.96875 78.625 306.628906 76.394531 300.066406 76.882812 C 295.65625 77.210938 291.90625 78.839844 288.820312 81.761719 C 283.984375 86.351562 282.535156 92.5625 283.460938 99.035156 C 284.253906 104.609375 287.507812 109.300781 292.410156 111.933594 C 295.605469 113.648438 299.324219 114.191406 302.996094 113.976562 C 306.65625 113.765625 309.9375 112.726562 312.792969 110.589844 C 316.230469 108.015625 318.457031 104.660156 319.472656 100.523438 C 320.859375 94.855469 319.945312 88.183594 316.097656 83.574219 Z M 316.097656 83.574219 " fill-opacity="1" fill-rule="nonzero"/></g></svg>