<svg xmlns="http://www.w3.org/2000/svg" xmlns:xlink="http://www.w3.org/1999/xlink" width="432" zoomAndPan="magnify" viewBox="0 0 324 69.749997" height="93" preserveAspectRatio="xMidYMid meet" version="1.0"><defs><clipPath id="2ba43f62a2"><path d="M 1 0 L 70 0 L 70 69.5 L 1 69.5 Z M 1 0 " clip-rule="nonzero"/></clipPath></defs><path fill="#ffffff" d="M 114.40625 33.960938 C 113.320312 33.238281 112.191406 32.71875 111.085938 32.414062 C 110.003906 32.070312 109.148438 31.839844 108.539062 31.71875 C 106.480469 31.191406 104.800781 30.765625 103.507812 30.421875 C 102.261719 30.089844 101.265625 29.746094 100.546875 29.414062 C 99.882812 29.089844 99.421875 28.746094 99.199219 28.375 C 98.976562 28.003906 98.859375 27.515625 98.859375 26.902344 C 98.859375 26.234375 99.003906 25.679688 99.28125 25.253906 C 99.578125 24.820312 99.945312 24.441406 100.382812 24.152344 C 100.851562 23.855469 101.378906 23.652344 101.929688 23.53125 C 102.503906 23.410156 103.074219 23.347656 103.648438 23.347656 C 104.523438 23.347656 105.335938 23.421875 106.054688 23.578125 C 106.792969 23.726562 107.457031 23.984375 108.019531 24.335938 C 108.574219 24.691406 109.019531 25.171875 109.339844 25.800781 C 109.691406 26.421875 109.902344 27.21875 109.960938 28.171875 L 109.960938 28.355469 L 117.371094 28.355469 L 117.371094 28.164062 C 117.371094 26.226562 116.992188 24.558594 116.246094 23.207031 C 115.523438 21.828125 114.527344 20.679688 113.273438 19.800781 C 112.027344 18.917969 110.578125 18.289062 108.964844 17.917969 C 106.027344 17.167969 102.714844 17.050781 99.496094 17.917969 C 98 18.328125 96.644531 18.957031 95.460938 19.800781 C 94.273438 20.652344 93.292969 21.726562 92.546875 23.011719 C 91.824219 24.273438 91.457031 25.78125 91.457031 27.515625 C 91.457031 29.050781 91.742188 30.394531 92.316406 31.503906 C 92.914062 32.570312 93.691406 33.488281 94.628906 34.210938 C 95.5625 34.921875 96.632812 35.523438 97.824219 35.996094 C 98.988281 36.421875 100.207031 36.804688 101.441406 37.117188 C 102.652344 37.460938 103.851562 37.773438 105.003906 38.042969 C 106.15625 38.3125 107.199219 38.636719 108.113281 39.007812 C 109.007812 39.367188 109.730469 39.820312 110.265625 40.359375 C 110.808594 40.878906 111.074219 41.542969 111.074219 42.394531 C 111.074219 43.183594 110.871094 43.839844 110.476562 44.359375 C 110.070312 44.859375 109.542969 45.257812 108.925781 45.554688 C 108.296875 45.851562 107.617188 46.0625 106.90625 46.183594 C 106.175781 46.277344 105.492188 46.324219 104.855469 46.324219 C 103.925781 46.324219 103 46.210938 102.144531 46.007812 C 101.277344 45.765625 100.5 45.414062 99.855469 44.980469 C 99.234375 44.507812 98.730469 43.886719 98.339844 43.148438 C 97.953125 42.40625 97.757812 41.488281 97.757812 40.414062 L 97.757812 40.21875 L 90.347656 40.21875 L 90.347656 40.414062 C 90.3125 42.480469 90.699219 44.285156 91.476562 45.785156 C 92.25 47.285156 93.3125 48.546875 94.628906 49.519531 C 95.96875 50.480469 97.511719 51.195312 99.21875 51.628906 C 100.953125 52.09375 102.753906 52.332031 104.578125 52.332031 C 106.839844 52.332031 108.84375 52.066406 110.542969 51.535156 C 112.285156 51.007812 113.742188 50.257812 114.898438 49.324219 C 116.085938 48.351562 116.992188 47.195312 117.582031 45.871094 C 118.171875 44.554688 118.476562 43.109375 118.476562 41.570312 C 118.476562 39.691406 118.0625 38.128906 117.25 36.921875 C 116.464844 35.699219 115.515625 34.71875 114.425781 33.996094 Z M 114.40625 33.960938 " fill-opacity="1" fill-rule="nonzero"/><path fill="#ffffff" d="M 138.632812 42.15625 C 138.429688 43.589844 137.902344 44.75 137.070312 45.609375 C 136.289062 46.433594 135.117188 46.851562 133.613281 46.851562 C 132.640625 46.851562 131.800781 46.628906 131.140625 46.183594 C 130.457031 45.738281 129.902344 45.164062 129.496094 44.5 C 129.109375 43.777344 128.820312 42.96875 128.636719 42.101562 C 128.453125 41.21875 128.359375 40.351562 128.359375 39.496094 C 128.359375 38.644531 128.453125 37.730469 128.636719 36.847656 C 128.820312 35.949219 129.117188 35.125 129.53125 34.414062 C 129.976562 33.671875 130.546875 33.070312 131.230469 32.617188 C 131.902344 32.152344 132.742188 31.914062 133.75 31.914062 C 136.464844 31.914062 137.984375 33.210938 138.402344 35.867188 L 138.429688 36.035156 L 145.222656 36.035156 L 145.222656 35.820312 C 145.109375 34.257812 144.730469 32.886719 144.078125 31.753906 C 143.421875 30.589844 142.542969 29.617188 141.484375 28.867188 C 140.449219 28.078125 139.25 27.496094 137.910156 27.117188 C 136.609375 26.746094 135.226562 26.550781 133.796875 26.550781 C 131.839844 26.550781 130.078125 26.882812 128.554688 27.542969 C 127.023438 28.199219 125.710938 29.136719 124.660156 30.320312 C 123.597656 31.476562 122.777344 32.886719 122.214844 34.515625 C 121.6875 36.097656 121.421875 37.847656 121.421875 39.71875 C 121.421875 41.589844 121.714844 43.21875 122.308594 44.75 C 122.898438 46.25 123.738281 47.5625 124.796875 48.65625 C 125.859375 49.75 127.152344 50.621094 128.65625 51.25 C 130.179688 51.84375 131.867188 52.140625 133.667969 52.140625 C 136.871094 52.140625 139.535156 51.285156 141.59375 49.59375 C 143.652344 47.898438 144.914062 45.414062 145.359375 42.191406 L 145.386719 41.96875 L 138.667969 41.96875 L 138.640625 42.136719 Z M 138.632812 42.15625 " fill-opacity="1" fill-rule="nonzero"/><path fill="#ffffff" d="M 171.113281 49.101562 C 170.996094 48.121094 170.929688 47.082031 170.929688 46.027344 L 170.929688 33.570312 C 170.929688 32.078125 170.589844 30.875 169.925781 29.976562 C 169.261719 29.0625 168.402344 28.339844 167.359375 27.828125 C 166.335938 27.328125 165.171875 26.996094 163.933594 26.839844 C 161.34375 26.449219 158.777344 26.449219 156.257812 26.976562 C 154.945312 27.226562 153.746094 27.671875 152.6875 28.300781 C 151.617188 28.929688 150.730469 29.773438 150.039062 30.820312 C 149.34375 31.867188 148.949219 33.191406 148.847656 34.765625 L 148.847656 34.976562 L 155.777344 34.976562 L 155.796875 34.800781 C 155.914062 33.570312 156.320312 32.679688 157.015625 32.164062 C 157.714844 31.636719 158.703125 31.367188 159.941406 31.367188 C 160.511719 31.367188 161.039062 31.414062 161.535156 31.503906 C 162.023438 31.5625 162.449219 31.710938 162.800781 31.949219 C 163.167969 32.144531 163.4375 32.441406 163.648438 32.847656 C 163.871094 33.21875 163.992188 33.746094 163.992188 34.421875 C 164.019531 35.042969 163.84375 35.507812 163.464844 35.832031 C 163.058594 36.15625 162.496094 36.40625 161.785156 36.582031 C 161.054688 36.765625 160.21875 36.90625 159.273438 36.996094 C 158.324219 37.089844 157.347656 37.210938 156.359375 37.367188 C 155.371094 37.523438 154.367188 37.738281 153.386719 38.015625 C 152.417969 38.265625 151.523438 38.664062 150.738281 39.203125 C 149.984375 39.738281 149.335938 40.480469 148.828125 41.394531 C 148.359375 42.285156 148.117188 43.441406 148.117188 44.824219 C 148.117188 46.082031 148.320312 47.183594 148.734375 48.101562 C 149.179688 49.019531 149.789062 49.796875 150.546875 50.398438 C 151.300781 51 152.195312 51.445312 153.203125 51.730469 C 154.199219 52.007812 155.289062 52.15625 156.441406 52.15625 C 157.929688 52.15625 159.414062 51.933594 160.835938 51.5 C 162.144531 51.101562 163.308594 50.417969 164.3125 49.472656 C 164.339844 49.742188 164.378906 50.007812 164.425781 50.285156 C 164.515625 50.65625 164.628906 51.035156 164.757812 51.417969 L 164.800781 51.554688 L 171.945312 51.554688 L 171.761719 51.25 C 171.464844 50.777344 171.261719 50.054688 171.144531 49.109375 Z M 163.980469 40.035156 L 163.980469 42.089844 C 163.980469 42.453125 163.933594 42.941406 163.84375 43.554688 C 163.789062 44.136719 163.59375 44.738281 163.269531 45.324219 C 162.949219 45.878906 162.449219 46.371094 161.765625 46.785156 C 161.09375 47.195312 160.117188 47.40625 158.867188 47.40625 C 158.363281 47.40625 157.863281 47.359375 157.382812 47.269531 C 156.914062 47.175781 156.496094 47.035156 156.164062 46.832031 C 155.824219 46.601562 155.546875 46.296875 155.351562 45.933594 C 155.148438 45.5625 155.046875 45.089844 155.046875 44.542969 C 155.046875 43.960938 155.148438 43.480469 155.34375 43.109375 C 155.546875 42.738281 155.804688 42.433594 156.117188 42.203125 C 156.46875 41.933594 156.867188 41.730469 157.308594 41.582031 C 157.796875 41.433594 158.289062 41.304688 158.757812 41.21875 C 159.265625 41.128906 159.792969 41.054688 160.316406 40.988281 C 160.84375 40.925781 161.351562 40.851562 161.804688 40.757812 C 162.300781 40.664062 162.761719 40.554688 163.167969 40.425781 C 163.464844 40.3125 163.730469 40.183594 163.964844 40.035156 Z M 163.980469 40.035156 " fill-opacity="1" fill-rule="nonzero"/><path fill="#ffffff" d="M 197.066406 29.375 C 196.402344 28.488281 195.46875 27.792969 194.304688 27.320312 C 193.179688 26.820312 191.703125 26.558594 189.929688 26.558594 C 188.519531 26.558594 187.125 26.894531 185.789062 27.550781 C 184.550781 28.125 183.519531 29.042969 182.695312 30.28125 L 182.695312 27.21875 L 176.070312 27.21875 L 176.070312 51.554688 L 183.019531 51.554688 L 183.019531 38.804688 C 183.019531 36.421875 183.40625 34.699219 184.183594 33.691406 C 184.9375 32.671875 186.195312 32.152344 187.902344 32.152344 C 189.414062 32.152344 190.429688 32.609375 191.011719 33.542969 C 191.601562 34.460938 191.90625 35.90625 191.90625 37.839844 L 191.90625 51.566406 L 198.855469 51.566406 L 198.855469 36.636719 C 198.855469 35.144531 198.714844 33.773438 198.441406 32.570312 C 198.191406 31.3125 197.730469 30.238281 197.066406 29.386719 Z M 197.066406 29.375 " fill-opacity="1" fill-rule="nonzero"/><path fill="#ffffff" d="M 224.890625 29.375 C 224.222656 28.488281 223.292969 27.792969 222.136719 27.320312 C 221.011719 26.820312 219.535156 26.558594 217.765625 26.558594 C 216.351562 26.558594 214.957031 26.894531 213.621094 27.550781 C 212.382812 28.125 211.351562 29.042969 210.527344 30.273438 L 210.527344 27.207031 L 203.902344 27.207031 L 203.902344 51.546875 L 210.851562 51.546875 L 210.851562 38.792969 C 210.851562 36.414062 211.238281 34.691406 212.015625 33.683594 C 212.773438 32.664062 214.027344 32.144531 215.734375 32.144531 C 217.246094 32.144531 218.261719 32.597656 218.84375 33.535156 C 219.433594 34.460938 219.738281 35.90625 219.738281 37.832031 L 219.738281 51.554688 L 226.6875 51.554688 L 226.6875 36.625 C 226.6875 35.136719 226.550781 33.765625 226.273438 32.5625 C 226.023438 31.300781 225.5625 30.226562 224.898438 29.375 Z M 224.890625 29.375 " fill-opacity="1" fill-rule="nonzero"/><path fill="#ffffff" d="M 253.71875 49.101562 C 253.597656 48.121094 253.53125 47.082031 253.53125 46.027344 L 253.53125 33.570312 C 253.53125 32.078125 253.191406 30.875 252.527344 29.976562 C 251.863281 29.0625 251.003906 28.339844 249.960938 27.828125 C 248.9375 27.328125 247.773438 26.996094 246.539062 26.839844 C 243.945312 26.449219 241.378906 26.449219 238.859375 26.976562 C 237.550781 27.226562 236.351562 27.671875 235.289062 28.300781 C 234.21875 28.929688 233.332031 29.773438 232.640625 30.820312 C 231.949219 31.867188 231.550781 33.191406 231.449219 34.765625 L 231.449219 34.976562 L 238.378906 34.976562 L 238.398438 34.800781 C 238.519531 33.570312 238.925781 32.679688 239.617188 32.164062 C 240.316406 31.636719 241.304688 31.367188 242.542969 31.367188 C 243.113281 31.367188 243.648438 31.414062 244.136719 31.503906 C 244.628906 31.5625 245.050781 31.710938 245.402344 31.949219 C 245.773438 32.144531 246.046875 32.441406 246.25 32.847656 C 246.484375 33.21875 246.59375 33.738281 246.59375 34.421875 C 246.621094 35.042969 246.445312 35.507812 246.066406 35.832031 C 245.660156 36.15625 245.097656 36.40625 244.386719 36.582031 C 243.660156 36.765625 242.820312 36.90625 241.878906 36.996094 C 240.925781 37.089844 239.949219 37.210938 238.960938 37.367188 C 237.972656 37.523438 236.976562 37.738281 235.988281 38.015625 C 235.019531 38.265625 234.125 38.664062 233.339844 39.203125 C 232.585938 39.738281 231.9375 40.480469 231.429688 41.394531 C 230.960938 42.285156 230.71875 43.441406 230.71875 44.824219 C 230.71875 46.082031 230.921875 47.183594 231.339844 48.101562 C 231.78125 49.019531 232.390625 49.785156 233.148438 50.398438 C 233.902344 51 234.800781 51.445312 235.804688 51.730469 C 236.800781 52.007812 237.890625 52.15625 239.042969 52.15625 C 240.53125 52.15625 242.015625 51.933594 243.4375 51.5 C 244.746094 51.101562 245.910156 50.417969 246.914062 49.472656 C 246.945312 49.742188 246.980469 50.019531 247.027344 50.285156 C 247.117188 50.65625 247.230469 51.027344 247.351562 51.417969 L 247.394531 51.554688 L 254.539062 51.554688 L 254.355469 51.25 C 254.058594 50.777344 253.855469 50.054688 253.734375 49.109375 Z M 237.660156 44.542969 C 237.660156 43.960938 237.761719 43.480469 237.964844 43.109375 C 238.167969 42.738281 238.425781 42.433594 238.738281 42.203125 C 239.089844 41.933594 239.496094 41.730469 239.929688 41.582031 C 240.417969 41.425781 240.90625 41.304688 241.378906 41.21875 C 241.894531 41.128906 242.414062 41.054688 242.9375 40.988281 C 243.464844 40.925781 243.972656 40.851562 244.425781 40.757812 C 244.921875 40.664062 245.382812 40.554688 245.789062 40.425781 C 246.085938 40.3125 246.351562 40.183594 246.59375 40.035156 L 246.59375 42.089844 C 246.59375 42.453125 246.546875 42.941406 246.453125 43.554688 C 246.398438 44.136719 246.207031 44.738281 245.882812 45.324219 C 245.558594 45.878906 245.0625 46.371094 244.378906 46.785156 C 243.703125 47.195312 242.726562 47.40625 241.480469 47.40625 C 240.972656 47.40625 240.476562 47.359375 239.996094 47.269531 C 239.523438 47.175781 239.109375 47.035156 238.777344 46.832031 C 238.433594 46.601562 238.15625 46.304688 237.964844 45.933594 C 237.769531 45.5625 237.660156 45.089844 237.660156 44.542969 Z M 237.660156 44.542969 " fill-opacity="1" fill-rule="nonzero"/><path fill="#ffffff" d="M 279.898438 29.636719 C 278.957031 28.597656 277.875 27.820312 276.6875 27.320312 C 274.039062 26.199219 271.222656 26.382812 268.683594 27.457031 C 267.449219 27.96875 266.425781 28.765625 265.628906 29.828125 L 265.628906 18.085938 L 258.683594 18.085938 L 258.683594 51.554688 L 265.308594 51.554688 L 265.308594 48.871094 C 266.027344 49.992188 267.015625 50.804688 268.269531 51.304688 C 269.671875 51.871094 271.277344 52.148438 273.050781 52.148438 C 274.269531 52.148438 275.496094 51.898438 276.675781 51.390625 C 277.867188 50.886719 278.945312 50.109375 279.878906 49.074219 C 280.847656 48.035156 281.632812 46.710938 282.234375 45.109375 C 282.824219 43.488281 283.117188 41.554688 283.117188 39.347656 C 283.117188 37.144531 282.824219 35.21875 282.234375 33.636719 C 281.640625 32.015625 280.847656 30.664062 279.890625 29.636719 Z M 276.179688 39.40625 C 276.179688 40.367188 276.066406 41.320312 275.855469 42.230469 C 275.644531 43.128906 275.320312 43.933594 274.867188 44.617188 C 274.425781 45.304688 273.851562 45.859375 273.179688 46.265625 C 272.535156 46.648438 271.730469 46.839844 270.789062 46.839844 C 269.847656 46.839844 269.074219 46.648438 268.398438 46.265625 C 267.714844 45.851562 267.152344 45.296875 266.710938 44.617188 C 266.269531 43.933594 265.933594 43.128906 265.722656 42.230469 C 265.511719 41.320312 265.410156 40.367188 265.410156 39.40625 C 265.410156 38.441406 265.519531 37.441406 265.722656 36.535156 C 265.933594 35.636719 266.269531 34.832031 266.710938 34.144531 C 267.152344 33.46875 267.714844 32.921875 268.398438 32.542969 C 269.074219 32.136719 269.875 31.921875 270.789062 31.921875 C 271.703125 31.921875 272.535156 32.125 273.1875 32.542969 C 273.871094 32.933594 274.433594 33.46875 274.878906 34.144531 C 275.328125 34.839844 275.664062 35.636719 275.863281 36.535156 C 276.078125 37.441406 276.1875 38.40625 276.1875 39.40625 Z M 276.179688 39.40625 " fill-opacity="1" fill-rule="nonzero"/><path fill="#ffffff" d="M 294.496094 18.085938 L 287.546875 18.085938 L 287.546875 51.554688 L 294.496094 51.554688 Z M 294.496094 18.085938 " fill-opacity="1" fill-rule="nonzero"/><path fill="#ffffff" d="M 322.265625 35.597656 C 321.832031 33.886719 321.101562 32.339844 320.113281 30.996094 C 319.144531 29.652344 317.882812 28.570312 316.359375 27.792969 C 314.828125 26.976562 313.019531 26.570312 310.960938 26.570312 C 309.125 26.570312 307.425781 26.902344 305.894531 27.558594 C 304.398438 28.21875 303.089844 29.132812 302 30.292969 C 300.910156 31.414062 300.0625 32.785156 299.460938 34.339844 C 298.871094 35.894531 298.574219 37.609375 298.574219 39.414062 C 298.574219 41.21875 298.863281 43.015625 299.414062 44.582031 C 300.007812 46.148438 300.84375 47.507812 301.90625 48.628906 C 302.96875 49.757812 304.277344 50.648438 305.8125 51.269531 C 307.332031 51.859375 309.070312 52.15625 310.960938 52.15625 C 313.691406 52.15625 316.0625 51.527344 317.992188 50.277344 C 319.929688 49.019531 321.386719 46.914062 322.320312 44.007812 L 322.402344 43.75 L 316.21875 43.75 L 316.183594 43.886719 C 315.980469 44.582031 315.417969 45.257812 314.511719 45.90625 C 313.601562 46.527344 312.480469 46.839844 311.210938 46.839844 C 309.429688 46.839844 308.042969 46.378906 307.101562 45.460938 C 306.1875 44.574219 305.671875 43.136719 305.5625 41.175781 L 322.753906 41.175781 L 322.753906 40.988281 C 322.890625 39.128906 322.734375 37.3125 322.300781 35.597656 Z M 315.75 36.609375 L 305.542969 36.609375 C 305.578125 36.210938 305.671875 35.765625 305.792969 35.292969 C 305.96875 34.726562 306.253906 34.191406 306.632812 33.691406 C 307.039062 33.191406 307.582031 32.773438 308.226562 32.441406 C 308.902344 32.089844 309.761719 31.902344 310.765625 31.902344 C 312.296875 31.902344 313.441406 32.320312 314.171875 33.136719 C 314.902344 33.933594 315.433594 35.089844 315.738281 36.597656 Z M 315.75 36.609375 " fill-opacity="1" fill-rule="nonzero"/><g clip-path="url(#2ba43f62a2)"><path fill="#ffffff" d="M 35.699219 69.484375 C 27.902344 69.484375 22.273438 69.484375 17.816406 68.929688 C 13.117188 68.34375 10.082031 67.195312 7.644531 65.066406 C 7.035156 64.539062 6.457031 63.957031 5.921875 63.335938 C 3.796875 60.890625 2.644531 57.84375 2.070312 53.128906 C 1.519531 48.636719 1.519531 43 1.519531 35.183594 C 1.519531 27.367188 1.519531 21.714844 2.070312 17.226562 C 2.652344 12.511719 3.808594 9.457031 5.921875 7.019531 C 6.457031 6.398438 7.035156 5.824219 7.644531 5.289062 C 10.082031 3.15625 13.117188 2 17.816406 1.425781 C 22.28125 0.871094 27.910156 0.871094 35.710938 0.871094 C 43.507812 0.871094 49.128906 0.871094 53.59375 1.425781 C 58.289062 2.007812 61.328125 3.15625 63.761719 5.289062 C 64.371094 5.816406 64.953125 6.398438 65.488281 7.019531 C 67.609375 9.457031 68.765625 12.511719 69.335938 17.226562 C 69.890625 21.707031 69.890625 27.355469 69.890625 35.183594 C 69.890625 43.007812 69.890625 48.65625 69.335938 53.128906 C 68.753906 57.84375 67.601562 60.898438 65.488281 63.335938 C 64.953125 63.945312 64.371094 64.53125 63.761719 65.066406 C 61.335938 67.195312 58.289062 68.355469 53.59375 68.929688 C 49.128906 69.484375 43.496094 69.484375 35.710938 69.484375 Z M 35.699219 5.011719 C 28.058594 5.011719 22.53125 5.011719 18.3125 5.527344 C 14.492188 6 12.113281 6.863281 10.351562 8.410156 C 9.878906 8.816406 9.4375 9.269531 9.019531 9.742188 C 7.480469 11.511719 6.632812 13.902344 6.160156 17.734375 C 5.644531 21.964844 5.644531 27.800781 5.644531 35.183594 C 5.644531 42.5625 5.644531 48.386719 6.160156 52.628906 C 6.632812 56.464844 7.488281 58.851562 9.03125 60.621094 C 9.445312 61.09375 9.886719 61.546875 10.359375 61.957031 C 12.121094 63.503906 14.503906 64.363281 18.324219 64.835938 C 22.539062 65.355469 28.058594 65.355469 35.710938 65.355469 C 43.359375 65.355469 48.878906 65.355469 53.09375 64.835938 C 56.914062 64.363281 59.296875 63.503906 61.058594 61.957031 C 61.53125 61.546875 61.972656 61.09375 62.386719 60.621094 C 63.929688 58.851562 64.789062 56.453125 65.257812 52.628906 C 65.773438 48.398438 65.773438 42.859375 65.773438 35.183594 C 65.773438 27.503906 65.773438 21.964844 65.257812 17.734375 C 64.789062 13.902344 63.929688 11.511719 62.386719 9.742188 C 61.972656 9.269531 61.53125 8.816406 61.058594 8.410156 C 59.296875 6.863281 56.90625 6 53.09375 5.527344 C 48.878906 5.011719 43.351562 5.011719 35.710938 5.011719 Z M 35.699219 5.011719 " fill-opacity="1" fill-rule="nonzero"/></g><path fill="#ffffff" d="M 12.59375 42.886719 L 12.59375 36.683594 C 19.503906 36.683594 24.203125 31.429688 26.914062 27.023438 C 30.300781 21.53125 37.488281 15.6875 44.144531 15.6875 L 44.144531 21.894531 C 40.148438 21.894531 34.804688 26.207031 32.3125 30.246094 C 27.285156 38.40625 20.277344 42.898438 12.601562 42.898438 Z M 12.59375 42.886719 " fill-opacity="1" fill-rule="nonzero"/><path fill="#ffffff" d="M 26.242188 47.988281 L 26.242188 41.683594 C 31.648438 41.683594 35.238281 37.109375 36.898438 34.386719 C 39.660156 29.847656 45.527344 25.042969 50.964844 25.042969 L 50.964844 31.347656 C 48.40625 31.347656 44.355469 34.300781 42.308594 37.65625 C 38.246094 44.332031 32.542969 48 26.230469 48 Z M 26.242188 47.988281 " fill-opacity="1" fill-rule="nonzero"/><path fill="#ffffff" d="M 39.878906 53.09375 L 39.878906 47.019531 C 43.496094 47.019531 46.054688 43.941406 47.253906 42.101562 C 49.476562 38.691406 54.101562 35.246094 58.640625 35.246094 L 58.640625 41.320312 C 56.953125 41.320312 54.203125 43.191406 52.855469 45.25 C 49.550781 50.304688 44.945312 53.09375 39.878906 53.09375 Z M 39.878906 53.09375 " fill-opacity="1" fill-rule="nonzero"/></svg>