<svg xmlns="http://www.w3.org/2000/svg" xmlns:xlink="http://www.w3.org/1999/xlink" width="1080" zoomAndPan="magnify" viewBox="0 0 810 809.999993" height="1080" preserveAspectRatio="xMidYMid meet" version="1.0"><path fill="#ffffff" d="M 379.6875 23.601562 C 339.027344 28.4375 311.914062 34.617188 281.476562 45.976562 C 179.304688 84.109375 98.765625 169.0625 62.953125 276.476562 C 48.8125 318.878906 44.382812 345.167969 43.109375 394.25 C 42.382812 422.253906 42.84375 444.0625 44.441406 457.023438 C 55.246094 544.730469 92.5 621.214844 154.335938 682.640625 C 241.472656 769.199219 365.21875 804.910156 490.050781 779.53125 C 516.574219 774.136719 522.882812 772.183594 530.789062 766.929688 C 539.359375 761.234375 546.765625 746.921875 546.707031 736.164062 C 546.578125 712.570312 523.015625 691.824219 500.214844 695.234375 C 496.296875 695.816406 483.976562 698.355469 472.835938 700.871094 C 445.402344 707.066406 382.910156 707.695312 356.398438 702.042969 C 296.734375 689.320312 252.460938 665.554688 210.507812 623.722656 C 165.417969 578.761719 137.484375 525.261719 126.445312 462.710938 C 121.507812 434.730469 121.496094 380.871094 126.421875 353.363281 C 149.195312 226.132812 233.773438 134.714844 352.4375 109.070312 C 380.769531 102.949219 441.210938 102.328125 467.773438 107.890625 C 527.671875 120.429688 574.78125 145.3125 612.28125 184.210938 C 658.65625 232.320312 680.132812 285.871094 686.613281 369.5625 C 690.167969 415.46875 686.417969 448.828125 674.277344 479.289062 C 656.453125 524.003906 619.238281 557.234375 586.453125 557.710938 L 574.085938 557.886719 L 572.953125 484.988281 C 571.917969 418.621094 571.425781 410.675781 567.449219 396.320312 C 554.292969 348.84375 519.011719 310.96875 475.214844 297.304688 C 443.074219 287.273438 417.386719 288.328125 383.058594 301.078125 C 372.660156 304.941406 362.785156 307.574219 361.117188 306.933594 C 358.5 305.929688 358.160156 298.140625 358.683594 250.59375 C 359.261719 197.695312 359.109375 195.078125 355.003906 187.3125 C 346.707031 171.625 333.25 163.734375 314.785156 163.734375 C 292.984375 163.734375 275.394531 179.554688 272.453125 201.808594 C 271.886719 206.085938 269.917969 295.078125 268.070312 399.570312 C 265.445312 548.175781 265.246094 591.3125 267.140625 597.640625 C 272.863281 616.746094 291.9375 628.945312 313.621094 627.375 C 333.023438 625.972656 347.34375 614.089844 352.21875 595.351562 C 353.234375 591.453125 354.914062 551.8125 355.957031 507.261719 C 357.730469 431.234375 358.121094 425.554688 362.289062 414.726562 C 368.320312 399.074219 384.566406 384.070312 400.492188 379.4375 C 413.105469 375.773438 436.375 376.496094 450.210938 380.984375 C 461.464844 384.636719 474.550781 397.09375 480.148438 409.480469 C 484.984375 420.179688 484.988281 420.234375 484.988281 499.164062 C 484.988281 583.074219 485.273438 586.058594 495.207031 605.660156 C 501.484375 618.050781 517.867188 632.5 532.164062 638.253906 C 542.109375 642.257812 547.085938 642.875 568.011719 642.707031 C 595.253906 642.484375 613.402344 638.554688 639.722656 627.175781 C 681.886719 608.949219 715.308594 574.222656 739.066406 523.953125 C 760.265625 479.097656 767.476562 447.015625 767.476562 397.535156 C 767.476562 292.445312 740.324219 210.066406 683.015625 141.261719 C 620.863281 66.648438 515.691406 21.15625 408.621094 22.578125 C 396.050781 22.746094 383.027344 23.207031 379.6875 23.601562 " fill-opacity="1" fill-rule="evenodd"/></svg>