<svg xmlns="http://www.w3.org/2000/svg" xmlns:xlink="http://www.w3.org/1999/xlink" width="1080" zoomAndPan="magnify" viewBox="0 0 810 809.999993" height="1080" preserveAspectRatio="xMidYMid meet" version="1.0"><path fill="#ffffff" d="M 389.375 174.753906 C 364.867188 177.667969 348.527344 181.390625 330.179688 188.238281 C 268.597656 211.222656 220.054688 262.425781 198.46875 327.167969 C 189.945312 352.726562 187.277344 368.570312 186.507812 398.152344 C 186.070312 415.03125 186.347656 428.179688 187.3125 435.988281 C 193.824219 488.855469 216.277344 534.953125 253.546875 571.976562 C 306.070312 624.148438 380.65625 645.671875 455.894531 630.375 C 471.882812 627.125 475.683594 625.949219 480.449219 622.78125 C 485.617188 619.347656 490.078125 610.71875 490.042969 604.238281 C 489.964844 590.015625 475.765625 577.511719 462.019531 579.566406 C 459.660156 579.917969 452.234375 581.449219 445.519531 582.964844 C 428.984375 586.699219 391.320312 587.078125 375.339844 583.671875 C 339.375 576.003906 312.695312 561.679688 287.40625 536.464844 C 260.226562 509.367188 243.390625 477.117188 236.738281 439.417969 C 233.761719 422.550781 233.753906 390.089844 236.722656 373.507812 C 250.449219 296.824219 301.429688 241.722656 372.953125 226.265625 C 390.027344 222.578125 426.457031 222.203125 442.46875 225.554688 C 478.570312 233.113281 506.964844 248.109375 529.566406 271.554688 C 557.519531 300.554688 570.464844 332.828125 574.371094 383.273438 C 576.511719 410.941406 574.253906 431.050781 566.933594 449.410156 C 556.191406 476.363281 533.761719 496.390625 514 496.675781 L 506.546875 496.785156 L 505.863281 452.84375 C 505.238281 412.84375 504.941406 408.054688 502.546875 399.402344 C 494.617188 370.785156 473.351562 347.957031 446.953125 339.722656 C 427.582031 333.675781 412.097656 334.308594 391.40625 341.996094 C 385.140625 344.324219 379.1875 345.910156 378.183594 345.527344 C 376.605469 344.921875 376.402344 340.222656 376.714844 311.566406 C 377.066406 279.683594 376.972656 278.105469 374.496094 273.425781 C 369.5 263.972656 361.386719 259.214844 350.257812 259.214844 C 337.117188 259.214844 326.515625 268.75 324.742188 282.160156 C 324.402344 284.742188 323.214844 338.378906 322.101562 401.359375 C 320.519531 490.929688 320.398438 516.929688 321.539062 520.742188 C 324.992188 532.257812 336.484375 539.613281 349.554688 538.667969 C 361.25 537.820312 369.878906 530.660156 372.820312 519.363281 C 373.429688 517.015625 374.445312 493.121094 375.074219 466.269531 C 376.140625 420.445312 376.375 417.019531 378.890625 410.496094 C 382.523438 401.0625 392.316406 392.015625 401.914062 389.226562 C 409.519531 387.015625 423.542969 387.453125 431.882812 390.160156 C 438.667969 392.359375 446.554688 399.867188 449.929688 407.332031 C 452.84375 413.785156 452.84375 413.816406 452.84375 461.386719 C 452.84375 511.964844 453.015625 513.761719 459.003906 525.578125 C 462.789062 533.046875 472.660156 541.753906 481.28125 545.222656 C 487.273438 547.636719 490.273438 548.007812 502.886719 547.90625 C 519.304688 547.773438 530.246094 545.40625 546.109375 538.546875 C 571.523438 527.558594 591.667969 506.628906 605.984375 476.332031 C 618.761719 449.292969 623.109375 429.957031 623.109375 400.132812 C 623.109375 336.792969 606.746094 287.140625 572.203125 245.667969 C 534.742188 200.695312 471.351562 173.277344 406.816406 174.132812 C 399.238281 174.234375 391.390625 174.511719 389.375 174.753906 " fill-opacity="1" fill-rule="evenodd"/></svg>