<svg width="96" height="83" viewBox="0 0 96 83" fill="none" xmlns="http://www.w3.org/2000/svg">
<circle cx="37.5325" cy="45.083" r="34.5695" stroke="#201B30" stroke-width="4.88"/>
<path d="M54.0818 45.083C54.0818 54.9974 52.0147 63.8522 48.7891 70.1389C45.4975 76.5541 41.3873 79.6526 37.5326 79.6526C33.6779 79.6526 29.5678 76.5541 26.2762 70.1389C23.0506 63.8522 20.9835 54.9974 20.9835 45.083C20.9835 35.1687 23.0506 26.3138 26.2762 20.0272C29.5678 13.612 33.6779 10.5135 37.5326 10.5135C41.3873 10.5135 45.4975 13.612 48.7891 20.0272C52.0147 26.3138 54.0818 35.1687 54.0818 45.083Z" stroke="#201B30" stroke-width="4.88"/>
<path d="M8.27637 25.7375H67.6752" stroke="#201B30" stroke-width="4.88"/>
<path d="M5.77051 62.8005H66.5519" stroke="#201B30" stroke-width="4.88"/>
<path d="M0.522949 45.0833L72.9804 45.0833" stroke="#201B30" stroke-width="4.88"/>
<path d="M36.752 81.312L36.752 8.85451" stroke="#201B30" stroke-width="4.88"/>
<path d="M46.1138 24.9772C46.1138 13.8096 46.1138 8.22587 49.3174 4.55178C49.7068 4.10523 50.1262 3.68579 50.5728 3.29641C54.2469 0.0927734 59.8306 0.0927734 70.9982 0.0927734C82.1657 0.0927734 87.7495 0.0927734 91.4236 3.29641C91.8701 3.68579 92.2896 4.10523 92.6789 4.55178C95.8826 8.22587 95.8826 13.8096 95.8826 24.9772C95.8826 36.1447 95.8826 41.7285 92.6789 45.4026C92.2896 45.8491 91.8701 46.2686 91.4236 46.6579C87.7495 49.8616 82.1657 49.8616 70.9982 49.8616C59.8306 49.8616 54.2469 49.8616 50.5728 46.6579C50.1262 46.2686 49.7068 45.8491 49.3174 45.4026C46.1138 41.7285 46.1138 36.1447 46.1138 24.9772Z" fill="#CCFF00"/>
<path d="M54.5083 30.0287V25.7676C59.2717 25.7676 62.5111 22.1592 64.3796 19.1321C66.7144 15.3568 71.6709 11.3445 76.2569 11.3445V15.6056C73.4994 15.6056 69.8198 18.5714 68.0992 21.3411C64.6319 26.9436 59.8041 30.0287 54.5083 30.0287Z" fill="#201B30"/>
<path d="M63.9131 33.5314V29.2018C67.6418 29.2018 70.1189 26.0603 71.2622 24.1882C73.165 21.0709 77.2097 17.7666 80.9593 17.7666V22.0962C79.1945 22.0962 76.4067 24.1224 74.9944 26.4257C72.1962 31.0099 68.2667 33.5314 63.9131 33.5314Z" fill="#201B30"/>
<path d="M73.3184 37.0359V32.8597C75.8136 32.8597 77.5717 30.7448 78.3992 29.4836C79.9332 27.1449 83.1223 24.7744 86.25 24.7744V28.9507C85.0882 28.9507 83.1874 30.237 82.2623 31.6485C79.9838 35.1232 76.8074 37.0359 73.3184 37.0359Z" fill="#201B30"/>
</svg>
